<svg width="165" height="40" viewBox="0 0 165 40" fill="none" xmlns="http://www.w3.org/2000/svg">
<g clip-path="url(#clip0_10973_413)">
<rect x="1.35938" y="5.33398" width="37.3333" height="34.6667" fill="white"/>
<path d="M37.5234 3.74512L27.5147 3.74516V1.25391C27.5147 0.563281 26.9553 0.00390625 26.2647 0.00390625C25.5741 0.00390625 25.0147 0.563281 25.0147 1.25391V3.74453H15.0147V1.25391C15.0147 0.563281 14.4553 0.00390625 13.7647 0.00390625C13.0741 0.00390625 12.5147 0.563281 12.5147 1.25391V3.74453H2.52344C1.14281 3.74453 0.0234375 4.86391 0.0234375 6.24453V37.4945C0.0234375 38.8751 1.14281 39.9945 2.52344 39.9945H37.5234C38.9041 39.9945 40.0234 38.8751 40.0234 37.4945V6.24453C40.0234 4.86449 38.9041 3.74512 37.5234 3.74512ZM37.5234 37.4945H2.52344V6.24453H12.5147V7.50391C12.5147 8.19449 13.0741 8.75391 13.7647 8.75391C14.4553 8.75391 15.0147 8.19449 15.0147 7.50391V6.24516H25.0147V7.50453C25.0147 8.19516 25.5741 8.75453 26.2647 8.75453C26.9553 8.75453 27.5147 8.19516 27.5147 7.50453V6.24516H37.5234V37.4945ZM28.7734 19.9951H31.2734C31.9634 19.9951 32.5234 19.4351 32.5234 18.7451V16.2451C32.5234 15.5551 31.9634 14.9951 31.2734 14.9951H28.7734C28.0834 14.9951 27.5234 15.5551 27.5234 16.2451V18.7451C27.5234 19.4351 28.0834 19.9951 28.7734 19.9951ZM28.7734 29.9945H31.2734C31.9634 29.9945 32.5234 29.4351 32.5234 28.7445V26.2445C32.5234 25.5545 31.9634 24.9945 31.2734 24.9945H28.7734C28.0834 24.9945 27.5234 25.5545 27.5234 26.2445V28.7445C27.5234 29.4357 28.0834 29.9945 28.7734 29.9945ZM21.2734 24.9945H18.7734C18.0834 24.9945 17.5234 25.5545 17.5234 26.2445V28.7445C17.5234 29.4351 18.0834 29.9945 18.7734 29.9945H21.2734C21.9634 29.9945 22.5234 29.4351 22.5234 28.7445V26.2445C22.5234 25.5551 21.9634 24.9945 21.2734 24.9945ZM21.2734 14.9951H18.7734C18.0834 14.9951 17.5234 15.5551 17.5234 16.2451V18.7451C17.5234 19.4351 18.0834 19.9951 18.7734 19.9951H21.2734C21.9634 19.9951 22.5234 19.4351 22.5234 18.7451V16.2451C22.5234 15.5545 21.9634 14.9951 21.2734 14.9951ZM11.2734 14.9951H8.77344C8.08344 14.9951 7.52344 15.5551 7.52344 16.2451V18.7451C7.52344 19.4351 8.08344 19.9951 8.77344 19.9951H11.2734C11.9634 19.9951 12.5234 19.4351 12.5234 18.7451V16.2451C12.5234 15.5545 11.9634 14.9951 11.2734 14.9951ZM11.2734 24.9945H8.77344C8.08344 24.9945 7.52344 25.5545 7.52344 26.2445V28.7445C7.52344 29.4351 8.08344 29.9945 8.77344 29.9945H11.2734C11.9634 29.9945 12.5234 29.4351 12.5234 28.7445V26.2445C12.5234 25.5551 11.9634 24.9945 11.2734 24.9945Z" fill="#4D2C19"/>
<mask id="mask0_10973_413" style="mask-type:alpha" maskUnits="userSpaceOnUse" x="0" y="0" width="41" height="40">
<path d="M37.5273 3.74512L27.5186 3.74516V1.25391C27.5186 0.563281 26.9592 0.00390625 26.2686 0.00390625C25.578 0.00390625 25.0186 0.563281 25.0186 1.25391V3.74453H15.0186V1.25391C15.0186 0.563281 14.4592 0.00390625 13.7686 0.00390625C13.078 0.00390625 12.5186 0.563281 12.5186 1.25391V3.74453H2.52734C1.14672 3.74453 0.0273438 4.86391 0.0273438 6.24453V37.4945C0.0273438 38.8751 1.14672 39.9945 2.52734 39.9945H37.5273C38.908 39.9945 40.0273 38.8751 40.0273 37.4945V6.24453C40.0273 4.86449 38.908 3.74512 37.5273 3.74512ZM37.5273 37.4945H2.52734V6.24453H12.5186V7.50391C12.5186 8.19449 13.078 8.75391 13.7686 8.75391C14.4592 8.75391 15.0186 8.19449 15.0186 7.50391V6.24516H25.0186V7.50453C25.0186 8.19516 25.578 8.75453 26.2686 8.75453C26.9592 8.75453 27.5186 8.19516 27.5186 7.50453V6.24516H37.5273V37.4945ZM28.7773 19.9951H31.2773C31.9673 19.9951 32.5273 19.4351 32.5273 18.7451V16.2451C32.5273 15.5551 31.9673 14.9951 31.2773 14.9951H28.7773C28.0873 14.9951 27.5273 15.5551 27.5273 16.2451V18.7451C27.5273 19.4351 28.0873 19.9951 28.7773 19.9951ZM28.7773 29.9945H31.2773C31.9673 29.9945 32.5273 29.4351 32.5273 28.7445V26.2445C32.5273 25.5545 31.9673 24.9945 31.2773 24.9945H28.7773C28.0873 24.9945 27.5273 25.5545 27.5273 26.2445V28.7445C27.5273 29.4357 28.0873 29.9945 28.7773 29.9945ZM21.2773 24.9945H18.7773C18.0873 24.9945 17.5273 25.5545 17.5273 26.2445V28.7445C17.5273 29.4351 18.0873 29.9945 18.7773 29.9945H21.2773C21.9673 29.9945 22.5273 29.4351 22.5273 28.7445V26.2445C22.5273 25.5551 21.9673 24.9945 21.2773 24.9945ZM21.2773 14.9951H18.7773C18.0873 14.9951 17.5273 15.5551 17.5273 16.2451V18.7451C17.5273 19.4351 18.0873 19.9951 18.7773 19.9951H21.2773C21.9673 19.9951 22.5273 19.4351 22.5273 18.7451V16.2451C22.5273 15.5545 21.9673 14.9951 21.2773 14.9951ZM11.2773 14.9951H8.77734C8.08734 14.9951 7.52734 15.5551 7.52734 16.2451V18.7451C7.52734 19.4351 8.08734 19.9951 8.77734 19.9951H11.2773C11.9673 19.9951 12.5273 19.4351 12.5273 18.7451V16.2451C12.5273 15.5545 11.9673 14.9951 11.2773 14.9951ZM11.2773 24.9945H8.77734C8.08734 24.9945 7.52734 25.5545 7.52734 26.2445V28.7445C7.52734 29.4351 8.08734 29.9945 8.77734 29.9945H11.2773C11.9673 29.9945 12.5273 29.4351 12.5273 28.7445V26.2445C12.5273 25.5551 11.9673 24.9945 11.2773 24.9945Z" fill="white"/>
</mask>
<g mask="url(#mask0_10973_413)">
<rect x="26.6953" y="13.334" width="6.66667" height="8" fill="#C96A34"/>
</g>
</g>
<path d="M54.0186 26.5L58.8438 15.9355H52.5068V13.6504H61.7266V15.3555L56.8662 26.5H54.0186ZM79.2783 19.9521C79.2783 21.3994 79 22.6094 78.4434 23.582C77.8926 24.5488 77.0928 25.2783 76.0439 25.7705C74.9951 26.2568 73.7324 26.5 72.2559 26.5H68.6172V13.6504H72.6514C73.999 13.6504 75.168 13.8906 76.1582 14.3711C77.1484 14.8457 77.916 15.5518 78.4609 16.4893C79.0059 17.4209 79.2783 18.5752 79.2783 19.9521ZM76.4482 20.0225C76.4482 19.0732 76.3076 18.2939 76.0264 17.6846C75.751 17.0693 75.3408 16.6152 74.7959 16.3223C74.2568 16.0293 73.5889 15.8828 72.792 15.8828H71.3418V24.25H72.5107C73.8408 24.25 74.8281 23.8955 75.4727 23.1865C76.123 22.4775 76.4482 21.4229 76.4482 20.0225ZM85.7559 16.4717C87.0742 16.4717 88.085 16.7588 88.7881 17.333C89.4912 17.9072 89.8428 18.7803 89.8428 19.9521V26.5H87.9707L87.4521 25.1641H87.3818C87.1006 25.5156 86.8135 25.8027 86.5205 26.0254C86.2275 26.248 85.8906 26.4121 85.5098 26.5176C85.1289 26.623 84.666 26.6758 84.1211 26.6758C83.541 26.6758 83.0195 26.5645 82.5566 26.3418C82.0996 26.1191 81.7393 25.7793 81.4756 25.3223C81.2119 24.8594 81.0801 24.2734 81.0801 23.5645C81.0801 22.5215 81.4463 21.7539 82.1787 21.2617C82.9111 20.7637 84.0098 20.4883 85.4746 20.4355L87.1797 20.3828V19.9521C87.1797 19.4365 87.0449 19.0586 86.7754 18.8184C86.5059 18.5781 86.1309 18.458 85.6504 18.458C85.1758 18.458 84.71 18.5254 84.2529 18.6602C83.7959 18.7949 83.3389 18.9648 82.8818 19.1699L81.9941 17.3594C82.5156 17.084 83.0986 16.8672 83.7432 16.709C84.3936 16.5508 85.0645 16.4717 85.7559 16.4717ZM87.1797 21.9473L86.1426 21.9824C85.2754 22.0059 84.6719 22.1611 84.332 22.4482C83.998 22.7354 83.8311 23.1133 83.8311 23.582C83.8311 23.9922 83.9512 24.2852 84.1914 24.4609C84.4316 24.6309 84.7451 24.7158 85.1318 24.7158C85.7061 24.7158 86.1895 24.5459 86.582 24.2061C86.9805 23.8662 87.1797 23.3828 87.1797 22.7559V21.9473ZM91.2051 16.6738H94.1406L95.9951 22.2021C96.0537 22.3779 96.1035 22.5566 96.1445 22.7383C96.1855 22.9199 96.2207 23.1074 96.25 23.3008C96.2793 23.4941 96.3027 23.6963 96.3203 23.9072H96.373C96.4082 23.5908 96.4551 23.2949 96.5137 23.0195C96.5781 22.7441 96.6572 22.4717 96.751 22.2021L98.5703 16.6738H101.444L97.2871 27.7568C97.0352 28.4365 96.707 29.002 96.3027 29.4531C95.8984 29.9102 95.4326 30.2529 94.9053 30.4814C94.3838 30.71 93.8096 30.8242 93.1826 30.8242C92.8779 30.8242 92.6143 30.8066 92.3916 30.7715C92.1689 30.7422 91.9785 30.71 91.8203 30.6748V28.5479C91.9434 28.5771 92.0986 28.6035 92.2861 28.627C92.4736 28.6504 92.6699 28.6621 92.875 28.6621C93.25 28.6621 93.5723 28.583 93.8418 28.4248C94.1113 28.2666 94.3369 28.0527 94.5186 27.7832C94.7002 27.5195 94.8438 27.2295 94.9492 26.9131L95.1074 26.4297L91.2051 16.6738ZM109.715 23.582C109.715 24.25 109.557 24.8154 109.24 25.2783C108.93 25.7354 108.464 26.084 107.843 26.3242C107.222 26.5586 106.448 26.6758 105.522 26.6758C104.837 26.6758 104.248 26.6318 103.756 26.5439C103.27 26.4561 102.777 26.3096 102.279 26.1045V23.8896C102.812 24.1299 103.384 24.3291 103.993 24.4873C104.608 24.6396 105.147 24.7158 105.61 24.7158C106.132 24.7158 106.504 24.6396 106.727 24.4873C106.955 24.3291 107.069 24.124 107.069 23.8721C107.069 23.708 107.022 23.5615 106.929 23.4326C106.841 23.2979 106.647 23.1484 106.349 22.9844C106.05 22.8145 105.581 22.5947 104.942 22.3252C104.327 22.0674 103.82 21.8066 103.422 21.543C103.029 21.2793 102.736 20.9688 102.543 20.6113C102.355 20.248 102.262 19.7881 102.262 19.2314C102.262 18.3232 102.613 17.6406 103.316 17.1836C104.025 16.7207 104.972 16.4893 106.155 16.4893C106.765 16.4893 107.345 16.5508 107.896 16.6738C108.452 16.7969 109.023 16.9932 109.609 17.2627L108.801 19.1963C108.314 18.9854 107.854 18.8125 107.421 18.6777C106.993 18.543 106.557 18.4756 106.111 18.4756C105.719 18.4756 105.423 18.5283 105.224 18.6338C105.024 18.7393 104.925 18.9004 104.925 19.1172C104.925 19.2754 104.975 19.416 105.074 19.5391C105.18 19.6621 105.379 19.7998 105.672 19.9521C105.971 20.0986 106.407 20.2891 106.981 20.5234C107.538 20.752 108.021 20.9922 108.432 21.2441C108.842 21.4902 109.158 21.7979 109.381 22.167C109.604 22.5303 109.715 23.002 109.715 23.582Z" fill="#C96A34"/>
<path d="M128.356 20.0576C128.356 21.0479 128.233 21.9502 127.987 22.7646C127.741 23.5732 127.366 24.2705 126.862 24.8564C126.364 25.4424 125.731 25.8936 124.964 26.21C124.196 26.5205 123.288 26.6758 122.239 26.6758C121.19 26.6758 120.282 26.5205 119.515 26.21C118.747 25.8936 118.111 25.4424 117.607 24.8564C117.109 24.2705 116.737 23.5703 116.491 22.7559C116.245 21.9414 116.122 21.0361 116.122 20.04C116.122 18.71 116.339 17.5527 116.772 16.5684C117.212 15.5781 117.886 14.8105 118.794 14.2656C119.702 13.7207 120.856 13.4482 122.257 13.4482C123.651 13.4482 124.797 13.7207 125.693 14.2656C126.596 14.8105 127.264 15.5781 127.697 16.5684C128.137 17.5586 128.356 18.7217 128.356 20.0576ZM118.979 20.0576C118.979 20.9541 119.09 21.7275 119.312 22.3779C119.541 23.0225 119.896 23.5205 120.376 23.8721C120.856 24.2178 121.478 24.3906 122.239 24.3906C123.013 24.3906 123.64 24.2178 124.12 23.8721C124.601 23.5205 124.949 23.0225 125.166 22.3779C125.389 21.7275 125.5 20.9541 125.5 20.0576C125.5 18.71 125.248 17.6494 124.744 16.876C124.24 16.1025 123.411 15.7158 122.257 15.7158C121.489 15.7158 120.862 15.8916 120.376 16.2432C119.896 16.5889 119.541 17.0869 119.312 17.7373C119.09 18.3818 118.979 19.1553 118.979 20.0576ZM136.275 16.4893C137.383 16.4893 138.276 16.9199 138.956 17.7812C139.642 18.6426 139.984 19.9053 139.984 21.5693C139.984 22.6826 139.823 23.6201 139.501 24.3818C139.179 25.1377 138.733 25.709 138.165 26.0957C137.597 26.4824 136.943 26.6758 136.205 26.6758C135.73 26.6758 135.323 26.6172 134.983 26.5C134.644 26.377 134.354 26.2217 134.113 26.0342C133.873 25.8408 133.665 25.6357 133.489 25.4189H133.349C133.396 25.6533 133.431 25.8936 133.454 26.1396C133.478 26.3857 133.489 26.626 133.489 26.8604V30.8242H130.809V16.6738H132.988L133.366 17.9482H133.489C133.665 17.6846 133.879 17.4414 134.131 17.2188C134.383 16.9961 134.685 16.8203 135.036 16.6914C135.394 16.5566 135.807 16.4893 136.275 16.4893ZM135.414 18.6338C134.945 18.6338 134.573 18.7305 134.298 18.9238C134.022 19.1172 133.82 19.4072 133.691 19.7939C133.568 20.1807 133.501 20.6699 133.489 21.2617V21.5518C133.489 22.1846 133.548 22.7207 133.665 23.1602C133.788 23.5996 133.99 23.9336 134.271 24.1621C134.559 24.3906 134.951 24.5049 135.449 24.5049C135.859 24.5049 136.196 24.3906 136.46 24.1621C136.724 23.9336 136.92 23.5996 137.049 23.1602C137.184 22.7148 137.251 22.1729 137.251 21.5342C137.251 20.5732 137.102 19.8496 136.803 19.3633C136.504 18.877 136.041 18.6338 135.414 18.6338ZM146.251 16.4893C147.159 16.4893 147.941 16.665 148.598 17.0166C149.254 17.3623 149.761 17.8662 150.118 18.5283C150.476 19.1904 150.654 19.999 150.654 20.9541V22.2549H144.317C144.347 23.0107 144.572 23.6055 144.994 24.0391C145.422 24.4668 146.014 24.6807 146.77 24.6807C147.396 24.6807 147.971 24.6162 148.492 24.4873C149.014 24.3584 149.55 24.165 150.101 23.9072V25.9814C149.614 26.2217 149.104 26.3975 148.571 26.5088C148.044 26.6201 147.402 26.6758 146.646 26.6758C145.662 26.6758 144.789 26.4941 144.027 26.1309C143.271 25.7676 142.677 25.2139 142.243 24.4697C141.815 23.7256 141.602 22.7881 141.602 21.6572C141.602 20.5088 141.795 19.5537 142.182 18.792C142.574 18.0244 143.119 17.4502 143.816 17.0693C144.514 16.6826 145.325 16.4893 146.251 16.4893ZM146.269 18.3965C145.747 18.3965 145.313 18.5635 144.968 18.8975C144.628 19.2314 144.432 19.7559 144.379 20.4707H148.141C148.135 20.0723 148.062 19.7178 147.921 19.4072C147.786 19.0967 147.581 18.8506 147.306 18.6689C147.036 18.4873 146.69 18.3965 146.269 18.3965ZM158.415 16.4893C159.464 16.4893 160.308 16.7764 160.946 17.3506C161.585 17.9189 161.904 18.833 161.904 20.0928V26.5H159.224V20.7607C159.224 20.0576 159.095 19.5273 158.837 19.1699C158.585 18.8125 158.187 18.6338 157.642 18.6338C156.821 18.6338 156.262 18.9121 155.963 19.4688C155.664 20.0254 155.515 20.8281 155.515 21.877V26.5H152.834V16.6738H154.882L155.242 17.9307H155.392C155.603 17.5908 155.863 17.3154 156.174 17.1045C156.49 16.8936 156.839 16.7383 157.22 16.6387C157.606 16.5391 158.005 16.4893 158.415 16.4893Z" fill="black"/>
<defs>
<clipPath id="clip0_10973_413">
<rect width="40" height="40" fill="white" transform="translate(0.0234375)"/>
</clipPath>
</defs>
</svg>
