<svg width="152" height="39" viewBox="0 0 152 39" fill="none" xmlns="http://www.w3.org/2000/svg">
<path opacity="0.5" d="M34.4968 27.5776V36.9711C34.4968 37.5092 34.283 38.0253 33.9025 38.4058C33.522 38.7863 33.0059 39.0001 32.4678 39.0001H2.46181C2.1951 39.0005 1.93092 38.9483 1.68439 38.8465C1.43786 38.7448 1.21382 38.5954 1.02508 38.4069C0.836334 38.2185 0.686593 37.9946 0.58443 37.7483C0.482268 37.5019 0.429687 37.2378 0.429688 36.9711V27.5776C0.429688 27.0386 0.643787 26.5218 1.02488 26.1407C1.40598 25.7596 1.92286 25.5455 2.46181 25.5455H10.0987C10.1929 25.5998 10.2713 25.6778 10.3262 25.7717C10.3811 25.8656 10.4106 25.9721 10.4118 26.0809V32.7472C10.4118 32.9083 10.4758 33.0628 10.5898 33.1767C10.7037 33.2906 10.8582 33.3546 11.0193 33.3546H23.1275C23.2089 33.3571 23.2899 33.3433 23.3658 33.3139C23.4416 33.2845 23.5108 33.2401 23.5692 33.1835C23.6277 33.1268 23.6741 33.059 23.7058 32.9841C23.7375 32.9091 23.7538 32.8285 23.7537 32.7472V26.0966C23.7549 25.9878 23.7845 25.8812 23.8394 25.7873C23.8943 25.6935 23.9727 25.6155 24.0669 25.5611H32.4803C33.0138 25.5652 33.5244 25.779 33.9016 26.1563C34.2789 26.5335 34.4927 27.0441 34.4968 27.5776Z" fill="white"/>
<path d="M34.7648 27.5776V36.9711C34.7639 37.5095 34.5495 38.0256 34.1685 38.406C33.7875 38.7864 33.271 39.0001 32.7326 39.0001H2.72353C2.18512 39.0001 1.6687 38.7864 1.28769 38.406C0.906685 38.0256 0.692236 37.5095 0.691406 36.9711V27.5776C0.692234 27.0389 0.906583 26.5225 1.2875 26.1416C1.66842 25.7607 2.18483 25.5463 2.72353 25.5455H10.3604C10.4546 25.5998 10.533 25.6778 10.588 25.7717C10.6429 25.8656 10.6723 25.9721 10.6736 26.0809V32.7472C10.6736 32.9083 10.7376 33.0628 10.8515 33.1767C10.9654 33.2906 11.1199 33.3546 11.281 33.3546H23.3892C23.5503 33.3546 23.7048 33.2906 23.8188 33.1767C23.9327 33.0628 23.9967 32.9083 23.9967 32.7472V26.0966C23.9979 25.9878 24.0274 25.8812 24.0823 25.7873C24.1372 25.6935 24.2156 25.6155 24.3098 25.5611H32.7232C33.2609 25.5595 33.7773 25.7706 34.1598 26.1484C34.5423 26.5262 34.7598 27.04 34.7648 27.5776Z" fill="white"/>
<path d="M35.027 25.7309V35.1244C35.0274 35.3913 34.9752 35.6558 34.8732 35.9025C34.7712 36.1493 34.6215 36.3734 34.4327 36.5622C34.244 36.751 34.0198 36.9007 33.773 37.0026C33.5263 37.1046 33.2619 37.1569 32.9949 37.1565H2.98578C2.71906 37.1565 2.45498 37.1039 2.20861 37.0018C1.96223 36.8996 1.73841 36.7498 1.54996 36.5611C1.36151 36.3724 1.21211 36.1483 1.11033 35.9018C1.00855 35.6553 0.956378 35.3911 0.95679 35.1244V25.7309C0.956378 25.4641 1.00855 25.2 1.11033 24.9535C1.21211 24.7069 1.36151 24.4829 1.54996 24.2941C1.73841 24.1054 1.96223 23.9557 2.20861 23.8535C2.45498 23.7513 2.71906 23.6987 2.98578 23.6987H10.6258C10.7208 23.7514 10.8 23.8285 10.8551 23.9221C10.9102 24.0158 10.9391 24.1224 10.939 24.2311V30.8691C10.9364 30.9502 10.9502 31.031 10.9794 31.1066C11.0086 31.1823 11.0527 31.2513 11.109 31.3097C11.1653 31.3681 11.2328 31.4146 11.3074 31.4465C11.3819 31.4783 11.4622 31.495 11.5433 31.4953H23.6609C23.822 31.4953 23.9765 31.4313 24.0904 31.3174C24.2043 31.2035 24.2683 31.049 24.2683 30.8879V24.2311C24.2682 24.1224 24.2971 24.0158 24.3522 23.9221C24.4073 23.8285 24.4864 23.7514 24.5815 23.6987H32.9918C33.259 23.6979 33.5238 23.7499 33.7709 23.8517C34.018 23.9535 34.2425 24.1031 34.4316 24.2919C34.6207 24.4807 34.7707 24.7051 34.8729 24.952C34.975 25.1989 35.0274 25.4636 35.027 25.7309Z" stroke="#4D2C19" stroke-width="1.56558" stroke-miterlimit="10"/>
<path d="M30.6581 9.1917V21.303C30.6586 21.3825 30.6432 21.4613 30.613 21.5348C30.5828 21.6083 30.5383 21.6751 30.4821 21.7313C30.4259 21.7875 30.3591 21.832 30.2856 21.8622C30.2121 21.8924 30.1333 21.9078 30.0538 21.9074H23.4001C23.3205 21.9074 23.2416 21.9231 23.1681 21.9536C23.0946 21.9842 23.0278 22.029 22.9717 22.0855C22.9155 22.1419 22.8711 22.2089 22.8409 22.2826C22.8107 22.3563 22.7954 22.4352 22.7958 22.5148V29.1654C22.7958 29.3265 22.7318 29.481 22.6179 29.5949C22.5039 29.7088 22.3494 29.7728 22.1883 29.7728H10.077C9.99722 29.7728 9.91822 29.7571 9.84452 29.7266C9.77082 29.6961 9.70388 29.6513 9.64747 29.5949C9.59106 29.5385 9.5463 29.4715 9.51577 29.3978C9.48525 29.3241 9.46954 29.2452 9.46954 29.1654V22.5148C9.46996 22.4352 9.45463 22.3563 9.42444 22.2826C9.39426 22.2089 9.3498 22.1419 9.29364 22.0855C9.23749 22.029 9.17074 21.9842 9.09722 21.9536C9.0237 21.9231 8.94485 21.9074 8.86523 21.9074H2.2115C2.13202 21.9078 2.05324 21.8924 1.97974 21.8622C1.90623 21.832 1.83946 21.7875 1.78326 21.7313C1.72706 21.6751 1.68255 21.6083 1.65233 21.5348C1.6221 21.4613 1.60677 21.3825 1.60719 21.303V9.1917C1.60677 9.11208 1.6221 9.03314 1.65229 8.95946C1.68247 8.88578 1.72691 8.8188 1.78307 8.76235C1.83922 8.7059 1.90599 8.66113 1.97951 8.63056C2.05303 8.59999 2.13188 8.58423 2.2115 8.58423H8.86523C8.94485 8.58424 9.0237 8.56851 9.09722 8.53795C9.17074 8.50738 9.23749 8.46261 9.29364 8.40616C9.3498 8.34971 9.39426 8.28269 9.42444 8.20901C9.45463 8.13533 9.46996 8.05643 9.46954 7.97681V1.32622C9.46954 1.24644 9.48525 1.16745 9.51577 1.09375C9.5463 1.02005 9.59106 0.953081 9.64747 0.896674C9.70388 0.840268 9.77082 0.795526 9.84452 0.764999C9.91822 0.734472 9.99722 0.71875 10.077 0.71875H22.1883C22.3494 0.71875 22.5039 0.782756 22.6179 0.896674C22.7318 1.01059 22.7958 1.16511 22.7958 1.32622V7.97681C22.7954 8.05643 22.8107 8.13533 22.8409 8.20901C22.8711 8.28269 22.9155 8.34971 22.9717 8.40616C23.0278 8.46261 23.0946 8.50738 23.1681 8.53795C23.2416 8.56851 23.3205 8.58424 23.4001 8.58423H30.0538C30.1335 8.58423 30.2123 8.59999 30.2858 8.63056C30.3593 8.66113 30.4261 8.7059 30.4823 8.76235C30.5384 8.8188 30.5829 8.88578 30.613 8.95946C30.6432 9.03314 30.6586 9.11208 30.6581 9.1917Z" fill="white"/>
<path d="M32.1336 10.9073V23.0186C32.1328 23.1792 32.0685 23.3329 31.9546 23.4461C31.8408 23.5594 31.6868 23.6229 31.5262 23.6229H24.8756C24.7148 23.6238 24.5607 23.688 24.447 23.8018C24.3332 23.9155 24.269 24.0696 24.2682 24.2304V30.8685C24.2682 30.9482 24.2524 31.0272 24.2219 31.1009C24.1914 31.1746 24.1466 31.2416 24.0902 31.298C24.0338 31.3544 23.9669 31.3992 23.8932 31.4297C23.8195 31.4602 23.7405 31.4759 23.6607 31.4759H11.5431C11.4633 31.4759 11.3843 31.4602 11.3106 31.4297C11.2369 31.3992 11.17 31.3544 11.1136 31.298C11.0572 31.2416 11.0124 31.1746 10.9819 31.1009C10.9514 31.0272 10.9356 30.9482 10.9356 30.8685V24.2304C10.9358 24.1218 10.9068 24.0151 10.8518 23.9215C10.7967 23.8279 10.7175 23.7507 10.6225 23.6981C10.533 23.6498 10.4331 23.624 10.3313 23.6229H3.68386C3.5233 23.6229 3.36926 23.5594 3.25543 23.4461C3.1416 23.3329 3.07724 23.1792 3.07642 23.0186V10.9073C3.07641 10.8277 3.09214 10.7488 3.1227 10.6753C3.15327 10.6018 3.19806 10.535 3.25451 10.4789C3.31096 10.4227 3.37794 10.3782 3.45162 10.3481C3.52531 10.3179 3.60424 10.3025 3.68386 10.303H10.3345C10.4142 10.303 10.4932 10.2873 10.5669 10.2567C10.6406 10.2262 10.7076 10.1815 10.764 10.1251C10.8204 10.0687 10.8651 10.0017 10.8957 9.92799C10.9262 9.8543 10.9419 9.7753 10.9419 9.69553V3.0418C10.9427 2.88124 11.0071 2.72753 11.1209 2.61429C11.2347 2.50104 11.3888 2.43747 11.5494 2.43747H23.6607C23.8213 2.43747 23.9753 2.50104 24.0891 2.61429C24.2029 2.72753 24.2673 2.88124 24.2682 3.0418V9.69553C24.2682 9.7753 24.2839 9.8543 24.3144 9.92799C24.3449 10.0017 24.3897 10.0687 24.4461 10.1251C24.5025 10.1815 24.5694 10.2262 24.6431 10.2567C24.7168 10.2873 24.7958 10.303 24.8756 10.303H31.5262C31.6058 10.3025 31.6847 10.3179 31.7584 10.3481C31.8321 10.3782 31.8991 10.4227 31.9555 10.4789C32.012 10.535 32.0568 10.6018 32.0873 10.6753C32.1179 10.7488 32.1336 10.8277 32.1336 10.9073Z" stroke="#4D2C19" stroke-width="1.56558" stroke-miterlimit="10"/>
<path d="M57.0203 23.6964H55.4734V26.3594H52.8191V23.6964H47.3347V21.8067L52.9685 13.5098H55.4734V21.587H57.0203V23.6964ZM52.8191 21.587V19.4073C52.8191 19.2022 52.822 18.959 52.8279 18.6778C52.8396 18.3965 52.8513 18.1153 52.863 17.834C52.8748 17.5528 52.8865 17.3038 52.8982 17.087C52.9158 16.8643 52.9275 16.709 52.9333 16.6212H52.863C52.7517 16.8614 52.6345 17.0958 52.5115 17.3243C52.3884 17.5469 52.2449 17.7813 52.0808 18.0274L49.7253 21.587H52.8191ZM62.7244 18.1505C63.5095 18.1505 64.2068 18.2999 64.8162 18.5987C65.4314 18.8975 65.9148 19.337 66.2664 19.9171C66.6179 20.4971 66.7937 21.212 66.7937 22.0616C66.7937 22.9874 66.6003 23.7872 66.2136 24.461C65.8328 25.129 65.2615 25.6417 64.4998 25.9991C63.7439 26.3565 62.8005 26.5352 61.6697 26.5352C60.9958 26.5352 60.3601 26.4766 59.7625 26.3594C59.1707 26.2481 58.6521 26.0753 58.2068 25.8409V23.4942C58.6521 23.7286 59.1853 23.9278 59.8064 24.0919C60.4333 24.2501 61.0222 24.3292 61.573 24.3292C62.1121 24.3292 62.5662 24.2589 62.9353 24.1182C63.3044 23.9717 63.5828 23.7491 63.7703 23.4503C63.9636 23.1456 64.0603 22.7589 64.0603 22.2901C64.0603 21.6631 63.8494 21.1827 63.4275 20.8487C63.0056 20.5147 62.3582 20.3477 61.4851 20.3477C61.1511 20.3477 60.8025 20.3799 60.4392 20.4444C60.0818 20.5089 59.783 20.5733 59.5427 20.6378L58.4617 20.0577L58.9451 13.5098H65.9148V15.8126H61.3269L61.0896 18.335C61.2888 18.294 61.5056 18.253 61.74 18.212C61.9744 18.171 62.3025 18.1505 62.7244 18.1505ZM77.2615 19.9346C77.2615 20.9717 77.1794 21.8975 77.0154 22.712C76.8572 23.5264 76.5994 24.2178 76.2419 24.7862C75.8904 25.3546 75.4275 25.7881 74.8533 26.087C74.2791 26.3858 73.5818 26.5352 72.7615 26.5352C71.7302 26.5352 70.8835 26.2745 70.2214 25.753C69.5593 25.2256 69.0701 24.4698 68.7537 23.4854C68.4373 22.4952 68.2791 21.3116 68.2791 19.9346C68.2791 18.546 68.4226 17.3594 68.7097 16.3751C69.0027 15.3848 69.4773 14.626 70.1335 14.0987C70.7898 13.5714 71.6658 13.3077 72.7615 13.3077C73.7869 13.3077 74.6306 13.5714 75.2927 14.0987C75.9607 14.6202 76.4558 15.376 76.7781 16.3663C77.1003 17.3506 77.2615 18.5401 77.2615 19.9346ZM70.9773 19.9346C70.9773 20.9131 71.03 21.7305 71.1355 22.3868C71.2468 23.0372 71.4314 23.5264 71.6892 23.8546C71.947 24.1827 72.3044 24.3467 72.7615 24.3467C73.2126 24.3467 73.5671 24.1856 73.825 23.8633C74.0886 23.5352 74.2761 23.046 74.3875 22.3956C74.4988 21.7393 74.5544 20.919 74.5544 19.9346C74.5544 18.9561 74.4988 18.1387 74.3875 17.4825C74.2761 16.8262 74.0886 16.334 73.825 16.0059C73.5671 15.6719 73.2126 15.5049 72.7615 15.5049C72.3044 15.5049 71.947 15.6719 71.6892 16.0059C71.4314 16.334 71.2468 16.8262 71.1355 17.4825C71.03 18.1387 70.9773 18.9561 70.9773 19.9346ZM84.0291 19.0557H87.4304V20.9805H84.0291V24.3643H82.1042V20.9805H78.7029V19.0557H82.1042V15.628H84.0291V19.0557Z" fill="#C96A34"/>
<path d="M99.9812 15.5928C99.4597 15.5928 98.9968 15.6954 98.5925 15.9005C98.1941 16.0997 97.8572 16.3897 97.5818 16.7706C97.3123 17.1514 97.1072 17.6114 96.9666 18.1505C96.8259 18.6895 96.7556 19.296 96.7556 19.9698C96.7556 20.878 96.8669 21.6544 97.0896 22.2989C97.3181 22.9376 97.6697 23.4268 98.1443 23.7667C98.6189 24.1006 99.2312 24.2676 99.9812 24.2676C100.503 24.2676 101.024 24.209 101.546 24.0919C102.073 23.9747 102.644 23.8077 103.26 23.5909V25.876C102.691 26.1104 102.132 26.2774 101.581 26.377C101.03 26.4825 100.412 26.5352 99.7263 26.5352C98.4021 26.5352 97.3123 26.2628 96.4568 25.7178C95.6072 25.1671 94.9773 24.3995 94.5671 23.4151C94.157 22.4249 93.9519 21.2706 93.9519 19.9522C93.9519 18.9796 94.0837 18.0889 94.3474 17.2803C94.6111 16.4717 94.9978 15.7715 95.5076 15.1797C96.0173 14.588 96.6472 14.1309 97.3972 13.8087C98.1472 13.4864 99.0085 13.3253 99.9812 13.3253C100.62 13.3253 101.259 13.4073 101.897 13.5714C102.542 13.7296 103.157 13.9493 103.743 14.2305L102.864 16.4454C102.384 16.2169 101.9 16.0176 101.414 15.8477C100.927 15.6778 100.45 15.5928 99.9812 15.5928ZM108.471 26.3594H105.791V12.6837H108.471V26.3594ZM113.973 16.5333V26.3594H111.293V16.5333H113.973ZM112.637 12.6837C113.036 12.6837 113.379 12.7774 113.666 12.9649C113.953 13.1465 114.096 13.4893 114.096 13.9932C114.096 14.4913 113.953 14.837 113.666 15.0303C113.379 15.2178 113.036 15.3116 112.637 15.3116C112.233 15.3116 111.887 15.2178 111.6 15.0303C111.319 14.837 111.178 14.4913 111.178 13.9932C111.178 13.4893 111.319 13.1465 111.6 12.9649C111.887 12.7774 112.233 12.6837 112.637 12.6837ZM122.376 16.3487C123.425 16.3487 124.268 16.6358 124.907 17.21C125.546 17.7784 125.865 18.6924 125.865 19.9522V26.3594H123.184V20.6202C123.184 19.9171 123.055 19.3868 122.798 19.0294C122.546 18.6719 122.147 18.4932 121.602 18.4932C120.782 18.4932 120.222 18.7715 119.924 19.3282C119.625 19.8848 119.475 20.6876 119.475 21.7364V26.3594H116.795V16.5333H118.843L119.203 17.7901H119.352C119.563 17.4503 119.824 17.1749 120.135 16.9639C120.451 16.753 120.8 16.5977 121.18 16.4981C121.567 16.3985 121.966 16.3487 122.376 16.3487ZM131.305 16.5333V26.3594H128.625V16.5333H131.305ZM129.969 12.6837C130.368 12.6837 130.711 12.7774 130.998 12.9649C131.285 13.1465 131.428 13.4893 131.428 13.9932C131.428 14.4913 131.285 14.837 130.998 15.0303C130.711 15.2178 130.368 15.3116 129.969 15.3116C129.565 15.3116 129.219 15.2178 128.932 15.0303C128.651 14.837 128.51 14.4913 128.51 13.9932C128.51 13.4893 128.651 13.1465 128.932 12.9649C129.219 12.7774 129.565 12.6837 129.969 12.6837ZM138.117 26.5352C137.144 26.5352 136.315 26.3594 135.63 26.0079C134.944 25.6505 134.423 25.0997 134.065 24.3555C133.708 23.6114 133.529 22.6592 133.529 21.4991C133.529 20.2979 133.731 19.3194 134.135 18.5635C134.546 17.8018 135.111 17.2422 135.832 16.8848C136.558 16.5274 137.399 16.3487 138.354 16.3487C139.034 16.3487 139.62 16.4161 140.112 16.5508C140.61 16.6797 141.044 16.835 141.413 17.0167L140.622 19.0909C140.2 18.921 139.807 18.7833 139.444 18.6778C139.081 18.5665 138.718 18.5108 138.354 18.5108C137.885 18.5108 137.496 18.6221 137.185 18.8448C136.875 19.0616 136.643 19.3897 136.491 19.8292C136.339 20.2686 136.262 20.8194 136.262 21.4815C136.262 22.1319 136.344 22.671 136.509 23.0987C136.673 23.5264 136.91 23.8458 137.22 24.0567C137.531 24.2618 137.909 24.3643 138.354 24.3643C138.911 24.3643 139.406 24.2911 139.84 24.1446C140.273 23.9922 140.695 23.7813 141.105 23.5118V25.8057C140.695 26.0635 140.264 26.2481 139.813 26.3594C139.368 26.4766 138.802 26.5352 138.117 26.5352ZM150.246 23.4415C150.246 24.1094 150.088 24.6749 149.771 25.1378C149.461 25.5948 148.995 25.9434 148.374 26.1837C147.753 26.418 146.979 26.5352 146.053 26.5352C145.368 26.5352 144.779 26.4913 144.287 26.4034C143.801 26.3155 143.308 26.169 142.81 25.9639V23.7491C143.344 23.9893 143.915 24.1885 144.524 24.3467C145.139 24.4991 145.678 24.5753 146.141 24.5753C146.663 24.5753 147.035 24.4991 147.258 24.3467C147.486 24.1885 147.6 23.9835 147.6 23.7315C147.6 23.5674 147.553 23.421 147.46 23.2921C147.372 23.1573 147.178 23.0079 146.88 22.8438C146.581 22.6739 146.112 22.4542 145.473 22.1846C144.858 21.9268 144.351 21.6661 143.953 21.4024C143.56 21.1387 143.267 20.8282 143.074 20.4708C142.886 20.1075 142.793 19.6475 142.793 19.0909C142.793 18.1827 143.144 17.5001 143.847 17.043C144.556 16.5801 145.503 16.3487 146.686 16.3487C147.296 16.3487 147.876 16.4102 148.427 16.5333C148.983 16.6563 149.554 16.8526 150.14 17.1221L149.332 19.0557C148.845 18.8448 148.385 18.6719 147.952 18.5372C147.524 18.4024 147.088 18.335 146.642 18.335C146.25 18.335 145.954 18.3878 145.755 18.4932C145.555 18.5987 145.456 18.7598 145.456 18.9766C145.456 19.1348 145.506 19.2755 145.605 19.3985C145.711 19.5215 145.91 19.6592 146.203 19.8116C146.502 19.9581 146.938 20.1485 147.512 20.3829C148.069 20.6114 148.552 20.8516 148.963 21.1036C149.373 21.3497 149.689 21.6573 149.912 22.0264C150.135 22.3897 150.246 22.8614 150.246 23.4415Z" fill="black"/>
</svg>
