<svg width="179" height="40" viewBox="0 0 179 40" fill="none" xmlns="http://www.w3.org/2000/svg">
<path d="M28.0058 10.6801C28.0031 12.9208 27.3139 15.1069 26.031 16.944C24.7482 18.7811 22.9332 20.1811 20.8306 20.9554C18.7279 21.7297 16.4385 21.8412 14.2705 21.2748C12.1026 20.7085 10.1602 19.4915 8.70494 17.7877C7.23387 15.4406 6.70573 12.6236 7.22667 9.90307C7.74761 7.1825 9.27901 4.75994 11.5131 3.12231C13.7471 1.48468 16.5183 0.753345 19.2695 1.07533C22.0207 1.39731 24.5481 2.74874 26.3437 4.85797C27.4369 6.60256 28.0132 8.6213 28.0058 10.6801Z" fill="white"/>
<path d="M28.9478 11.9657C28.9475 14.5391 28.0416 17.0303 26.3889 19.0029C24.7363 20.9754 22.4422 22.3036 19.9086 22.7546C17.3751 23.2057 14.7636 22.7509 12.5317 21.4698C10.2998 20.1888 8.5898 18.1633 7.70131 15.7482C6.81283 13.333 6.8025 10.6822 7.67213 8.26024C8.54176 5.83824 10.2359 3.79944 12.4577 2.50107C14.6796 1.2027 17.2875 0.727543 19.8245 1.15883C22.3615 1.59011 24.6658 2.90033 26.3338 4.85997C28.0214 6.8429 28.9481 9.36182 28.9478 11.9657Z" stroke="#4D2C19" stroke-width="0.936934" stroke-miterlimit="10"/>
<path opacity="0.5" d="M24.9208 12.0088C24.2293 15.8371 20.8451 18.5673 17.1218 18.4324C13.6963 18.3106 10.6981 15.794 9.93359 12.3142L24.9208 12.0088Z" fill="white"/>
<path d="M25.4364 13.0352C24.745 16.8653 21.3608 19.5937 17.6374 19.4588C14.2119 19.337 11.2138 16.8222 10.4492 13.3425L25.4364 13.0352Z" stroke="#4D2C19" stroke-width="0.936934" stroke-miterlimit="10" stroke-linecap="round"/>
<path d="M13.3709 24.0921C14.7138 26.0909 16.0567 28.0935 17.3997 30.0998L21.6908 23.916H27.8221C27.8221 23.916 33.1477 25.3495 33.2001 32.9462V37.3929H1.35938L1.43808 30.647C1.43808 30.647 1.82222 24.6506 7.23395 24.0884L13.3709 24.0921Z" fill="white"/>
<path opacity="0.5" d="M26.1282 36.0963C27.871 36.0963 29.2838 34.6835 29.2838 32.9408C29.2838 31.198 27.871 29.7852 26.1282 29.7852C24.3855 29.7852 22.9727 31.198 22.9727 32.9408C22.9727 34.6835 24.3855 36.0963 26.1282 36.0963Z" fill="white"/>
<path d="M7.62673 36.6431H5.3125V29.9291C5.31258 29.6065 5.39659 29.2895 5.55626 29.0093C5.71593 28.7291 5.94578 28.4952 6.2232 28.3307L9.91472 26.1476V22.7334" stroke="#4D2C19" stroke-width="0.936934" stroke-miterlimit="10" stroke-linecap="round"/>
<path d="M12.0966 36.6429H14.4108V29.8126C14.4109 29.5255 14.3362 29.2432 14.1939 28.9938C14.0516 28.7444 13.8467 28.5364 13.5994 28.3904L9.80859 26.1417V22.7275" stroke="#4D2C19" stroke-width="0.936934" stroke-miterlimit="10" stroke-linecap="round"/>
<path d="M27.1797 22.5498V30.0378" stroke="#4D2C19" stroke-width="0.936934" stroke-miterlimit="10"/>
<path d="M26.8705 36.6434C28.8162 36.6434 30.3934 35.0662 30.3934 33.1205C30.3934 31.1749 28.8162 29.5977 26.8705 29.5977C24.9249 29.5977 23.3477 31.1749 23.3477 33.1205C23.3477 35.0662 24.9249 36.6434 26.8705 36.6434Z" stroke="#4D2C19" stroke-width="0.936934" stroke-miterlimit="10"/>
<path d="M34.3042 37.6325V31.2483C34.2607 29.979 34.0276 28.7234 33.6128 27.523C32.2092 23.601 29.2804 22.8383 28.8344 22.7334H22.2271L18.7773 28.5555V39.2815" stroke="#4D2C19" stroke-width="0.936934" stroke-miterlimit="10" stroke-linecap="round"/>
<path d="M17.1548 28.5556L13.5663 22.7335H6.74731C6.38378 22.7709 3.22256 23.1757 1.7216 26.9909C1.27347 28.1831 1.0308 29.4428 1.00391 30.7162V37.6326" stroke="#4D2C19" stroke-width="0.936934" stroke-miterlimit="10" stroke-linecap="round"/>
<path d="M53.7341 26.6406H51.0183V19.2051C51.0183 19 51.0212 18.748 51.0271 18.4492C51.033 18.1445 51.0417 17.834 51.0535 17.5176C51.0652 17.1953 51.0769 16.9053 51.0886 16.6475C51.0242 16.7236 50.8923 16.8555 50.6931 17.043C50.4998 17.2246 50.3181 17.3887 50.1482 17.5352L48.6716 18.7217L47.3621 17.0869L51.5017 13.791H53.7341V26.6406ZM66.3025 26.6406H57.3201V24.751L60.5457 21.4902C61.196 20.8223 61.7175 20.2656 62.1101 19.8203C62.5085 19.3691 62.7957 18.959 62.9714 18.5898C63.1531 18.2207 63.2439 17.8252 63.2439 17.4033C63.2439 16.8936 63.1003 16.5127 62.8132 16.2607C62.532 16.0029 62.1541 15.874 61.6794 15.874C61.1814 15.874 60.698 15.9883 60.2292 16.2168C59.7605 16.4453 59.2712 16.7705 58.7615 17.1924L57.2849 15.4434C57.6541 15.127 58.0437 14.8281 58.4539 14.5469C58.8699 14.2656 59.3503 14.04 59.8953 13.8701C60.446 13.6943 61.1052 13.6064 61.8728 13.6064C62.7166 13.6064 63.4402 13.7588 64.0437 14.0635C64.6531 14.3682 65.1218 14.7842 65.45 15.3115C65.7781 15.833 65.9421 16.4248 65.9421 17.0869C65.9421 17.7959 65.8015 18.4434 65.5203 19.0293C65.239 19.6152 64.8289 20.1953 64.2898 20.7695C63.7566 21.3438 63.1121 21.9795 62.3562 22.6768L60.7039 24.2324V24.3555H66.3025V26.6406ZM76.533 20.2158C76.533 21.2529 76.4509 22.1787 76.2869 22.9932C76.1287 23.8076 75.8708 24.499 75.5134 25.0674C75.1619 25.6357 74.699 26.0693 74.1248 26.3682C73.5505 26.667 72.8533 26.8164 72.033 26.8164C71.0017 26.8164 70.155 26.5557 69.4929 26.0342C68.8308 25.5068 68.3416 24.751 68.0251 23.7666C67.7087 22.7764 67.5505 21.5928 67.5505 20.2158C67.5505 18.8271 67.6941 17.6406 67.9812 16.6562C68.2742 15.666 68.7488 14.9072 69.405 14.3799C70.0613 13.8525 70.9373 13.5889 72.033 13.5889C73.0583 13.5889 73.9021 13.8525 74.5642 14.3799C75.2322 14.9014 75.7273 15.6572 76.0496 16.6475C76.3718 17.6318 76.533 18.8213 76.533 20.2158ZM70.2488 20.2158C70.2488 21.1943 70.3015 22.0117 70.407 22.668C70.5183 23.3184 70.7029 23.8076 70.9607 24.1357C71.2185 24.4639 71.5759 24.6279 72.033 24.6279C72.4841 24.6279 72.8386 24.4668 73.0964 24.1445C73.3601 23.8164 73.5476 23.3271 73.6589 22.6768C73.7703 22.0205 73.8259 21.2002 73.8259 20.2158C73.8259 19.2373 73.7703 18.4199 73.6589 17.7637C73.5476 17.1074 73.3601 16.6152 73.0964 16.2871C72.8386 15.9531 72.4841 15.7861 72.033 15.7861C71.5759 15.7861 71.2185 15.9531 70.9607 16.2871C70.7029 16.6152 70.5183 17.1074 70.407 17.7637C70.3015 18.4199 70.2488 19.2373 70.2488 20.2158ZM86.8337 20.2158C86.8337 21.2529 86.7517 22.1787 86.5876 22.9932C86.4294 23.8076 86.1716 24.499 85.8142 25.0674C85.4626 25.6357 84.9998 26.0693 84.4255 26.3682C83.8513 26.667 83.1541 26.8164 82.3337 26.8164C81.3025 26.8164 80.4558 26.5557 79.7937 26.0342C79.1316 25.5068 78.6423 24.751 78.3259 23.7666C78.0095 22.7764 77.8513 21.5928 77.8513 20.2158C77.8513 18.8271 77.9949 17.6406 78.282 16.6562C78.575 15.666 79.0496 14.9072 79.7058 14.3799C80.3621 13.8525 81.238 13.5889 82.3337 13.5889C83.3591 13.5889 84.2029 13.8525 84.865 14.3799C85.533 14.9014 86.0281 15.6572 86.3503 16.6475C86.6726 17.6318 86.8337 18.8213 86.8337 20.2158ZM80.5496 20.2158C80.5496 21.1943 80.6023 22.0117 80.7078 22.668C80.8191 23.3184 81.0037 23.8076 81.2615 24.1357C81.5193 24.4639 81.8767 24.6279 82.3337 24.6279C82.7849 24.6279 83.1394 24.4668 83.3972 24.1445C83.6609 23.8164 83.8484 23.3271 83.9597 22.6768C84.071 22.0205 84.1267 21.2002 84.1267 20.2158C84.1267 19.2373 84.071 18.4199 83.9597 17.7637C83.8484 17.1074 83.6609 16.6152 83.3972 16.2871C83.1394 15.9531 82.7849 15.7861 82.3337 15.7861C81.8767 15.7861 81.5193 15.9531 81.2615 16.2871C81.0037 16.6152 80.8191 17.1074 80.7078 17.7637C80.6023 18.4199 80.5496 19.2373 80.5496 20.2158ZM93.6013 19.3369H97.0027V21.2617H93.6013V24.6455H91.6765V21.2617H88.2751V19.3369H91.6765V15.9092H93.6013V19.3369Z" fill="#C96A34"/>
<path d="M114.757 20.0928C114.757 21.54 114.478 22.75 113.922 23.7227C113.371 24.6895 112.571 25.4189 111.522 25.9111C110.473 26.3975 109.211 26.6406 107.734 26.6406H104.095V13.791H108.13C109.477 13.791 110.646 14.0312 111.636 14.5117C112.627 14.9863 113.394 15.6924 113.939 16.6299C114.484 17.5615 114.757 18.7158 114.757 20.0928ZM111.927 20.1631C111.927 19.2139 111.786 18.4346 111.505 17.8252C111.229 17.21 110.819 16.7559 110.274 16.4629C109.735 16.1699 109.067 16.0234 108.27 16.0234H106.82V24.3906H107.989C109.319 24.3906 110.306 24.0361 110.951 23.3271C111.601 22.6182 111.927 21.5635 111.927 20.1631ZM121.26 16.6299C122.169 16.6299 122.951 16.8057 123.607 17.1572C124.263 17.5029 124.77 18.0068 125.128 18.6689C125.485 19.3311 125.664 20.1396 125.664 21.0947V22.3955H119.327C119.356 23.1514 119.582 23.7461 120.004 24.1797C120.431 24.6074 121.023 24.8213 121.779 24.8213C122.406 24.8213 122.98 24.7568 123.502 24.6279C124.023 24.499 124.559 24.3057 125.11 24.0479V26.1221C124.624 26.3623 124.114 26.5381 123.581 26.6494C123.053 26.7607 122.412 26.8164 121.656 26.8164C120.672 26.8164 119.799 26.6348 119.037 26.2715C118.281 25.9082 117.686 25.3545 117.253 24.6104C116.825 23.8662 116.611 22.9287 116.611 21.7979C116.611 20.6494 116.804 19.6943 117.191 18.9326C117.584 18.165 118.129 17.5908 118.826 17.21C119.523 16.8232 120.335 16.6299 121.26 16.6299ZM121.278 18.5371C120.757 18.5371 120.323 18.7041 119.977 19.0381C119.637 19.3721 119.441 19.8965 119.388 20.6113H123.15C123.144 20.2129 123.071 19.8584 122.93 19.5479C122.796 19.2373 122.591 18.9912 122.315 18.8096C122.046 18.6279 121.7 18.5371 121.278 18.5371ZM133.425 16.6299C134.473 16.6299 135.317 16.917 135.956 17.4912C136.594 18.0596 136.914 18.9736 136.914 20.2334V26.6406H134.233V20.9014C134.233 20.1982 134.104 19.668 133.846 19.3105C133.594 18.9531 133.196 18.7744 132.651 18.7744C131.831 18.7744 131.271 19.0527 130.972 19.6094C130.674 20.166 130.524 20.9688 130.524 22.0176V26.6406H127.844V16.8145H129.891L130.252 18.0713H130.401C130.612 17.7314 130.873 17.4561 131.183 17.2451C131.5 17.0342 131.848 16.8789 132.229 16.7793C132.616 16.6797 133.014 16.6299 133.425 16.6299ZM143.813 24.6807C144.106 24.6807 144.39 24.6514 144.666 24.5928C144.947 24.5342 145.225 24.4609 145.501 24.373V26.3682C145.214 26.4971 144.856 26.6025 144.428 26.6846C144.007 26.7725 143.544 26.8164 143.04 26.8164C142.454 26.8164 141.927 26.7227 141.458 26.5352C140.995 26.3418 140.629 26.0107 140.359 25.542C140.095 25.0674 139.964 24.4082 139.964 23.5645V18.8271H138.68V17.6934L140.157 16.7969L140.93 14.7227H142.644V16.8145H145.395V18.8271H142.644V23.5645C142.644 23.9395 142.75 24.2207 142.961 24.4082C143.177 24.5898 143.462 24.6807 143.813 24.6807ZM150.177 16.8145V26.6406H147.496V16.8145H150.177ZM148.841 12.9648C149.239 12.9648 149.582 13.0586 149.869 13.2461C150.156 13.4277 150.3 13.7705 150.3 14.2744C150.3 14.7725 150.156 15.1182 149.869 15.3115C149.582 15.499 149.239 15.5928 148.841 15.5928C148.436 15.5928 148.091 15.499 147.803 15.3115C147.522 15.1182 147.382 14.7725 147.382 14.2744C147.382 13.7705 147.522 13.4277 147.803 13.2461C148.091 13.0586 148.436 12.9648 148.841 12.9648ZM159.853 23.7227C159.853 24.3906 159.695 24.9561 159.379 25.4189C159.068 25.876 158.602 26.2246 157.981 26.4648C157.36 26.6992 156.587 26.8164 155.661 26.8164C154.975 26.8164 154.386 26.7725 153.894 26.6846C153.408 26.5967 152.916 26.4502 152.418 26.2451V24.0303C152.951 24.2705 153.522 24.4697 154.132 24.6279C154.747 24.7803 155.286 24.8564 155.749 24.8564C156.27 24.8564 156.642 24.7803 156.865 24.6279C157.094 24.4697 157.208 24.2646 157.208 24.0127C157.208 23.8486 157.161 23.7021 157.067 23.5732C156.979 23.4385 156.786 23.2891 156.487 23.125C156.188 22.9551 155.719 22.7354 155.081 22.4658C154.466 22.208 153.959 21.9473 153.56 21.6836C153.168 21.4199 152.875 21.1094 152.681 20.752C152.494 20.3887 152.4 19.9287 152.4 19.3721C152.4 18.4639 152.752 17.7812 153.455 17.3242C154.164 16.8613 155.11 16.6299 156.294 16.6299C156.903 16.6299 157.483 16.6914 158.034 16.8145C158.591 16.9375 159.162 17.1338 159.748 17.4033L158.939 19.3369C158.453 19.126 157.993 18.9531 157.559 18.8184C157.132 18.6836 156.695 18.6162 156.25 18.6162C155.857 18.6162 155.561 18.6689 155.362 18.7744C155.163 18.8799 155.063 19.041 155.063 19.2578C155.063 19.416 155.113 19.5566 155.213 19.6797C155.318 19.8027 155.517 19.9404 155.81 20.0928C156.109 20.2393 156.546 20.4297 157.12 20.6641C157.677 20.8926 158.16 21.1328 158.57 21.3848C158.98 21.6309 159.297 21.9385 159.519 22.3076C159.742 22.6709 159.853 23.1426 159.853 23.7227ZM166.085 24.6807C166.378 24.6807 166.662 24.6514 166.937 24.5928C167.219 24.5342 167.497 24.4609 167.772 24.373V26.3682C167.485 26.4971 167.128 26.6025 166.7 26.6846C166.278 26.7725 165.815 26.8164 165.311 26.8164C164.725 26.8164 164.198 26.7227 163.729 26.5352C163.266 26.3418 162.9 26.0107 162.631 25.542C162.367 25.0674 162.235 24.4082 162.235 23.5645V18.8271H160.952V17.6934L162.428 16.7969L163.202 14.7227H164.916V16.8145H167.667V18.8271H164.916V23.5645C164.916 23.9395 165.021 24.2207 165.232 24.4082C165.449 24.5898 165.733 24.6807 166.085 24.6807ZM176.623 23.7227C176.623 24.3906 176.465 24.9561 176.148 25.4189C175.838 25.876 175.372 26.2246 174.751 26.4648C174.13 26.6992 173.356 26.8164 172.43 26.8164C171.745 26.8164 171.156 26.7725 170.664 26.6846C170.177 26.5967 169.685 26.4502 169.187 26.2451V24.0303C169.72 24.2705 170.292 24.4697 170.901 24.6279C171.516 24.7803 172.055 24.8564 172.518 24.8564C173.04 24.8564 173.412 24.7803 173.635 24.6279C173.863 24.4697 173.977 24.2646 173.977 24.0127C173.977 23.8486 173.93 23.7021 173.837 23.5732C173.749 23.4385 173.555 23.2891 173.257 23.125C172.958 22.9551 172.489 22.7354 171.85 22.4658C171.235 22.208 170.728 21.9473 170.33 21.6836C169.937 21.4199 169.644 21.1094 169.451 20.752C169.263 20.3887 169.17 19.9287 169.17 19.3721C169.17 18.4639 169.521 17.7812 170.224 17.3242C170.933 16.8613 171.88 16.6299 173.063 16.6299C173.673 16.6299 174.253 16.6914 174.803 16.8145C175.36 16.9375 175.931 17.1338 176.517 17.4033L175.709 19.3369C175.222 19.126 174.762 18.9531 174.329 18.8184C173.901 18.6836 173.465 18.6162 173.019 18.6162C172.627 18.6162 172.331 18.6689 172.132 18.7744C171.932 18.8799 171.833 19.041 171.833 19.2578C171.833 19.416 171.883 19.5566 171.982 19.6797C172.088 19.8027 172.287 19.9404 172.58 20.0928C172.879 20.2393 173.315 20.4297 173.889 20.6641C174.446 20.8926 174.929 21.1328 175.34 21.3848C175.75 21.6309 176.066 21.9385 176.289 22.3076C176.511 22.6709 176.623 23.1426 176.623 23.7227Z" fill="black"/>
</svg>
