<svg width="243" height="41" viewBox="0 0 243 41" fill="none" xmlns="http://www.w3.org/2000/svg">
<path d="M22.2323 26.7227C22.2328 28.9668 21.5448 31.157 20.2612 32.9977C18.9776 34.8383 17.1601 36.2409 15.0541 37.0159C12.9481 37.791 10.6551 37.9013 8.48443 37.3319C6.3138 36.7625 4.37013 35.5408 2.91578 33.8318C1.4605 31.4853 0.94401 28.6762 1.46948 25.9655C1.99494 23.2549 3.52368 20.8422 5.75034 19.2095C7.977 17.5767 10.7377 16.8441 13.4809 17.1579C16.2242 17.4717 18.748 18.8088 20.5484 20.9022C21.6489 22.6441 22.2327 24.6624 22.2323 26.7227Z" fill="white"/>
<path d="M5.86743 28.7025C6.66114 31.7466 9.46867 33.7791 12.4287 33.5737C13.7352 33.4642 14.9764 32.9554 15.9837 32.1163C16.991 31.2771 17.7157 30.1483 18.0593 28.883" stroke="#4D2C19" stroke-width="1.55628" stroke-miterlimit="10" stroke-linecap="round"/>
<path d="M41.7494 26.3523C41.7499 28.5963 41.0619 30.7866 39.7782 32.6272C38.4946 34.4679 36.6771 35.8704 34.5711 36.6455C32.4652 37.4205 30.1721 37.5308 28.0015 36.9614C25.8309 36.392 23.8872 35.1704 22.4328 33.4614C20.9587 31.1139 20.4283 28.2952 20.9485 25.5724C21.4686 22.8497 23.0006 20.425 25.2362 18.7861C27.4718 17.1473 30.2451 16.4159 32.9982 16.7392C35.7513 17.0625 38.2797 18.4165 40.0748 20.5287C41.1725 22.2725 41.7532 24.2918 41.7494 26.3523Z" fill="white"/>
<path d="M25.3855 28.3226C26.1761 31.3698 28.9867 33.4022 31.9437 33.1968C33.2457 33.0859 34.4826 32.5791 35.4881 31.7445C36.4935 30.9098 37.2194 29.7873 37.5681 28.528" stroke="#4D2C19" stroke-width="1.55628" stroke-miterlimit="10" stroke-linecap="round"/>
<path d="M33.0774 12.1062C33.0772 14.3495 32.3889 16.5388 31.1054 18.3787C29.8219 20.2186 28.005 21.6206 25.8997 22.3955C23.7944 23.1704 21.5022 23.281 19.3321 22.7123C17.162 22.1436 15.2186 20.9231 13.7639 19.2153C12.3021 16.8677 11.7813 14.0545 12.3057 11.3392C12.8302 8.62394 14.3613 6.20709 16.5922 4.57285C18.8232 2.9386 21.5893 2.20765 24.3363 2.52644C27.0834 2.84523 29.6086 4.1902 31.406 6.29193C32.5009 8.03334 33.0804 10.0492 33.0774 12.1062Z" fill="white"/>
<path d="M32.4017 11.966C32.4008 14.5398 31.4944 17.0313 29.8411 19.004C28.1879 20.9766 25.8932 22.3046 23.3592 22.7554C20.8252 23.2062 18.2133 22.7509 15.9812 21.4695C13.749 20.188 12.039 18.162 11.1506 15.7463C10.2622 13.3307 10.252 10.6795 11.122 8.25715C11.9919 5.8348 13.6865 3.79581 15.9087 2.49733C18.131 1.19885 20.7393 0.7237 23.2767 1.15512C25.8142 1.58653 28.1189 2.89701 29.7871 4.85697C31.4757 6.84073 32.4026 9.36096 32.4017 11.966Z" stroke="#4D2C19" stroke-width="1.55628" stroke-miterlimit="10"/>
<path d="M15.3442 12.3395C16.1379 15.3867 18.9486 17.4192 21.9055 17.2138C23.211 17.1005 24.4503 16.5894 25.4561 15.7495C26.4619 14.9096 27.1857 13.7813 27.5299 12.5169" stroke="#4D2C19" stroke-width="1.55628" stroke-miterlimit="10" stroke-linecap="round"/>
<path d="M22.9249 28.3194C22.9248 30.8933 22.0189 33.3851 20.3661 35.3583C18.7132 37.3314 16.4188 38.6601 13.8847 39.1114C11.3506 39.5628 8.73851 39.108 6.50604 37.8269C4.27357 36.5457 2.5631 34.5199 1.6743 32.1042C0.785493 29.6886 0.775043 27.0373 1.64478 24.6147C2.51451 22.1921 4.20897 20.1529 6.43127 18.8542C8.65357 17.5555 11.262 17.0801 13.7996 17.5115C16.3371 17.9428 18.642 19.2533 20.3103 21.2134C21.9979 23.1965 22.9247 25.7154 22.9249 28.3194Z" stroke="#4D2C19" stroke-width="1.55628" stroke-miterlimit="10"/>
<path d="M42.129 27.9486C42.1281 30.5225 41.2217 33.0139 39.5684 34.9866C37.9152 36.9592 35.6205 38.2872 33.0865 38.738C30.5524 39.1888 27.9406 38.7335 25.7085 37.4521C23.4763 36.1706 21.7663 34.1446 20.8779 31.7289C19.9894 29.3133 19.9793 26.6621 20.8493 24.2398C21.7192 21.8174 23.4138 19.7784 25.636 18.4799C27.8583 17.1815 30.4666 16.7063 33.004 17.1377C35.5415 17.5691 37.8462 18.8796 39.5144 20.8396C41.2027 22.8235 42.1296 25.3436 42.129 27.9486Z" stroke="#4D2C19" stroke-width="1.55628" stroke-miterlimit="10"/>
<path d="M63.8323 26.6406H54.8499V24.751L58.0754 21.4902C58.7258 20.8223 59.2473 20.2656 59.6399 19.8203C60.0383 19.3691 60.3254 18.959 60.5012 18.5898C60.6829 18.2207 60.7737 17.8252 60.7737 17.4033C60.7737 16.8936 60.6301 16.5127 60.343 16.2607C60.0618 16.0029 59.6838 15.874 59.2092 15.874C58.7112 15.874 58.2278 15.9883 57.759 16.2168C57.2903 16.4453 56.801 16.7705 56.2913 17.1924L54.8147 15.4434C55.1838 15.127 55.5735 14.8281 55.9836 14.5469C56.3997 14.2656 56.8801 14.04 57.425 13.8701C57.9758 13.6943 58.635 13.6064 59.4026 13.6064C60.2463 13.6064 60.97 13.7588 61.5735 14.0635C62.1829 14.3682 62.6516 14.7842 62.9797 15.3115C63.3079 15.833 63.4719 16.4248 63.4719 17.0869C63.4719 17.7959 63.3313 18.4434 63.05 19.0293C62.7688 19.6152 62.3586 20.1953 61.8196 20.7695C61.2864 21.3438 60.6418 21.9795 59.886 22.6768L58.2336 24.2324V24.3555H63.8323V26.6406ZM74.0627 20.2158C74.0627 21.2529 73.9807 22.1787 73.8167 22.9932C73.6584 23.8076 73.4006 24.499 73.0432 25.0674C72.6917 25.6357 72.2288 26.0693 71.6545 26.3682C71.0803 26.667 70.3831 26.8164 69.5627 26.8164C68.5315 26.8164 67.6848 26.5557 67.0227 26.0342C66.3606 25.5068 65.8713 24.751 65.5549 23.7666C65.2385 22.7764 65.0803 21.5928 65.0803 20.2158C65.0803 18.8271 65.2239 17.6406 65.511 16.6562C65.804 15.666 66.2786 14.9072 66.9348 14.3799C67.5911 13.8525 68.467 13.5889 69.5627 13.5889C70.5881 13.5889 71.4319 13.8525 72.094 14.3799C72.762 14.9014 73.2571 15.6572 73.5793 16.6475C73.9016 17.6318 74.0627 18.8213 74.0627 20.2158ZM67.7786 20.2158C67.7786 21.1943 67.8313 22.0117 67.9368 22.668C68.0481 23.3184 68.2327 23.8076 68.4905 24.1357C68.7483 24.4639 69.1057 24.6279 69.5627 24.6279C70.0139 24.6279 70.3684 24.4668 70.6262 24.1445C70.8899 23.8164 71.0774 23.3271 71.1887 22.6768C71.3 22.0205 71.3557 21.2002 71.3557 20.2158C71.3557 19.2373 71.3 18.4199 71.1887 17.7637C71.0774 17.1074 70.8899 16.6152 70.6262 16.2871C70.3684 15.9531 70.0139 15.7861 69.5627 15.7861C69.1057 15.7861 68.7483 15.9531 68.4905 16.2871C68.2327 16.6152 68.0481 17.1074 67.9368 17.7637C67.8313 18.4199 67.7786 19.2373 67.7786 20.2158ZM81.0237 26.6406V13.791H83.7483V24.3906H88.9602V26.6406H81.0237ZM95.6838 19.3369H99.0852V21.2617H95.6838V24.6455H93.759V21.2617H90.3577V19.3369H93.759V15.9092H95.6838V19.3369Z" fill="#C96A34"/>
<path d="M116.707 26.6406H113.991V21.0947H108.903V26.6406H106.178V13.791H108.903V18.8271H113.991V13.791H116.707V26.6406ZM123.774 16.6123C125.092 16.6123 126.103 16.8994 126.806 17.4736C127.509 18.0479 127.861 18.9209 127.861 20.0928V26.6406H125.989L125.47 25.3047H125.4C125.118 25.6562 124.831 25.9434 124.538 26.166C124.245 26.3887 123.908 26.5527 123.528 26.6582C123.147 26.7637 122.684 26.8164 122.139 26.8164C121.559 26.8164 121.037 26.7051 120.574 26.4824C120.117 26.2598 119.757 25.9199 119.493 25.4629C119.23 25 119.098 24.4141 119.098 23.7051C119.098 22.6621 119.464 21.8945 120.197 21.4023C120.929 20.9043 122.028 20.6289 123.492 20.5762L125.198 20.5234V20.0928C125.198 19.5771 125.063 19.1992 124.793 18.959C124.524 18.7188 124.149 18.5986 123.668 18.5986C123.194 18.5986 122.728 18.666 122.271 18.8008C121.814 18.9355 121.357 19.1055 120.9 19.3105L120.012 17.5C120.533 17.2246 121.116 17.0078 121.761 16.8496C122.411 16.6914 123.082 16.6123 123.774 16.6123ZM125.198 22.0879L124.16 22.123C123.293 22.1465 122.69 22.3018 122.35 22.5889C122.016 22.876 121.849 23.2539 121.849 23.7227C121.849 24.1328 121.969 24.4258 122.209 24.6016C122.449 24.7715 122.763 24.8564 123.15 24.8564C123.724 24.8564 124.207 24.6865 124.6 24.3467C124.998 24.0068 125.198 23.5234 125.198 22.8965V22.0879ZM136.096 16.6299C137.203 16.6299 138.097 17.0605 138.777 17.9219C139.462 18.7832 139.805 20.0459 139.805 21.71C139.805 22.8232 139.644 23.7607 139.322 24.5225C138.999 25.2783 138.554 25.8496 137.986 26.2363C137.417 26.623 136.764 26.8164 136.026 26.8164C135.551 26.8164 135.144 26.7578 134.804 26.6406C134.464 26.5176 134.174 26.3623 133.934 26.1748C133.694 25.9814 133.486 25.7764 133.31 25.5596H133.169C133.216 25.7939 133.251 26.0342 133.275 26.2803C133.298 26.5264 133.31 26.7666 133.31 27.001V30.9648H130.629V16.8145H132.809L133.187 18.0889H133.31C133.486 17.8252 133.699 17.582 133.951 17.3594C134.203 17.1367 134.505 16.9609 134.857 16.832C135.214 16.6973 135.627 16.6299 136.096 16.6299ZM135.235 18.7744C134.766 18.7744 134.394 18.8711 134.118 19.0645C133.843 19.2578 133.641 19.5479 133.512 19.9346C133.389 20.3213 133.322 20.8105 133.31 21.4023V21.6924C133.31 22.3252 133.368 22.8613 133.486 23.3008C133.609 23.7402 133.811 24.0742 134.092 24.3027C134.379 24.5312 134.772 24.6455 135.27 24.6455C135.68 24.6455 136.017 24.5312 136.281 24.3027C136.544 24.0742 136.74 23.7402 136.869 23.3008C137.004 22.8555 137.072 22.3135 137.072 21.6748C137.072 20.7139 136.922 19.9902 136.623 19.5039C136.324 19.0176 135.862 18.7744 135.235 18.7744ZM147.487 16.6299C148.594 16.6299 149.488 17.0605 150.167 17.9219C150.853 18.7832 151.196 20.0459 151.196 21.71C151.196 22.8232 151.034 23.7607 150.712 24.5225C150.39 25.2783 149.945 25.8496 149.376 26.2363C148.808 26.623 148.155 26.8164 147.416 26.8164C146.942 26.8164 146.534 26.7578 146.195 26.6406C145.855 26.5176 145.565 26.3623 145.324 26.1748C145.084 25.9814 144.876 25.7764 144.7 25.5596H144.56C144.607 25.7939 144.642 26.0342 144.665 26.2803C144.689 26.5264 144.7 26.7666 144.7 27.001V30.9648H142.02V16.8145H144.199L144.577 18.0889H144.7C144.876 17.8252 145.09 17.582 145.342 17.3594C145.594 17.1367 145.896 16.9609 146.247 16.832C146.605 16.6973 147.018 16.6299 147.487 16.6299ZM146.625 18.7744C146.156 18.7744 145.784 18.8711 145.509 19.0645C145.234 19.2578 145.031 19.5479 144.903 19.9346C144.78 20.3213 144.712 20.8105 144.7 21.4023V21.6924C144.7 22.3252 144.759 22.8613 144.876 23.3008C144.999 23.7402 145.201 24.0742 145.483 24.3027C145.77 24.5312 146.162 24.6455 146.66 24.6455C147.071 24.6455 147.407 24.5312 147.671 24.3027C147.935 24.0742 148.131 23.7402 148.26 23.3008C148.395 22.8555 148.462 22.3135 148.462 21.6748C148.462 20.7139 148.313 19.9902 148.014 19.5039C147.715 19.0176 147.252 18.7744 146.625 18.7744ZM152.004 16.8145H154.94L156.794 22.3428C156.853 22.5186 156.903 22.6973 156.944 22.8789C156.985 23.0605 157.02 23.248 157.049 23.4414C157.078 23.6348 157.102 23.8369 157.119 24.0479H157.172C157.207 23.7314 157.254 23.4355 157.313 23.1602C157.377 22.8848 157.456 22.6123 157.55 22.3428L159.369 16.8145H162.243L158.086 27.8975C157.834 28.5771 157.506 29.1426 157.102 29.5938C156.698 30.0508 156.232 30.3936 155.704 30.6221C155.183 30.8506 154.609 30.9648 153.982 30.9648C153.677 30.9648 153.413 30.9473 153.191 30.9121C152.968 30.8828 152.778 30.8506 152.619 30.8154V28.6885C152.742 28.7178 152.898 28.7441 153.085 28.7676C153.273 28.791 153.469 28.8027 153.674 28.8027C154.049 28.8027 154.371 28.7236 154.641 28.5654C154.91 28.4072 155.136 28.1934 155.318 27.9238C155.499 27.6602 155.643 27.3701 155.748 27.0537L155.906 26.5703L152.004 16.8145ZM172.65 13.791C174.308 13.791 175.518 14.1484 176.28 14.8633C177.041 15.5723 177.422 16.5508 177.422 17.7988C177.422 18.3613 177.337 18.9004 177.167 19.416C176.997 19.9258 176.719 20.3799 176.332 20.7783C175.951 21.1768 175.442 21.4932 174.803 21.7275C174.164 21.9561 173.376 22.0703 172.439 22.0703H171.27V26.6406H168.545V13.791H172.65ZM172.509 16.0234H171.27V19.8379H172.166C172.676 19.8379 173.118 19.7705 173.493 19.6357C173.868 19.501 174.158 19.29 174.364 19.0029C174.569 18.7158 174.671 18.3467 174.671 17.8955C174.671 17.2627 174.495 16.7939 174.144 16.4893C173.792 16.1787 173.247 16.0234 172.509 16.0234ZM183.662 16.6123C184.981 16.6123 185.991 16.8994 186.695 17.4736C187.398 18.0479 187.749 18.9209 187.749 20.0928V26.6406H185.877L185.359 25.3047H185.288C185.007 25.6562 184.72 25.9434 184.427 26.166C184.134 26.3887 183.797 26.5527 183.416 26.6582C183.035 26.7637 182.573 26.8164 182.028 26.8164C181.448 26.8164 180.926 26.7051 180.463 26.4824C180.006 26.2598 179.646 25.9199 179.382 25.4629C179.118 25 178.987 24.4141 178.987 23.7051C178.987 22.6621 179.353 21.8945 180.085 21.4023C180.818 20.9043 181.916 20.6289 183.381 20.5762L185.086 20.5234V20.0928C185.086 19.5771 184.951 19.1992 184.682 18.959C184.412 18.7188 184.037 18.5986 183.557 18.5986C183.082 18.5986 182.616 18.666 182.159 18.8008C181.702 18.9355 181.245 19.1055 180.788 19.3105L179.901 17.5C180.422 17.2246 181.005 17.0078 181.65 16.8496C182.3 16.6914 182.971 16.6123 183.662 16.6123ZM185.086 22.0879L184.049 22.123C183.182 22.1465 182.578 22.3018 182.239 22.5889C181.905 22.876 181.738 23.2539 181.738 23.7227C181.738 24.1328 181.858 24.4258 182.098 24.6016C182.338 24.7715 182.652 24.8564 183.038 24.8564C183.613 24.8564 184.096 24.6865 184.489 24.3467C184.887 24.0068 185.086 23.5234 185.086 22.8965V22.0879ZM194.657 24.6807C194.95 24.6807 195.235 24.6514 195.51 24.5928C195.791 24.5342 196.07 24.4609 196.345 24.373V26.3682C196.058 26.4971 195.7 26.6025 195.273 26.6846C194.851 26.7725 194.388 26.8164 193.884 26.8164C193.298 26.8164 192.771 26.7227 192.302 26.5352C191.839 26.3418 191.473 26.0107 191.203 25.542C190.94 25.0674 190.808 24.4082 190.808 23.5645V18.8271H189.525V17.6934L191.001 16.7969L191.775 14.7227H193.489V16.8145H196.24V18.8271H193.489V23.5645C193.489 23.9395 193.594 24.2207 193.805 24.4082C194.022 24.5898 194.306 24.6807 194.657 24.6807ZM201.021 16.8145V26.6406H198.34V16.8145H201.021ZM199.685 12.9648C200.083 12.9648 200.426 13.0586 200.713 13.2461C201 13.4277 201.144 13.7705 201.144 14.2744C201.144 14.7725 201 15.1182 200.713 15.3115C200.426 15.499 200.083 15.5928 199.685 15.5928C199.281 15.5928 198.935 15.499 198.648 15.3115C198.366 15.1182 198.226 14.7725 198.226 14.2744C198.226 13.7705 198.366 13.4277 198.648 13.2461C198.935 13.0586 199.281 12.9648 199.685 12.9648ZM207.894 16.6299C208.802 16.6299 209.584 16.8057 210.24 17.1572C210.897 17.5029 211.404 18.0068 211.761 18.6689C212.118 19.3311 212.297 20.1396 212.297 21.0947V22.3955H205.96C205.99 23.1514 206.215 23.7461 206.637 24.1797C207.065 24.6074 207.656 24.8213 208.412 24.8213C209.039 24.8213 209.614 24.7568 210.135 24.6279C210.656 24.499 211.193 24.3057 211.743 24.0479V26.1221C211.257 26.3623 210.747 26.5381 210.214 26.6494C209.687 26.7607 209.045 26.8164 208.289 26.8164C207.305 26.8164 206.432 26.6348 205.67 26.2715C204.914 25.9082 204.32 25.3545 203.886 24.6104C203.458 23.8662 203.244 22.9287 203.244 21.7979C203.244 20.6494 203.438 19.6943 203.824 18.9326C204.217 18.165 204.762 17.5908 205.459 17.21C206.156 16.8232 206.968 16.6299 207.894 16.6299ZM207.911 18.5371C207.39 18.5371 206.956 18.7041 206.611 19.0381C206.271 19.3721 206.074 19.8965 206.022 20.6113H209.783C209.778 20.2129 209.704 19.8584 209.564 19.5479C209.429 19.2373 209.224 18.9912 208.948 18.8096C208.679 18.6279 208.333 18.5371 207.911 18.5371ZM220.058 16.6299C221.107 16.6299 221.95 16.917 222.589 17.4912C223.228 18.0596 223.547 18.9736 223.547 20.2334V26.6406H220.866V20.9014C220.866 20.1982 220.738 19.668 220.48 19.3105C220.228 18.9531 219.829 18.7744 219.284 18.7744C218.464 18.7744 217.905 19.0527 217.606 19.6094C217.307 20.166 217.157 20.9688 217.157 22.0176V26.6406H214.477V16.8145H216.525L216.885 18.0713H217.034C217.245 17.7314 217.506 17.4561 217.817 17.2451C218.133 17.0342 218.482 16.8789 218.863 16.7793C219.249 16.6797 219.648 16.6299 220.058 16.6299ZM230.447 24.6807C230.74 24.6807 231.024 24.6514 231.299 24.5928C231.58 24.5342 231.859 24.4609 232.134 24.373V26.3682C231.847 26.4971 231.49 26.6025 231.062 26.6846C230.64 26.7725 230.177 26.8164 229.673 26.8164C229.087 26.8164 228.56 26.7227 228.091 26.5352C227.628 26.3418 227.262 26.0107 226.992 25.542C226.729 25.0674 226.597 24.4082 226.597 23.5645V18.8271H225.314V17.6934L226.79 16.7969L227.564 14.7227H229.278V16.8145H232.029V18.8271H229.278V23.5645C229.278 23.9395 229.383 24.2207 229.594 24.4082C229.811 24.5898 230.095 24.6807 230.447 24.6807ZM240.985 23.7227C240.985 24.3906 240.826 24.9561 240.51 25.4189C240.199 25.876 239.734 26.2246 239.113 26.4648C238.491 26.6992 237.718 26.8164 236.792 26.8164C236.107 26.8164 235.518 26.7725 235.026 26.6846C234.539 26.5967 234.047 26.4502 233.549 26.2451V24.0303C234.082 24.2705 234.654 24.4697 235.263 24.6279C235.878 24.7803 236.417 24.8564 236.88 24.8564C237.402 24.8564 237.774 24.7803 237.996 24.6279C238.225 24.4697 238.339 24.2646 238.339 24.0127C238.339 23.8486 238.292 23.7021 238.198 23.5732C238.111 23.4385 237.917 23.2891 237.618 23.125C237.32 22.9551 236.851 22.7354 236.212 22.4658C235.597 22.208 235.09 21.9473 234.692 21.6836C234.299 21.4199 234.006 21.1094 233.813 20.752C233.625 20.3887 233.531 19.9287 233.531 19.3721C233.531 18.4639 233.883 17.7812 234.586 17.3242C235.295 16.8613 236.241 16.6299 237.425 16.6299C238.034 16.6299 238.615 16.6914 239.165 16.8145C239.722 16.9375 240.293 17.1338 240.879 17.4033L240.071 19.3369C239.584 19.126 239.124 18.9531 238.691 18.8184C238.263 18.6836 237.826 18.6162 237.381 18.6162C236.989 18.6162 236.693 18.6689 236.493 18.7744C236.294 18.8799 236.195 19.041 236.195 19.2578C236.195 19.416 236.244 19.5566 236.344 19.6797C236.449 19.8027 236.649 19.9404 236.942 20.0928C237.24 20.2393 237.677 20.4297 238.251 20.6641C238.808 20.8926 239.291 21.1328 239.701 21.3848C240.112 21.6309 240.428 21.9385 240.651 22.3076C240.873 22.6709 240.985 23.1426 240.985 23.7227Z" fill="black"/>
</svg>
