<svg width="235" height="204" viewBox="0 0 235 204" fill="none" xmlns="http://www.w3.org/2000/svg">
<rect width="235" height="204" rx="15" fill="white"/>
<g opacity="0.5">
<path d="M86.0287 71.6511H80.8576C79.636 71.6511 78.6458 72.6414 78.6458 73.863V76.8222C78.6458 78.0438 79.636 79.0341 80.8576 79.0341H86.0287C87.2503 79.0341 88.2406 78.0438 88.2406 76.8222V73.863C88.2406 72.6414 87.2503 71.6511 86.0287 71.6511Z" fill="#FFE5B3"/>
<path d="M118.852 71.6511H113.681C112.459 71.6511 111.469 72.6414 111.469 73.863V76.8222C111.469 78.0438 112.459 79.0341 113.681 79.0341H118.852C120.074 79.0341 121.064 78.0438 121.064 76.8222V73.863C121.064 72.6414 120.074 71.6511 118.852 71.6511Z" fill="#FFE5B3"/>
<path d="M151.675 71.6511H146.504C145.283 71.6511 144.292 72.6414 144.292 73.863V76.8222C144.292 78.0438 145.283 79.0341 146.504 79.0341H151.675C152.897 79.0341 153.887 78.0438 153.887 76.8222V73.863C153.887 72.6414 152.897 71.6511 151.675 71.6511Z" fill="#FFE5B3"/>
<path d="M80.7024 51.4463C82.5506 51.4463 84.3808 51.8103 86.0883 52.5176C87.7959 53.2249 89.3474 54.2616 90.6543 55.5685C91.9612 56.8754 92.9979 58.4269 93.7052 60.1345C94.4125 61.842 94.7766 63.6722 94.7766 65.5204V85.9827C94.7766 88.1256 93.9253 90.1808 92.41 91.6961C90.8947 93.2113 88.8396 94.0626 86.6967 94.0626H73.38C72.12 94.0626 70.8723 93.8144 69.7082 93.3322C68.5441 92.8501 67.4864 92.1433 66.5954 91.2523C65.7045 90.3614 64.9977 89.3036 64.5155 88.1395C64.0333 86.9754 63.7852 85.7278 63.7852 84.4677V68.3635C63.7852 63.8768 65.5675 59.5738 68.7401 56.4012C71.9127 53.2286 76.2157 51.4463 80.7024 51.4463Z" fill="#FFE5B3"/>
<path d="M158.666 94.0677H145.329C143.186 94.0677 141.131 93.2164 139.615 91.7011C138.1 90.1859 137.249 88.1307 137.249 85.9878V65.5205C137.249 61.7878 138.732 58.208 141.371 55.5685C144.01 52.9291 147.59 51.4463 151.323 51.4463C155.81 51.4463 160.113 53.2287 163.285 56.4013C166.458 59.5739 168.24 63.8768 168.24 68.3636V84.493C168.24 87.0377 167.229 89.4782 165.43 91.2776C163.631 93.077 161.19 94.0879 158.645 94.0879L158.666 94.0677Z" fill="#FFE5B3"/>
<path d="M115.645 50.7544C120.347 50.7544 124.857 52.6224 128.182 55.9475C131.507 59.2725 133.375 63.7823 133.375 68.4847V86.8109C133.375 88.9176 132.538 90.9381 131.049 92.4278C129.559 93.9175 127.538 94.7544 125.432 94.7544H106.792C104.686 94.7544 102.665 93.9175 101.175 92.4278C99.6858 90.9381 98.8489 88.9176 98.8489 86.8109V67.5504C98.8489 63.0959 100.618 58.8237 103.768 55.6738C106.918 52.524 111.19 50.7544 115.645 50.7544Z" fill="#FFE5B3"/>
</g>
<path opacity="0.5" d="M152.717 72.7544H147.312C146.035 72.7544 145 73.7895 145 75.0664V78.1595C145 79.4364 146.035 80.4715 147.312 80.4715H152.717C153.994 80.4715 155.029 79.4364 155.029 78.1595V75.0664C155.029 73.7895 153.994 72.7544 152.717 72.7544Z" fill="#FFE5B3"/>
<path opacity="0.5" d="M117.717 72.7544H112.312C111.035 72.7544 110 73.7895 110 75.0664V78.1595C110 79.4364 111.035 80.4715 112.312 80.4715H117.717C118.994 80.4715 120.029 79.4364 120.029 78.1595V75.0664C120.029 73.7895 118.994 72.7544 117.717 72.7544Z" fill="#FFE5B3"/>
<path opacity="0.5" d="M83.7171 72.7544H78.312C77.0351 72.7544 76 73.7895 76 75.0664V78.1595C76 79.4364 77.0351 80.4715 78.312 80.4715H83.7171C84.994 80.4715 86.0291 79.4364 86.0291 78.1595V75.0664C86.0291 73.7895 84.994 72.7544 83.7171 72.7544Z" fill="#FFE5B3"/>
<path d="M80.6418 52.4775C82.5737 52.4775 84.4866 52.8581 86.2715 53.5974C88.0563 54.3366 89.678 55.4203 91.0441 56.7863C92.4101 58.1523 93.4937 59.7741 94.233 61.5589C94.9723 63.3437 95.3528 65.2567 95.3528 67.1886V88.5769C95.3528 90.8168 94.463 92.9649 92.8792 94.5487C91.2954 96.1326 89.1472 97.0224 86.9073 97.0224H72.988C71.671 97.0224 70.3669 96.763 69.1501 96.259C67.9333 95.755 66.8277 95.0162 65.8964 94.0849C64.9651 93.1537 64.2264 92.0481 63.7224 90.8313C63.2184 89.6145 62.959 88.3104 62.959 86.9933V70.1603C62.959 65.4706 64.822 60.9729 68.1382 57.6567C71.4543 54.3405 75.952 52.4775 80.6418 52.4775Z" stroke="#4D2C19" stroke-width="2.63923"/>
<path d="M161.769 97.0277H147.829C145.589 97.0277 143.441 96.1379 141.857 94.5541C140.273 92.9702 139.383 90.8221 139.383 88.5822V67.1886C139.383 63.287 140.933 59.5452 143.692 56.7864C146.451 54.0275 150.193 52.4776 154.095 52.4776C158.784 52.4776 163.282 54.3406 166.598 57.6568C169.914 60.9729 171.777 65.4706 171.777 70.1604V87.0198C171.777 89.6796 170.721 92.2306 168.84 94.1114C166.959 95.9922 164.408 97.0488 161.748 97.0488L161.769 97.0277Z" stroke="#4D2C19" stroke-width="2.63923"/>
<path d="M116.984 51.7544C121.899 51.7544 126.613 53.7069 130.088 57.1825C133.564 60.658 135.516 65.3719 135.516 70.287V89.4425C135.516 91.6446 134.641 93.7565 133.084 95.3136C131.527 96.8708 129.415 97.7455 127.213 97.7455H107.73C105.528 97.7455 103.416 96.8708 101.859 95.3136C100.302 93.7565 99.4275 91.6446 99.4275 89.4425V69.3105C99.4275 64.6543 101.277 60.1889 104.57 56.8965C107.862 53.6041 112.327 51.7544 116.984 51.7544Z" stroke="#4D2C19" stroke-width="2.63923"/>
<path d="M93.312 158.854C93.312 159.766 93.072 160.55 92.592 161.206C92.128 161.862 91.496 162.366 90.696 162.718C89.896 163.07 89.016 163.246 88.056 163.246H79.92V146.206H88.704C89.504 146.206 90.192 146.422 90.768 146.854C91.36 147.27 91.808 147.814 92.112 148.486C92.432 149.142 92.592 149.83 92.592 150.55C92.592 151.382 92.376 152.166 91.944 152.902C91.528 153.622 90.928 154.158 90.144 154.51C91.12 154.798 91.888 155.326 92.448 156.094C93.024 156.846 93.312 157.766 93.312 158.854ZM90.552 158.35C90.552 157.87 90.448 157.438 90.24 157.054C90.048 156.654 89.776 156.334 89.424 156.094C89.088 155.838 88.688 155.71 88.224 155.71H82.608V160.918H88.056C88.536 160.918 88.96 160.806 89.328 160.582C89.712 160.342 90.008 160.03 90.216 159.646C90.44 159.246 90.552 158.814 90.552 158.35ZM82.608 148.534V153.55H87.552C88 153.55 88.4 153.446 88.752 153.238C89.104 153.014 89.384 152.718 89.592 152.35C89.8 151.966 89.904 151.534 89.904 151.054C89.904 150.558 89.808 150.126 89.616 149.758C89.424 149.374 89.16 149.078 88.824 148.87C88.504 148.646 88.128 148.534 87.696 148.534H82.608ZM102.835 152.974C101.811 152.99 100.899 153.222 100.099 153.67C99.3153 154.118 98.7553 154.75 98.4193 155.566V163.246H95.7793V150.694H98.2273V153.502C98.6593 152.638 99.2273 151.95 99.9313 151.438C100.635 150.91 101.379 150.622 102.163 150.574C102.323 150.574 102.451 150.574 102.547 150.574C102.659 150.574 102.755 150.582 102.835 150.598V152.974ZM103.82 159.574C103.82 158.774 104.044 158.078 104.492 157.486C104.956 156.878 105.588 156.414 106.388 156.094C107.188 155.758 108.116 155.59 109.172 155.59C109.732 155.59 110.3 155.63 110.876 155.71C111.468 155.79 111.988 155.918 112.436 156.094V155.302C112.436 154.422 112.172 153.734 111.644 153.238C111.116 152.742 110.356 152.494 109.364 152.494C108.66 152.494 107.996 152.622 107.372 152.878C106.748 153.118 106.084 153.462 105.38 153.91L104.492 152.134C105.324 151.574 106.156 151.158 106.988 150.886C107.836 150.614 108.724 150.478 109.652 150.478C111.332 150.478 112.652 150.926 113.612 151.822C114.588 152.702 115.076 153.958 115.076 155.59V160.27C115.076 160.574 115.124 160.79 115.22 160.918C115.332 161.046 115.516 161.118 115.772 161.134V163.246C115.532 163.294 115.316 163.326 115.124 163.342C114.932 163.358 114.772 163.366 114.644 163.366C114.084 163.366 113.66 163.23 113.372 162.958C113.084 162.686 112.916 162.366 112.868 161.998L112.796 161.278C112.252 161.982 111.556 162.526 110.708 162.91C109.86 163.294 109.004 163.486 108.14 163.486C107.308 163.486 106.564 163.318 105.908 162.982C105.252 162.63 104.74 162.158 104.372 161.566C104.004 160.974 103.82 160.31 103.82 159.574ZM111.812 160.342C112.004 160.134 112.156 159.926 112.268 159.718C112.38 159.51 112.436 159.326 112.436 159.166V157.726C111.988 157.55 111.516 157.422 111.02 157.342C110.524 157.246 110.036 157.198 109.556 157.198C108.596 157.198 107.812 157.39 107.204 157.774C106.612 158.158 106.316 158.686 106.316 159.358C106.316 159.726 106.412 160.078 106.604 160.414C106.812 160.75 107.1 161.022 107.468 161.23C107.852 161.438 108.324 161.542 108.884 161.542C109.46 161.542 110.012 161.43 110.54 161.206C111.068 160.982 111.492 160.694 111.812 160.342ZM123.967 163.486C122.991 163.486 122.103 163.318 121.303 162.982C120.519 162.63 119.839 162.15 119.263 161.542C118.687 160.934 118.239 160.238 117.919 159.454C117.615 158.67 117.463 157.838 117.463 156.958C117.463 155.774 117.727 154.694 118.255 153.718C118.799 152.742 119.551 151.958 120.511 151.366C121.487 150.774 122.639 150.478 123.967 150.478C125.247 150.478 126.359 150.766 127.303 151.342C128.263 151.902 128.967 152.654 129.415 153.598L126.847 154.414C126.559 153.886 126.151 153.478 125.623 153.19C125.111 152.886 124.543 152.734 123.919 152.734C123.215 152.734 122.575 152.918 121.999 153.286C121.439 153.638 120.991 154.134 120.655 154.774C120.335 155.398 120.175 156.126 120.175 156.958C120.175 157.758 120.343 158.486 120.679 159.142C121.015 159.782 121.463 160.294 122.023 160.678C122.599 161.046 123.239 161.23 123.943 161.23C124.375 161.23 124.791 161.158 125.191 161.014C125.607 160.854 125.967 160.646 126.271 160.39C126.575 160.118 126.791 159.822 126.919 159.502L129.511 160.27C129.239 160.894 128.831 161.446 128.287 161.926C127.759 162.406 127.127 162.79 126.391 163.078C125.671 163.35 124.863 163.486 123.967 163.486ZM137.256 163.486C136.28 163.486 135.392 163.318 134.592 162.982C133.808 162.63 133.128 162.158 132.552 161.566C131.976 160.958 131.528 160.27 131.208 159.502C130.904 158.718 130.752 157.886 130.752 157.006C130.752 155.822 131.024 154.742 131.568 153.766C132.112 152.774 132.872 151.982 133.848 151.39C134.824 150.782 135.968 150.478 137.28 150.478C138.592 150.478 139.72 150.782 140.664 151.39C141.624 151.982 142.368 152.766 142.896 153.742C143.424 154.718 143.688 155.766 143.688 156.886C143.688 157.078 143.68 157.262 143.664 157.438C143.648 157.598 143.632 157.734 143.616 157.846H133.56C133.608 158.582 133.808 159.23 134.16 159.79C134.528 160.334 134.992 160.766 135.552 161.086C136.112 161.39 136.712 161.542 137.352 161.542C138.056 161.542 138.72 161.366 139.344 161.014C139.984 160.662 140.416 160.198 140.64 159.622L142.896 160.27C142.624 160.878 142.208 161.43 141.648 161.926C141.104 162.406 140.456 162.79 139.704 163.078C138.952 163.35 138.136 163.486 137.256 163.486ZM133.488 156.094H141.072C141.024 155.374 140.816 154.742 140.448 154.198C140.096 153.638 139.64 153.206 139.08 152.902C138.536 152.582 137.928 152.422 137.256 152.422C136.6 152.422 135.992 152.582 135.432 152.902C134.888 153.206 134.44 153.638 134.088 154.198C133.736 154.742 133.536 155.374 133.488 156.094ZM150.306 163.486C149.25 163.486 148.25 163.318 147.306 162.982C146.362 162.63 145.554 162.11 144.882 161.422L145.866 159.646C146.586 160.286 147.306 160.75 148.026 161.038C148.762 161.326 149.49 161.47 150.21 161.47C150.946 161.47 151.546 161.334 152.01 161.062C152.474 160.774 152.706 160.358 152.706 159.814C152.706 159.414 152.586 159.118 152.346 158.926C152.106 158.734 151.754 158.566 151.29 158.422C150.842 158.278 150.298 158.118 149.658 157.942C148.762 157.67 148.01 157.39 147.402 157.102C146.794 156.798 146.338 156.43 146.034 155.998C145.73 155.566 145.578 155.014 145.578 154.342C145.578 153.526 145.786 152.83 146.202 152.254C146.618 151.678 147.194 151.238 147.93 150.934C148.682 150.63 149.546 150.478 150.522 150.478C151.434 150.478 152.274 150.622 153.042 150.91C153.826 151.182 154.514 151.614 155.106 152.206L153.978 153.958C153.418 153.446 152.842 153.07 152.25 152.83C151.674 152.59 151.05 152.47 150.378 152.47C149.994 152.47 149.626 152.518 149.274 152.614C148.922 152.694 148.626 152.854 148.386 153.094C148.162 153.318 148.05 153.638 148.05 154.054C148.05 154.39 148.146 154.662 148.338 154.87C148.53 155.078 148.818 155.254 149.202 155.398C149.586 155.542 150.058 155.702 150.618 155.878C151.594 156.166 152.426 156.454 153.114 156.742C153.802 157.014 154.33 157.374 154.698 157.822C155.082 158.254 155.274 158.854 155.274 159.622C155.274 160.838 154.818 161.79 153.906 162.478C153.01 163.15 151.81 163.486 150.306 163.486Z" fill="#303030"/>
</svg>
