<svg width="235" height="204" viewBox="0 0 235 204" fill="none" xmlns="http://www.w3.org/2000/svg">
<rect width="235" height="204" rx="15" fill="white"/>
<g clip-path="url(#clip0_1_2650)">
<path opacity="0.5" d="M164.253 84.7308C164.165 85.2193 164.076 85.7129 163.983 86.2014H117.777C117.662 85.6817 117.548 85.1621 117.439 84.6425C115.085 73.6781 114.082 66.4084 118.447 62.7449C121.69 60.0116 127.328 59.7674 131.287 61.134C136.416 62.906 137.112 66.7877 140.921 66.7565C144.73 66.7253 145.104 62.9787 150.55 61.134C153.782 60.0428 158.667 59.7986 161.79 61.9395C167.033 65.525 166.02 74.9512 164.253 84.7308Z" fill="#FFE5B3"/>
<path opacity="0.5" d="M163.989 87.2407H69.9348C64.195 87.2407 59.542 91.8937 59.542 97.6335C59.542 103.373 64.195 108.026 69.9348 108.026H163.989C169.729 108.026 174.382 103.373 174.382 97.6335C174.382 91.8937 169.729 87.2407 163.989 87.2407Z" fill="#FFF9F4"/>
<path opacity="0.5" d="M161.391 80.4856H75.6506C69.9108 80.4856 65.2578 85.1386 65.2578 90.8784C65.2578 96.6181 69.9108 101.271 75.6506 101.271H161.391C167.131 101.271 171.784 96.6181 171.784 90.8784C171.784 85.1386 167.131 80.4856 161.391 80.4856Z" fill="#FFE5B3"/>
<path opacity="0.5" d="M111.25 85.2506C111.162 85.739 111.074 86.2327 110.98 86.7211H64.774C64.6597 86.2015 64.5454 85.6819 64.4362 85.1622C62.0979 74.1979 61.095 66.9281 65.4599 63.2647C68.7025 60.5314 74.3405 60.2872 78.3002 61.6538C83.429 63.4258 84.1253 67.3075 87.9343 67.2763C91.7432 67.2451 92.1174 63.4985 97.5632 61.6538C100.795 60.5626 105.68 60.3183 108.803 62.4592C114.03 66.0447 113.017 75.471 111.25 85.2506Z" fill="#FFE5B3"/>
<path d="M114.517 85.9417C114.392 86.6328 114.267 87.3239 114.137 88.0202H67.9312C67.7753 87.3135 67.6299 86.6276 67.4844 85.9417C65.2239 75.2891 64.3198 68.17 68.6172 64.5638C71.8597 61.8305 77.4978 61.5862 81.4574 62.9529C86.5862 64.7248 87.2826 68.6065 91.0915 68.5754C94.9005 68.5442 95.2746 64.7976 100.72 62.9529C103.953 61.8616 108.837 61.6174 111.96 63.7583C117.079 67.2711 116.211 76.3803 114.517 85.9417Z" stroke="#4D2C19" stroke-width="3" stroke-miterlimit="10"/>
<path d="M168.891 85.0301C168.803 85.5186 168.715 86.0122 168.621 86.5007H122.415C122.301 85.981 122.186 85.4614 122.077 84.9418C119.723 73.9774 118.72 66.7077 123.085 63.0442C126.328 60.3109 131.966 60.0667 135.925 61.4333C141.054 63.2053 141.751 67.087 145.56 67.0558C149.368 67.0247 149.743 63.2781 155.188 61.4333C158.421 60.3421 163.305 60.0979 166.428 62.2388C171.671 65.8243 170.658 75.2505 168.891 85.0301Z" stroke="#4D2C19" stroke-width="3" stroke-miterlimit="10"/>
<path d="M176.2 95.555C176.199 98.1041 175.185 100.549 173.383 102.351C171.58 104.154 169.136 105.167 166.587 105.168H69.1599C63.8492 105.168 59.3439 100.975 59.2867 95.6641C59.2588 93.1679 60.2029 90.7587 61.9195 88.9461C63.636 87.1336 65.9903 86.0598 68.4843 85.952C68.6246 86.6172 68.7701 87.2927 68.9208 87.989H115.08L115.454 85.9417H120.999C121.041 86.1443 121.118 86.4977 121.16 86.6951C121.202 86.8926 121.274 87.2148 121.326 87.4694H167.486C167.574 86.9913 167.662 86.5081 167.746 86.0352C170.073 86.3178 172.218 87.4415 173.775 89.1948C175.332 90.9481 176.194 93.2101 176.2 95.555Z" stroke="#4D2C19" stroke-width="3" stroke-miterlimit="10" stroke-linecap="round"/>
<path d="M89.5205 68.092C93.4468 71.0109 98.2847 72.4351 103.166 72.1088" stroke="#4D2C19" stroke-width="3" stroke-miterlimit="10" stroke-linecap="round"/>
<path d="M140.965 66.5332C144.891 69.4521 149.729 70.8762 154.61 70.55" stroke="#4D2C19" stroke-width="3" stroke-miterlimit="10" stroke-linecap="round"/>
</g>
<path d="M72.5919 158.026V140.986H75.2799V158.026H72.5919ZM90.0509 158.026H87.4109V150.994C87.4109 149.826 87.2189 148.97 86.8349 148.426C86.4669 147.882 85.9149 147.61 85.1789 147.61C84.6669 147.61 84.1549 147.738 83.6429 147.994C83.1469 148.25 82.6989 148.602 82.2989 149.05C81.8989 149.482 81.6109 149.986 81.4349 150.562V158.026H78.7949V145.474H81.1949V147.994C81.5149 147.434 81.9309 146.954 82.4429 146.554C82.9709 146.138 83.5629 145.818 84.2189 145.594C84.8749 145.37 85.5709 145.258 86.3069 145.258C87.0589 145.258 87.6749 145.394 88.1549 145.666C88.6509 145.938 89.0349 146.314 89.3069 146.794C89.5949 147.258 89.7869 147.802 89.8829 148.426C89.9949 149.034 90.0509 149.682 90.0509 150.37V158.026ZM96.3849 158.026L91.6089 145.474H94.3449L97.9209 155.578L101.497 145.474H104.041L99.2649 158.026H96.3849ZM105.936 158.026V145.474H108.576V158.026H105.936ZM105.936 143.41V140.506H108.576V143.41H105.936ZM116.212 158.266C115.156 158.266 114.156 158.098 113.212 157.762C112.268 157.41 111.46 156.89 110.788 156.202L111.772 154.426C112.492 155.066 113.212 155.53 113.932 155.818C114.668 156.106 115.396 156.25 116.116 156.25C116.852 156.25 117.452 156.114 117.916 155.842C118.38 155.554 118.612 155.138 118.612 154.594C118.612 154.194 118.492 153.898 118.252 153.706C118.012 153.514 117.66 153.346 117.196 153.202C116.748 153.058 116.204 152.898 115.564 152.722C114.668 152.45 113.916 152.17 113.308 151.882C112.7 151.578 112.244 151.21 111.94 150.778C111.636 150.346 111.484 149.794 111.484 149.122C111.484 148.306 111.692 147.61 112.108 147.034C112.524 146.458 113.1 146.018 113.836 145.714C114.588 145.41 115.452 145.258 116.428 145.258C117.34 145.258 118.18 145.402 118.948 145.69C119.732 145.962 120.42 146.394 121.012 146.986L119.884 148.738C119.324 148.226 118.748 147.85 118.156 147.61C117.58 147.37 116.956 147.25 116.284 147.25C115.9 147.25 115.532 147.298 115.18 147.394C114.828 147.474 114.532 147.634 114.292 147.874C114.068 148.098 113.956 148.418 113.956 148.834C113.956 149.17 114.052 149.442 114.244 149.65C114.436 149.858 114.724 150.034 115.108 150.178C115.492 150.322 115.964 150.482 116.524 150.658C117.5 150.946 118.332 151.234 119.02 151.522C119.708 151.794 120.236 152.154 120.604 152.602C120.988 153.034 121.18 153.634 121.18 154.402C121.18 155.618 120.724 156.57 119.812 157.258C118.916 157.93 117.716 158.266 116.212 158.266ZM123.537 158.026V145.474H126.177V158.026H123.537ZM123.537 143.41V140.506H126.177V143.41H123.537ZM136.118 158.266C135.158 158.266 134.286 158.042 133.502 157.594C132.734 157.13 132.126 156.514 131.678 155.746V158.026H129.35V140.506H131.99V147.85C132.486 147.05 133.102 146.418 133.838 145.954C134.59 145.49 135.47 145.258 136.478 145.258C137.31 145.258 138.07 145.434 138.758 145.786C139.446 146.138 140.03 146.618 140.51 147.226C141.006 147.834 141.382 148.53 141.638 149.314C141.91 150.098 142.046 150.93 142.046 151.81C142.046 152.69 141.894 153.522 141.59 154.306C141.302 155.09 140.886 155.778 140.342 156.37C139.798 156.962 139.166 157.426 138.446 157.762C137.742 158.098 136.966 158.266 136.118 158.266ZM135.422 156.01C135.998 156.01 136.526 155.898 137.006 155.674C137.486 155.434 137.902 155.122 138.254 154.738C138.606 154.354 138.87 153.906 139.046 153.394C139.238 152.882 139.334 152.354 139.334 151.81C139.334 151.058 139.174 150.354 138.854 149.698C138.55 149.042 138.118 148.514 137.558 148.114C136.998 147.714 136.35 147.514 135.614 147.514C135.086 147.514 134.59 147.642 134.126 147.898C133.662 148.138 133.246 148.466 132.878 148.882C132.526 149.282 132.23 149.73 131.99 150.226V153.538C132.086 153.906 132.254 154.242 132.494 154.546C132.734 154.834 133.014 155.09 133.334 155.314C133.654 155.522 133.998 155.69 134.366 155.818C134.734 155.946 135.086 156.01 135.422 156.01ZM144.444 140.506H147.084V154.402C147.084 155.042 147.18 155.45 147.372 155.626C147.564 155.802 147.804 155.89 148.092 155.89C148.412 155.89 148.708 155.858 148.98 155.794C149.268 155.73 149.516 155.65 149.724 155.554L150.108 157.642C149.724 157.802 149.268 157.938 148.74 158.05C148.212 158.162 147.74 158.218 147.324 158.218C146.428 158.218 145.724 157.97 145.212 157.474C144.7 156.962 144.444 156.258 144.444 155.362V140.506ZM157.327 158.266C156.351 158.266 155.463 158.098 154.663 157.762C153.879 157.41 153.199 156.938 152.623 156.346C152.047 155.738 151.599 155.05 151.279 154.282C150.975 153.498 150.823 152.666 150.823 151.786C150.823 150.602 151.095 149.522 151.639 148.546C152.183 147.554 152.943 146.762 153.919 146.17C154.895 145.562 156.039 145.258 157.351 145.258C158.663 145.258 159.791 145.562 160.735 146.17C161.695 146.762 162.439 147.546 162.967 148.522C163.495 149.498 163.759 150.546 163.759 151.666C163.759 151.858 163.751 152.042 163.735 152.218C163.719 152.378 163.703 152.514 163.687 152.626H153.631C153.679 153.362 153.879 154.01 154.231 154.57C154.599 155.114 155.063 155.546 155.623 155.866C156.183 156.17 156.783 156.322 157.423 156.322C158.127 156.322 158.791 156.146 159.415 155.794C160.055 155.442 160.487 154.978 160.711 154.402L162.967 155.05C162.695 155.658 162.279 156.21 161.719 156.706C161.175 157.186 160.527 157.57 159.775 157.858C159.023 158.13 158.207 158.266 157.327 158.266ZM153.559 150.874H161.143C161.095 150.154 160.887 149.522 160.519 148.978C160.167 148.418 159.711 147.986 159.151 147.682C158.607 147.362 157.999 147.202 157.327 147.202C156.671 147.202 156.063 147.362 155.503 147.682C154.959 147.986 154.511 148.418 154.159 148.978C153.807 149.522 153.607 150.154 153.559 150.874ZM93.7886 184.634C93.7886 185.546 93.5486 186.33 93.0686 186.986C92.6046 187.642 91.9726 188.146 91.1726 188.498C90.3726 188.85 89.4926 189.026 88.5326 189.026H80.3966V171.986H89.1806C89.9806 171.986 90.6686 172.202 91.2446 172.634C91.8366 173.05 92.2846 173.594 92.5886 174.266C92.9086 174.922 93.0686 175.61 93.0686 176.33C93.0686 177.162 92.8526 177.946 92.4206 178.682C92.0046 179.402 91.4046 179.938 90.6206 180.29C91.5966 180.578 92.3646 181.106 92.9246 181.874C93.5006 182.626 93.7886 183.546 93.7886 184.634ZM91.0286 184.13C91.0286 183.65 90.9246 183.218 90.7166 182.834C90.5246 182.434 90.2526 182.114 89.9006 181.874C89.5646 181.618 89.1646 181.49 88.7006 181.49H83.0846V186.698H88.5326C89.0126 186.698 89.4366 186.586 89.8046 186.362C90.1886 186.122 90.4846 185.81 90.6926 185.426C90.9166 185.026 91.0286 184.594 91.0286 184.13ZM83.0846 174.314V179.33H88.0286C88.4766 179.33 88.8766 179.226 89.2286 179.018C89.5806 178.794 89.8606 178.498 90.0686 178.13C90.2766 177.746 90.3806 177.314 90.3806 176.834C90.3806 176.338 90.2846 175.906 90.0926 175.538C89.9006 175.154 89.6366 174.858 89.3006 174.65C88.9806 174.426 88.6046 174.314 88.1726 174.314H83.0846ZM103.312 178.754C102.288 178.77 101.376 179.002 100.576 179.45C99.7919 179.898 99.2319 180.53 98.8959 181.346V189.026H96.2559V176.474H98.7039V179.282C99.1359 178.418 99.7039 177.73 100.408 177.218C101.112 176.69 101.856 176.402 102.64 176.354C102.8 176.354 102.928 176.354 103.024 176.354C103.136 176.354 103.232 176.362 103.312 176.378V178.754ZM104.297 185.354C104.297 184.554 104.521 183.858 104.969 183.266C105.433 182.658 106.065 182.194 106.865 181.874C107.665 181.538 108.593 181.37 109.649 181.37C110.209 181.37 110.777 181.41 111.353 181.49C111.945 181.57 112.465 181.698 112.913 181.874V181.082C112.913 180.202 112.649 179.514 112.121 179.018C111.593 178.522 110.833 178.274 109.841 178.274C109.137 178.274 108.473 178.402 107.849 178.658C107.225 178.898 106.561 179.242 105.857 179.69L104.969 177.914C105.801 177.354 106.633 176.938 107.465 176.666C108.313 176.394 109.201 176.258 110.129 176.258C111.809 176.258 113.129 176.706 114.089 177.602C115.065 178.482 115.553 179.738 115.553 181.37V186.05C115.553 186.354 115.601 186.57 115.697 186.698C115.809 186.826 115.993 186.898 116.249 186.914V189.026C116.009 189.074 115.793 189.106 115.601 189.122C115.409 189.138 115.249 189.146 115.121 189.146C114.561 189.146 114.137 189.01 113.849 188.738C113.561 188.466 113.393 188.146 113.345 187.778L113.273 187.058C112.729 187.762 112.033 188.306 111.185 188.69C110.337 189.074 109.481 189.266 108.617 189.266C107.785 189.266 107.041 189.098 106.385 188.762C105.729 188.41 105.217 187.938 104.849 187.346C104.481 186.754 104.297 186.09 104.297 185.354ZM112.289 186.122C112.481 185.914 112.633 185.706 112.745 185.498C112.857 185.29 112.913 185.106 112.913 184.946V183.506C112.465 183.33 111.993 183.202 111.497 183.122C111.001 183.026 110.513 182.978 110.033 182.978C109.073 182.978 108.289 183.17 107.681 183.554C107.089 183.938 106.793 184.466 106.793 185.138C106.793 185.506 106.889 185.858 107.081 186.194C107.289 186.53 107.577 186.802 107.945 187.01C108.329 187.218 108.801 187.322 109.361 187.322C109.937 187.322 110.489 187.21 111.017 186.986C111.545 186.762 111.969 186.474 112.289 186.122ZM124.444 189.266C123.468 189.266 122.58 189.098 121.78 188.762C120.996 188.41 120.316 187.93 119.74 187.322C119.164 186.714 118.716 186.018 118.396 185.234C118.092 184.45 117.94 183.618 117.94 182.738C117.94 181.554 118.204 180.474 118.732 179.498C119.276 178.522 120.028 177.738 120.988 177.146C121.964 176.554 123.116 176.258 124.444 176.258C125.724 176.258 126.836 176.546 127.78 177.122C128.74 177.682 129.444 178.434 129.892 179.378L127.324 180.194C127.036 179.666 126.628 179.258 126.1 178.97C125.588 178.666 125.02 178.514 124.396 178.514C123.692 178.514 123.052 178.698 122.476 179.066C121.916 179.418 121.468 179.914 121.132 180.554C120.812 181.178 120.652 181.906 120.652 182.738C120.652 183.538 120.82 184.266 121.156 184.922C121.492 185.562 121.94 186.074 122.5 186.458C123.076 186.826 123.716 187.01 124.42 187.01C124.852 187.01 125.268 186.938 125.668 186.794C126.084 186.634 126.444 186.426 126.748 186.17C127.052 185.898 127.268 185.602 127.396 185.282L129.988 186.05C129.716 186.674 129.308 187.226 128.764 187.706C128.236 188.186 127.604 188.57 126.868 188.858C126.148 189.13 125.34 189.266 124.444 189.266ZM137.733 189.266C136.757 189.266 135.869 189.098 135.069 188.762C134.285 188.41 133.605 187.938 133.029 187.346C132.453 186.738 132.005 186.05 131.685 185.282C131.381 184.498 131.229 183.666 131.229 182.786C131.229 181.602 131.501 180.522 132.045 179.546C132.589 178.554 133.349 177.762 134.325 177.17C135.301 176.562 136.445 176.258 137.757 176.258C139.069 176.258 140.197 176.562 141.141 177.17C142.101 177.762 142.845 178.546 143.373 179.522C143.901 180.498 144.165 181.546 144.165 182.666C144.165 182.858 144.157 183.042 144.141 183.218C144.125 183.378 144.109 183.514 144.093 183.626H134.037C134.085 184.362 134.285 185.01 134.637 185.57C135.005 186.114 135.469 186.546 136.029 186.866C136.589 187.17 137.189 187.322 137.829 187.322C138.533 187.322 139.197 187.146 139.821 186.794C140.461 186.442 140.893 185.978 141.117 185.402L143.373 186.05C143.101 186.658 142.685 187.21 142.125 187.706C141.581 188.186 140.933 188.57 140.181 188.858C139.429 189.13 138.613 189.266 137.733 189.266ZM133.965 181.874H141.549C141.501 181.154 141.293 180.522 140.925 179.978C140.573 179.418 140.117 178.986 139.557 178.682C139.013 178.362 138.405 178.202 137.733 178.202C137.077 178.202 136.469 178.362 135.909 178.682C135.365 178.986 134.917 179.418 134.565 179.978C134.213 180.522 134.013 181.154 133.965 181.874ZM150.782 189.266C149.726 189.266 148.726 189.098 147.782 188.762C146.838 188.41 146.03 187.89 145.358 187.202L146.342 185.426C147.062 186.066 147.782 186.53 148.502 186.818C149.238 187.106 149.966 187.25 150.686 187.25C151.422 187.25 152.022 187.114 152.486 186.842C152.95 186.554 153.182 186.138 153.182 185.594C153.182 185.194 153.062 184.898 152.822 184.706C152.582 184.514 152.23 184.346 151.766 184.202C151.318 184.058 150.774 183.898 150.134 183.722C149.238 183.45 148.486 183.17 147.878 182.882C147.27 182.578 146.814 182.21 146.51 181.778C146.206 181.346 146.054 180.794 146.054 180.122C146.054 179.306 146.262 178.61 146.678 178.034C147.094 177.458 147.67 177.018 148.406 176.714C149.158 176.41 150.022 176.258 150.998 176.258C151.91 176.258 152.75 176.402 153.518 176.69C154.302 176.962 154.99 177.394 155.582 177.986L154.454 179.738C153.894 179.226 153.318 178.85 152.726 178.61C152.15 178.37 151.526 178.25 150.854 178.25C150.47 178.25 150.102 178.298 149.75 178.394C149.398 178.474 149.102 178.634 148.862 178.874C148.638 179.098 148.526 179.418 148.526 179.834C148.526 180.17 148.622 180.442 148.814 180.65C149.006 180.858 149.294 181.034 149.678 181.178C150.062 181.322 150.534 181.482 151.094 181.658C152.07 181.946 152.902 182.234 153.59 182.522C154.278 182.794 154.806 183.154 155.174 183.602C155.558 184.034 155.75 184.634 155.75 185.402C155.75 186.618 155.294 187.57 154.382 188.258C153.486 188.93 152.286 189.266 150.782 189.266Z" fill="#303030"/>
<defs>
<clipPath id="clip0_1_2650">
<rect width="120" height="67.5529" fill="white" transform="translate(57.5 40.4736)"/>
</clipPath>
</defs>
</svg>
