<svg width="235" height="204" viewBox="0 0 235 204" fill="none" xmlns="http://www.w3.org/2000/svg">
<rect width="235" height="204" rx="15" fill="white"/>
<path opacity="0.5" d="M162.796 58.8164C162.463 60.0299 161.815 62.3837 161.172 64.7279C160.991 65.3412 160.761 65.9393 160.485 66.5164C159.244 69.2115 159.047 72.0575 158.939 74.9378C158.797 78.9194 158.267 82.8571 156.702 86.634C156.371 87.4153 155.957 88.1587 155.465 88.8515C153.306 91.8681 149.086 91.9948 146.878 88.9928C145.998 87.6726 145.318 86.2308 144.861 84.7139C144.164 82.6865 143.718 80.5812 143.1 78.5295C142.888 77.8483 142.581 77.2003 142.187 76.6045C140.98 74.7477 138.492 74.543 137.177 76.3364C136.299 77.6563 135.599 79.0851 135.096 80.5861C134.144 83.0618 133.359 85.596 132.447 88.0863C132.203 88.65 131.861 89.1664 131.436 89.6117C131.029 90.1068 130.519 90.5083 129.941 90.7888C129.363 91.0693 128.731 91.2219 128.087 91.2363C127.444 91.2507 126.806 91.1264 126.215 90.872C125.625 90.6176 125.098 90.2392 124.669 89.7628C123.114 88.0774 122.091 85.9765 121.725 83.7197C121.078 80.4478 120.622 77.1412 120.361 73.8169C120.208 71.4173 119.726 69.0496 118.928 66.7796C117.976 64.0992 116.965 61.3798 116.568 58.6019C115.9 53.8113 118.3 50.1221 122.515 47.4661C124.9 45.9602 127.594 46.1454 130.253 46.8423C131.607 47.1932 132.962 47.5685 134.282 48.0119C137.616 49.159 141.239 49.1796 144.586 48.0704C146.255 47.5441 147.962 47.0957 149.675 46.6961C151.175 46.3164 152.746 46.3061 154.251 46.6662C155.756 47.0263 157.15 47.7459 158.311 48.7625C161.265 51.1992 162.811 54.1866 162.796 58.8164Z" fill="#FFE5B3"/>
<path d="M167.251 56.8427C166.917 58.1488 166.269 60.6781 165.626 63.1782C165.448 63.8445 165.218 64.4962 164.939 65.1276C163.698 68.0516 163.502 71.0878 163.394 74.1922C163.251 78.4711 162.721 82.711 161.156 86.7462C160.829 87.5813 160.415 88.3801 159.92 89.1293C157.761 92.3799 153.541 92.5115 151.332 89.2853C150.446 87.8517 149.767 86.3014 149.316 84.6799C148.619 82.4965 148.172 80.2353 147.554 78.0227C147.344 77.2998 147.037 76.6081 146.641 75.9661C145.434 73.968 142.946 73.7487 141.631 75.6786C140.749 77.1105 140.05 78.6461 139.551 80.2499C138.599 82.94 137.814 85.6399 136.926 88.3008C136.686 88.9019 136.344 89.4575 135.915 89.9432C134.089 92.2142 131.081 92.2922 129.148 90.1089C127.575 88.2571 126.555 86.0051 126.204 83.6077C125.556 80.0836 125.101 76.5273 124.84 72.9543C124.676 70.383 124.183 67.8429 123.372 65.3956C122.42 62.5105 121.41 59.5816 121.012 56.5942C120.345 51.4429 122.744 47.4711 126.959 44.6152C129.344 42.9777 132.019 43.197 134.698 43.9524C136.052 44.3326 137.406 44.7322 138.726 45.2098C142.045 46.4459 145.698 46.4684 149.031 45.2731C150.699 44.7078 152.407 44.2205 154.12 43.8111C157.388 43.0021 160.248 43.8111 162.756 46.0334C165.72 48.6456 167.265 51.8523 167.251 56.8427Z" stroke="#4D2C19" stroke-width="3.50949" stroke-miterlimit="10" stroke-linecap="round"/>
<path opacity="0.5" d="M113.573 59.9488C113.294 61.1843 112.772 63.5678 112.213 65.9449C112.056 66.5672 111.851 67.1767 111.599 67.7678C110.477 70.5257 110.404 73.3819 110.422 76.2694C110.457 80.2558 110.096 84.2234 108.694 88.0551C108.399 88.8533 108.017 89.6173 107.555 90.333C105.535 93.4578 101.324 93.7899 99.0004 90.894C98.065 89.6175 97.3259 88.2084 96.8074 86.7129C96.0212 84.7132 95.4828 82.6325 94.7786 80.608C94.538 79.9409 94.2034 79.3118 93.7848 78.7395C92.5031 76.9415 90.0112 76.8552 88.7787 78.7148C87.9593 80.0766 87.3234 81.5392 86.8877 83.0648C86.0444 85.5888 85.3708 88.1611 84.5677 90.6957C84.3495 91.2726 84.0308 91.8071 83.6264 92.2745C83.2422 92.7878 82.7515 93.2126 82.188 93.52C81.6246 93.8273 81.0017 94.0098 80.3624 94.0549C79.723 94.1 79.0822 94.0067 78.4841 93.7813C77.8859 93.556 77.3446 93.2039 76.8973 92.7494C75.2706 91.1379 74.1544 89.0852 73.6858 86.8434C72.9018 83.6013 72.3047 80.3161 71.8975 77.0038C71.634 74.6143 71.0451 72.2736 70.1469 70.0461C69.0785 67.4104 67.9419 64.7352 67.4371 61.9766C66.5915 57.2145 68.8224 53.3942 72.9103 50.5331C75.2211 48.912 77.9153 48.966 80.5993 49.5322C81.9656 49.8182 83.3332 50.126 84.6699 50.5079C88.0425 51.4919 91.6534 51.336 94.9414 50.0643C96.5834 49.4539 98.2523 48.9293 99.9541 48.442C101.434 47.9888 103.001 47.9022 104.517 48.1896C106.034 48.477 107.455 49.1298 108.657 50.0912C111.729 52.3978 113.401 55.304 113.573 59.9488Z" fill="#FFE5B3" fill-opacity="0.898039"/>
<path d="M117.679 56.8522C117.405 58.1749 116.885 60.7376 116.335 63.2891C116.182 63.9575 115.979 64.614 115.73 65.2536C114.609 68.2192 114.554 71.2841 114.583 74.3962C114.622 78.6841 114.28 82.95 112.89 87.0675C112.602 87.9187 112.224 88.7372 111.761 89.5088C109.736 92.8722 105.539 93.2079 103.207 90.0807C102.257 88.6939 101.513 87.1772 100.997 85.5769C100.202 83.4248 99.657 81.1848 98.9458 79.0011C98.7073 78.2875 98.3717 77.6103 97.9482 76.9885C96.6584 75.049 94.1677 74.9451 92.9408 76.942C92.1204 78.4167 91.489 79.9875 91.0618 81.6172C90.2347 84.3457 89.5668 87.0948 88.77 89.817C88.552 90.4243 88.231 90.9904 87.821 91.4904C86.0947 93.8489 83.0856 94.0837 81.0853 92.0028C79.436 90.2245 78.3187 88.0209 77.8585 85.6386C77.0613 82.1457 76.4544 78.6113 76.0405 75.0508C75.7802 72.4823 75.1901 69.9596 74.2849 67.5446C73.2113 64.7036 72.0653 61.8256 71.5377 58.8607C70.6521 53.7446 72.8716 49.6495 76.9501 46.5857C79.2607 44.8465 81.9537 44.918 84.6335 45.5261C86.009 45.8575 87.3803 46.1912 88.7048 46.5914C92.0663 47.6626 95.7074 47.5069 98.9788 46.152C100.621 45.5023 102.298 44.9334 103.99 44.4292C107.214 43.4571 110.103 44.1242 112.7 46.2267C115.797 48.7263 117.476 51.8595 117.679 56.8522Z" stroke="#4D2C19" stroke-width="3.50949" stroke-miterlimit="10" stroke-linecap="round"/>
<path d="M44.468 147.532H46.988L49.1 153.316L51.236 147.532H53.756L50.828 155.116L53.372 161.38L58.676 147.46H61.628L54.644 164.5H52.316L49.124 156.868L45.908 164.5H43.556L36.596 147.46H39.524L44.852 161.38L47.396 155.116L44.468 147.532ZM63.3027 164.5V151.948H65.9428V164.5H63.3027ZM63.3027 149.884V146.98H65.9428V149.884H63.3027ZM73.5793 164.74C72.5233 164.74 71.5233 164.572 70.5793 164.236C69.6353 163.884 68.8273 163.364 68.1553 162.676L69.1393 160.9C69.8593 161.54 70.5793 162.004 71.2993 162.292C72.0353 162.58 72.7633 162.724 73.4833 162.724C74.2193 162.724 74.8193 162.588 75.2833 162.316C75.7473 162.028 75.9793 161.612 75.9793 161.068C75.9793 160.668 75.8593 160.372 75.6193 160.18C75.3793 159.988 75.0273 159.82 74.5633 159.676C74.1153 159.532 73.5713 159.372 72.9313 159.196C72.0353 158.924 71.2833 158.644 70.6753 158.356C70.0673 158.052 69.6113 157.684 69.3073 157.252C69.0033 156.82 68.8513 156.268 68.8513 155.596C68.8513 154.78 69.0593 154.084 69.4753 153.508C69.8913 152.932 70.4673 152.492 71.2033 152.188C71.9553 151.884 72.8193 151.732 73.7953 151.732C74.7073 151.732 75.5473 151.876 76.3153 152.164C77.0993 152.436 77.7873 152.868 78.3793 153.46L77.2513 155.212C76.6913 154.7 76.1153 154.324 75.5233 154.084C74.9473 153.844 74.3233 153.724 73.6513 153.724C73.2673 153.724 72.8993 153.772 72.5473 153.868C72.1953 153.948 71.8993 154.108 71.6593 154.348C71.4353 154.572 71.3233 154.892 71.3233 155.308C71.3233 155.644 71.4193 155.916 71.6113 156.124C71.8033 156.332 72.0913 156.508 72.4753 156.652C72.8593 156.796 73.3313 156.956 73.8913 157.132C74.8673 157.42 75.6993 157.708 76.3873 157.996C77.0753 158.268 77.6033 158.628 77.9713 159.076C78.3553 159.508 78.5473 160.108 78.5473 160.876C78.5473 162.092 78.0913 163.044 77.1793 163.732C76.2833 164.404 75.0833 164.74 73.5793 164.74ZM80.1123 158.236C80.1123 157.036 80.3523 155.948 80.8323 154.972C81.3283 153.98 82.0003 153.196 82.8483 152.62C83.6963 152.028 84.6723 151.732 85.7763 151.732C86.7363 151.732 87.6003 151.98 88.3683 152.476C89.1523 152.972 89.7603 153.588 90.1923 154.324V146.98H92.8323V161.524C92.8323 161.828 92.8883 162.044 93.0003 162.172C93.1123 162.3 93.2963 162.372 93.5523 162.388V164.5C93.0563 164.58 92.6723 164.62 92.4003 164.62C91.9043 164.62 91.4803 164.476 91.1283 164.188C90.7923 163.9 90.6163 163.556 90.6003 163.156L90.5763 162.22C90.0963 163.02 89.4483 163.644 88.6323 164.092C87.8163 164.524 86.9683 164.74 86.0883 164.74C85.2243 164.74 84.4243 164.572 83.6883 164.236C82.9683 163.9 82.3363 163.428 81.7923 162.82C81.2643 162.212 80.8483 161.516 80.5443 160.732C80.2563 159.948 80.1123 159.116 80.1123 158.236ZM90.1923 159.988V156.7C90.0163 156.188 89.7283 155.732 89.3283 155.332C88.9443 154.916 88.5043 154.588 88.0083 154.348C87.5283 154.108 87.0483 153.988 86.5683 153.988C86.0083 153.988 85.4963 154.108 85.0323 154.348C84.5843 154.588 84.1923 154.908 83.8563 155.308C83.5363 155.708 83.2883 156.164 83.1123 156.676C82.9363 157.188 82.8483 157.724 82.8483 158.284C82.8483 158.86 82.9443 159.404 83.1363 159.916C83.3283 160.412 83.6003 160.86 83.9523 161.26C84.3203 161.644 84.7363 161.948 85.2003 162.172C85.6803 162.38 86.2003 162.484 86.7603 162.484C87.1123 162.484 87.4643 162.42 87.8163 162.292C88.1843 162.164 88.5283 161.988 88.8483 161.764C89.1843 161.54 89.4643 161.276 89.6883 160.972C89.9283 160.668 90.0963 160.34 90.1923 159.988ZM101.826 164.74C100.834 164.74 99.9456 164.572 99.1616 164.236C98.3776 163.884 97.6976 163.404 97.1216 162.796C96.5616 162.188 96.1296 161.5 95.8256 160.732C95.5216 159.948 95.3696 159.116 95.3696 158.236C95.3696 157.356 95.5216 156.524 95.8256 155.74C96.1296 154.956 96.5616 154.268 97.1216 153.676C97.6976 153.068 98.3776 152.596 99.1616 152.26C99.9616 151.908 100.85 151.732 101.826 151.732C102.802 151.732 103.682 151.908 104.466 152.26C105.266 152.596 105.946 153.068 106.506 153.676C107.082 154.268 107.522 154.956 107.826 155.74C108.13 156.524 108.282 157.356 108.282 158.236C108.282 159.116 108.13 159.948 107.826 160.732C107.522 161.5 107.082 162.188 106.506 162.796C105.946 163.404 105.266 163.884 104.466 164.236C103.682 164.572 102.802 164.74 101.826 164.74ZM98.0816 158.26C98.0816 159.06 98.2496 159.78 98.5856 160.42C98.9216 161.06 99.3696 161.564 99.9296 161.932C100.49 162.3 101.122 162.484 101.826 162.484C102.514 162.484 103.138 162.3 103.698 161.932C104.274 161.548 104.73 161.036 105.066 160.396C105.402 159.74 105.57 159.02 105.57 158.236C105.57 157.436 105.402 156.716 105.066 156.076C104.73 155.436 104.274 154.932 103.698 154.564C103.138 154.18 102.514 153.988 101.826 153.988C101.122 153.988 100.49 154.18 99.9296 154.564C99.3696 154.948 98.9216 155.46 98.5856 156.1C98.2496 156.724 98.0816 157.444 98.0816 158.26ZM129.823 164.5H127.183V157.468C127.183 156.3 126.991 155.444 126.607 154.9C126.223 154.356 125.663 154.084 124.927 154.084C124.191 154.084 123.503 154.364 122.863 154.924C122.239 155.468 121.799 156.18 121.543 157.06V164.5H118.903V157.468C118.903 156.3 118.711 155.444 118.327 154.9C117.943 154.356 117.391 154.084 116.671 154.084C115.935 154.084 115.247 154.356 114.607 154.9C113.983 155.444 113.535 156.156 113.263 157.036V164.5H110.623V151.948H113.023V154.468C113.519 153.588 114.167 152.916 114.967 152.452C115.783 151.972 116.711 151.732 117.751 151.732C118.791 151.732 119.607 152.004 120.199 152.548C120.807 153.092 121.183 153.772 121.327 154.588C121.871 153.66 122.535 152.956 123.319 152.476C124.119 151.98 125.031 151.732 126.055 151.732C126.791 151.732 127.407 151.868 127.903 152.14C128.399 152.412 128.783 152.788 129.055 153.268C129.327 153.732 129.519 154.276 129.631 154.9C129.759 155.508 129.823 156.156 129.823 156.844V164.5ZM145.779 163.852C145.555 163.964 145.275 164.084 144.939 164.212C144.603 164.34 144.219 164.452 143.787 164.548C143.371 164.644 142.939 164.692 142.491 164.692C141.947 164.692 141.443 164.596 140.979 164.404C140.515 164.212 140.139 163.908 139.851 163.492C139.579 163.06 139.443 162.508 139.443 161.836V153.988H137.787V151.948H139.443V147.82H142.083V151.948H144.819V153.988H142.083V160.996C142.115 161.428 142.251 161.748 142.491 161.956C142.747 162.164 143.059 162.268 143.427 162.268C143.795 162.268 144.147 162.204 144.483 162.076C144.819 161.948 145.067 161.844 145.227 161.764L145.779 163.852ZM153.083 164.74C152.091 164.74 151.203 164.572 150.419 164.236C149.635 163.884 148.955 163.404 148.379 162.796C147.819 162.188 147.387 161.5 147.083 160.732C146.779 159.948 146.627 159.116 146.627 158.236C146.627 157.356 146.779 156.524 147.083 155.74C147.387 154.956 147.819 154.268 148.379 153.676C148.955 153.068 149.635 152.596 150.419 152.26C151.219 151.908 152.107 151.732 153.083 151.732C154.059 151.732 154.939 151.908 155.723 152.26C156.523 152.596 157.203 153.068 157.763 153.676C158.339 154.268 158.779 154.956 159.083 155.74C159.387 156.524 159.539 157.356 159.539 158.236C159.539 159.116 159.387 159.948 159.083 160.732C158.779 161.5 158.339 162.188 157.763 162.796C157.203 163.404 156.523 163.884 155.723 164.236C154.939 164.572 154.059 164.74 153.083 164.74ZM149.339 158.26C149.339 159.06 149.507 159.78 149.843 160.42C150.179 161.06 150.627 161.564 151.187 161.932C151.747 162.3 152.379 162.484 153.083 162.484C153.771 162.484 154.395 162.3 154.955 161.932C155.531 161.548 155.987 161.036 156.323 160.396C156.659 159.74 156.827 159.02 156.827 158.236C156.827 157.436 156.659 156.716 156.323 156.076C155.987 155.436 155.531 154.932 154.955 154.564C154.395 154.18 153.771 153.988 153.083 153.988C152.379 153.988 151.747 154.18 151.187 154.564C150.627 154.948 150.179 155.46 149.843 156.1C149.507 156.724 149.339 157.444 149.339 158.26ZM167.521 164.74C166.529 164.74 165.641 164.572 164.857 164.236C164.073 163.884 163.393 163.404 162.817 162.796C162.257 162.188 161.825 161.5 161.521 160.732C161.217 159.948 161.065 159.116 161.065 158.236C161.065 157.356 161.217 156.524 161.521 155.74C161.825 154.956 162.257 154.268 162.817 153.676C163.393 153.068 164.073 152.596 164.857 152.26C165.657 151.908 166.545 151.732 167.521 151.732C168.497 151.732 169.377 151.908 170.161 152.26C170.961 152.596 171.641 153.068 172.201 153.676C172.777 154.268 173.217 154.956 173.521 155.74C173.825 156.524 173.977 157.356 173.977 158.236C173.977 159.116 173.825 159.948 173.521 160.732C173.217 161.5 172.777 162.188 172.201 162.796C171.641 163.404 170.961 163.884 170.161 164.236C169.377 164.572 168.497 164.74 167.521 164.74ZM163.777 158.26C163.777 159.06 163.945 159.78 164.281 160.42C164.617 161.06 165.065 161.564 165.625 161.932C166.185 162.3 166.817 162.484 167.521 162.484C168.209 162.484 168.833 162.3 169.393 161.932C169.969 161.548 170.425 161.036 170.761 160.396C171.097 159.74 171.265 159.02 171.265 158.236C171.265 157.436 171.097 156.716 170.761 156.076C170.425 155.436 169.969 154.932 169.393 154.564C168.833 154.18 168.209 153.988 167.521 153.988C166.817 153.988 166.185 154.18 165.625 154.564C165.065 154.948 164.617 155.46 164.281 156.1C163.945 156.724 163.777 157.444 163.777 158.26ZM183.115 163.852C182.891 163.964 182.611 164.084 182.275 164.212C181.939 164.34 181.555 164.452 181.123 164.548C180.707 164.644 180.275 164.692 179.827 164.692C179.283 164.692 178.779 164.596 178.315 164.404C177.851 164.212 177.475 163.908 177.187 163.492C176.915 163.06 176.779 162.508 176.779 161.836V153.988H175.123V151.948H176.779V147.82H179.419V151.948H182.155V153.988H179.419V160.996C179.451 161.428 179.587 161.748 179.827 161.956C180.083 162.164 180.395 162.268 180.763 162.268C181.131 162.268 181.483 162.204 181.819 162.076C182.155 161.948 182.403 161.844 182.563 161.764L183.115 163.852ZM196.199 164.5H193.559V157.468C193.559 156.332 193.351 155.484 192.935 154.924C192.519 154.364 191.935 154.084 191.183 154.084C190.719 154.084 190.239 154.212 189.743 154.468C189.247 154.724 188.807 155.076 188.423 155.524C188.039 155.956 187.759 156.46 187.583 157.036V164.5H184.943V146.98H187.583V154.468C188.063 153.62 188.719 152.956 189.551 152.476C190.383 151.98 191.279 151.732 192.239 151.732C193.023 151.732 193.671 151.868 194.183 152.14C194.695 152.412 195.095 152.788 195.383 153.268C195.687 153.732 195.895 154.276 196.007 154.9C196.135 155.508 196.199 156.156 196.199 156.844V164.5Z" fill="#303030"/>
</svg>
