<svg width="235" height="204" viewBox="0 0 235 204" fill="none" xmlns="http://www.w3.org/2000/svg">
<rect width="235" height="204" rx="15" fill="white"/>
<path opacity="0.5" d="M131.225 50.9097H102.064C101.36 50.9097 100.788 51.4811 100.788 52.186V55.374C100.788 56.0789 101.36 56.6503 102.064 56.6503H131.225C131.93 56.6503 132.502 56.0789 132.502 55.374V52.186C132.502 51.4811 131.93 50.9097 131.225 50.9097Z" fill="#F3EBD9"/>
<path opacity="0.5" d="M130.149 50.9097H103.406C102.701 50.9097 102.13 51.4811 102.13 52.186V55.374C102.13 56.0789 102.701 56.6503 103.406 56.6503H130.149C130.854 56.6503 131.426 56.0789 131.426 55.374V52.186C131.426 51.4811 130.854 50.9097 130.149 50.9097Z" fill="#FFE5B3"/>
<path opacity="0.5" d="M124.167 92.1069C124.082 92.3388 123.976 92.5624 123.849 92.7746C123.526 93.3166 123.119 93.8038 122.643 94.2179L119.552 97.0182C118.774 97.724 117.762 98.1149 116.711 98.1149C115.661 98.1149 114.648 97.724 113.871 97.0182C113.106 96.3289 112.345 95.636 111.587 94.9395C110.783 94.2896 110.096 93.5063 109.557 92.6238C108.885 91.2827 108.639 89.7683 108.852 88.2834C109.067 86.097 109.11 78.3422 109.062 66.8986C109.062 65.9131 109.062 64.8954 109.062 63.856C109.062 61.6104 109.062 59.2409 109.013 56.7637H124.512C124.512 57.9233 124.512 59.0577 124.512 60.1671C124.512 60.6033 124.512 61.0341 124.512 61.4596C124.463 77.0767 124.474 87.5672 124.603 88.8273C124.703 89.9393 124.554 91.0595 124.167 92.1069Z" fill="#FFE5B3"/>
<path d="M127.468 84.9229L112.088 92.7153" stroke="#4D2C19" stroke-width="2.69261" stroke-miterlimit="10"/>
<path d="M133.396 51.4482H106.357C105.066 51.4482 104.02 52.4946 104.02 53.7854V54.8517C104.02 56.1425 105.066 57.1889 106.357 57.1889H133.396C134.687 57.1889 135.733 56.1425 135.733 54.8517V53.7854C135.733 52.4946 134.687 51.4482 133.396 51.4482Z" stroke="#4D2C19" stroke-width="2.69261" stroke-miterlimit="10"/>
<path opacity="0.5" d="M140.161 50.829H92.2914C89.5988 38.5614 88.2525 30.4944 92.9861 26.5147C96.3465 23.6875 102.189 23.429 106.293 24.8507C111.603 26.687 112.33 30.7098 116.277 30.6721C120.225 30.6344 120.585 26.7624 126.256 24.8507C129.606 23.7198 134.668 23.4613 137.904 25.68C143.596 29.5897 142.148 40.1609 140.161 50.829Z" fill="#FFE5B3"/>
<path d="M143.392 51.3676H95.5224C92.8298 39.1 91.4835 31.0329 96.2171 27.0533C99.5775 24.226 105.42 23.9676 109.524 25.3893C114.834 27.2256 115.561 31.2484 119.508 31.2107C123.456 31.173 123.816 27.301 129.487 25.3893C132.837 24.2584 137.899 23.9999 141.135 26.2186C146.827 30.1283 145.379 40.6994 143.392 51.3676Z" stroke="#4D2C19" stroke-width="2.69261" stroke-miterlimit="10"/>
<path d="M115.759 29.6382C119.828 32.663 124.842 34.1371 129.9 33.7956" stroke="#4D2C19" stroke-width="2.69261" stroke-miterlimit="10" stroke-linecap="round"/>
<path d="M127.398 92.6452C127.313 92.8772 127.207 93.1007 127.08 93.313C126.757 93.8549 126.35 94.3421 125.874 94.7563L122.105 98.1651C121.51 98.7024 120.738 99 119.937 99C119.136 99 118.363 98.7024 117.769 98.1651C116.784 97.2658 115.793 96.3718 114.813 95.4725C114.009 94.8225 113.322 94.0392 112.783 93.1568C112.111 91.8156 111.865 90.3013 112.077 88.8164C112.293 86.63 112.336 78.8753 112.287 67.4317C112.287 66.4462 112.287 65.4283 112.287 64.389C112.287 62.1434 112.26 59.7738 112.239 57.2966H127.737C127.737 58.4562 127.737 59.5908 127.737 60.7001C127.737 61.1363 127.737 61.5671 127.737 61.9925C127.689 77.6097 127.7 88.1001 127.829 89.3603C127.931 90.4737 127.784 91.5957 127.398 92.6452Z" stroke="#4D2C19" stroke-width="2.69261" stroke-miterlimit="10"/>
<path d="M127.467 63.2258L112.087 71.0236" stroke="#4D2C19" stroke-width="2.69261" stroke-miterlimit="10"/>
<path d="M120.849 57L111.849 62" stroke="#4D2C19" stroke-width="2.69261" stroke-miterlimit="10"/>
<path d="M127.468 74.7395L112.088 82.5319" stroke="#4D2C19" stroke-width="2.69261" stroke-miterlimit="10"/>
<path d="M81.7911 150.5V133.46H87.8391C89.6791 133.46 91.2151 133.844 92.4471 134.612C93.6791 135.364 94.5991 136.388 95.2071 137.684C95.8311 138.964 96.1431 140.388 96.1431 141.956C96.1431 143.684 95.7991 145.188 95.1111 146.468C94.4391 147.748 93.4791 148.74 92.2311 149.444C90.9831 150.148 89.5191 150.5 87.8391 150.5H81.7911ZM93.4071 141.956C93.4071 140.756 93.1831 139.7 92.7351 138.788C92.3031 137.86 91.6711 137.14 90.8391 136.628C90.0231 136.1 89.0231 135.836 87.8391 135.836H84.4791V148.124H87.8391C89.0391 148.124 90.0471 147.852 90.8631 147.308C91.6951 146.764 92.3271 146.028 92.7591 145.1C93.1911 144.172 93.4071 143.124 93.4071 141.956ZM104.323 150.74C103.347 150.74 102.459 150.572 101.659 150.236C100.875 149.884 100.195 149.412 99.6188 148.82C99.0428 148.212 98.5948 147.524 98.2748 146.756C97.9708 145.972 97.8188 145.14 97.8188 144.26C97.8188 143.076 98.0908 141.996 98.6348 141.02C99.1788 140.028 99.9388 139.236 100.915 138.644C101.891 138.036 103.035 137.732 104.347 137.732C105.659 137.732 106.787 138.036 107.731 138.644C108.691 139.236 109.435 140.02 109.963 140.996C110.491 141.972 110.755 143.02 110.755 144.14C110.755 144.332 110.747 144.516 110.731 144.692C110.715 144.852 110.699 144.988 110.683 145.1H100.627C100.675 145.836 100.875 146.484 101.227 147.044C101.595 147.588 102.059 148.02 102.619 148.34C103.179 148.644 103.779 148.796 104.419 148.796C105.123 148.796 105.787 148.62 106.411 148.268C107.051 147.916 107.483 147.452 107.707 146.876L109.963 147.524C109.691 148.132 109.275 148.684 108.715 149.18C108.171 149.66 107.523 150.044 106.771 150.332C106.019 150.604 105.203 150.74 104.323 150.74ZM100.555 143.348H108.139C108.091 142.628 107.883 141.996 107.515 141.452C107.163 140.892 106.707 140.46 106.147 140.156C105.603 139.836 104.995 139.676 104.323 139.676C103.667 139.676 103.059 139.836 102.499 140.156C101.955 140.46 101.507 140.892 101.155 141.452C100.803 141.996 100.603 142.628 100.555 143.348ZM124.164 150.5H121.524V143.468C121.524 142.3 121.332 141.444 120.948 140.9C120.58 140.356 120.028 140.084 119.292 140.084C118.78 140.084 118.268 140.212 117.756 140.468C117.26 140.724 116.812 141.076 116.412 141.524C116.012 141.956 115.724 142.46 115.548 143.036V150.5H112.908V137.948H115.308V140.468C115.628 139.908 116.044 139.428 116.556 139.028C117.084 138.612 117.676 138.292 118.332 138.068C118.988 137.844 119.684 137.732 120.42 137.732C121.172 137.732 121.788 137.868 122.268 138.14C122.764 138.412 123.148 138.788 123.42 139.268C123.708 139.732 123.9 140.276 123.996 140.9C124.108 141.508 124.164 142.156 124.164 142.844V150.5ZM134.119 149.852C133.895 149.964 133.615 150.084 133.279 150.212C132.943 150.34 132.559 150.452 132.127 150.548C131.711 150.644 131.279 150.692 130.831 150.692C130.287 150.692 129.783 150.596 129.319 150.404C128.855 150.212 128.479 149.908 128.191 149.492C127.919 149.06 127.783 148.508 127.783 147.836V139.988H126.127V137.948H127.783V133.82H130.423V137.948H133.159V139.988H130.423V146.996C130.455 147.428 130.591 147.748 130.831 147.956C131.087 148.164 131.399 148.268 131.767 148.268C132.135 148.268 132.487 148.204 132.823 148.076C133.159 147.948 133.407 147.844 133.567 147.764L134.119 149.852ZM135.035 146.828C135.035 146.028 135.259 145.332 135.707 144.74C136.171 144.132 136.803 143.668 137.603 143.348C138.403 143.012 139.331 142.844 140.387 142.844C140.947 142.844 141.515 142.884 142.091 142.964C142.683 143.044 143.203 143.172 143.651 143.348V142.556C143.651 141.676 143.387 140.988 142.859 140.492C142.331 139.996 141.571 139.748 140.579 139.748C139.875 139.748 139.211 139.876 138.587 140.132C137.963 140.372 137.299 140.716 136.595 141.164L135.707 139.388C136.539 138.828 137.371 138.412 138.203 138.14C139.051 137.868 139.939 137.732 140.867 137.732C142.547 137.732 143.867 138.18 144.827 139.076C145.803 139.956 146.291 141.212 146.291 142.844V147.524C146.291 147.828 146.339 148.044 146.435 148.172C146.547 148.3 146.731 148.372 146.987 148.388V150.5C146.747 150.548 146.531 150.58 146.339 150.596C146.147 150.612 145.987 150.62 145.859 150.62C145.299 150.62 144.875 150.484 144.587 150.212C144.299 149.94 144.131 149.62 144.083 149.252L144.011 148.532C143.467 149.236 142.771 149.78 141.923 150.164C141.075 150.548 140.219 150.74 139.355 150.74C138.523 150.74 137.779 150.572 137.123 150.236C136.467 149.884 135.955 149.412 135.587 148.82C135.219 148.228 135.035 147.564 135.035 146.828ZM143.027 147.596C143.219 147.388 143.371 147.18 143.483 146.972C143.595 146.764 143.651 146.58 143.651 146.42V144.98C143.203 144.804 142.731 144.676 142.235 144.596C141.739 144.5 141.251 144.452 140.771 144.452C139.811 144.452 139.027 144.644 138.419 145.028C137.827 145.412 137.531 145.94 137.531 146.612C137.531 146.98 137.627 147.332 137.819 147.668C138.027 148.004 138.315 148.276 138.683 148.484C139.067 148.692 139.539 148.796 140.099 148.796C140.675 148.796 141.227 148.684 141.755 148.46C142.283 148.236 142.707 147.948 143.027 147.596ZM149.518 132.98H152.158V146.876C152.158 147.516 152.254 147.924 152.446 148.1C152.638 148.276 152.878 148.364 153.166 148.364C153.486 148.364 153.782 148.332 154.054 148.268C154.342 148.204 154.59 148.124 154.798 148.028L155.182 150.116C154.798 150.276 154.342 150.412 153.814 150.524C153.286 150.636 152.814 150.692 152.398 150.692C151.502 150.692 150.798 150.444 150.286 149.948C149.774 149.436 149.518 148.732 149.518 147.836V132.98ZM69.6973 181.5V164.46H72.3853V181.5H69.6973ZM95.1004 181.5H92.4604V174.468C92.4604 173.3 92.2684 172.444 91.8844 171.9C91.5004 171.356 90.9404 171.084 90.2044 171.084C89.4684 171.084 88.7804 171.364 88.1404 171.924C87.5164 172.468 87.0764 173.18 86.8204 174.06V181.5H84.1804V174.468C84.1804 173.3 83.9884 172.444 83.6044 171.9C83.2204 171.356 82.6684 171.084 81.9484 171.084C81.2124 171.084 80.5244 171.356 79.8844 171.9C79.2604 172.444 78.8124 173.156 78.5404 174.036V181.5H75.9004V168.948H78.3004V171.468C78.7964 170.588 79.4444 169.916 80.2444 169.452C81.0604 168.972 81.9884 168.732 83.0284 168.732C84.0684 168.732 84.8844 169.004 85.4764 169.548C86.0844 170.092 86.4604 170.772 86.6044 171.588C87.1484 170.66 87.8124 169.956 88.5964 169.476C89.3964 168.98 90.3084 168.732 91.3324 168.732C92.0684 168.732 92.6844 168.868 93.1804 169.14C93.6764 169.412 94.0604 169.788 94.3324 170.268C94.6044 170.732 94.7964 171.276 94.9084 171.9C95.0364 172.508 95.1004 173.156 95.1004 173.844V181.5ZM105.271 181.74C104.263 181.74 103.375 181.5 102.607 181.02C101.839 180.54 101.231 179.916 100.783 179.148V186.612H98.1426V168.948H100.471V171.204C100.951 170.452 101.575 169.852 102.343 169.404C103.111 168.956 103.967 168.732 104.911 168.732C105.775 168.732 106.567 168.908 107.287 169.26C108.007 169.596 108.631 170.068 109.159 170.676C109.687 171.284 110.095 171.98 110.383 172.764C110.687 173.532 110.839 174.348 110.839 175.212C110.839 176.412 110.599 177.508 110.119 178.5C109.655 179.492 108.999 180.284 108.151 180.876C107.319 181.452 106.359 181.74 105.271 181.74ZM104.407 179.484C104.967 179.484 105.471 179.364 105.919 179.124C106.383 178.884 106.775 178.564 107.095 178.164C107.431 177.764 107.687 177.308 107.863 176.796C108.039 176.284 108.127 175.756 108.127 175.212C108.127 174.636 108.031 174.092 107.839 173.58C107.647 173.068 107.367 172.62 106.999 172.236C106.647 171.852 106.231 171.548 105.751 171.324C105.287 171.1 104.775 170.988 104.215 170.988C103.879 170.988 103.527 171.052 103.159 171.18C102.791 171.308 102.447 171.484 102.127 171.708C101.807 171.932 101.527 172.196 101.287 172.5C101.047 172.804 100.879 173.124 100.783 173.46V176.748C101.007 177.26 101.303 177.724 101.671 178.14C102.039 178.54 102.463 178.868 102.943 179.124C103.423 179.364 103.911 179.484 104.407 179.484ZM113.237 163.98H115.877V177.876C115.877 178.516 115.973 178.924 116.165 179.1C116.357 179.276 116.597 179.364 116.885 179.364C117.205 179.364 117.501 179.332 117.773 179.268C118.061 179.204 118.309 179.124 118.517 179.028L118.901 181.116C118.517 181.276 118.061 181.412 117.533 181.524C117.005 181.636 116.533 181.692 116.117 181.692C115.221 181.692 114.517 181.444 114.005 180.948C113.493 180.436 113.237 179.732 113.237 178.836V163.98ZM119.52 177.828C119.52 177.028 119.744 176.332 120.192 175.74C120.656 175.132 121.288 174.668 122.088 174.348C122.888 174.012 123.816 173.844 124.872 173.844C125.432 173.844 126 173.884 126.576 173.964C127.168 174.044 127.688 174.172 128.136 174.348V173.556C128.136 172.676 127.872 171.988 127.344 171.492C126.816 170.996 126.056 170.748 125.064 170.748C124.36 170.748 123.696 170.876 123.072 171.132C122.448 171.372 121.784 171.716 121.08 172.164L120.192 170.388C121.024 169.828 121.856 169.412 122.688 169.14C123.536 168.868 124.424 168.732 125.352 168.732C127.032 168.732 128.352 169.18 129.312 170.076C130.288 170.956 130.776 172.212 130.776 173.844V178.524C130.776 178.828 130.824 179.044 130.92 179.172C131.032 179.3 131.216 179.372 131.472 179.388V181.5C131.232 181.548 131.016 181.58 130.824 181.596C130.632 181.612 130.472 181.62 130.344 181.62C129.784 181.62 129.36 181.484 129.072 181.212C128.784 180.94 128.616 180.62 128.568 180.252L128.496 179.532C127.952 180.236 127.256 180.78 126.408 181.164C125.56 181.548 124.704 181.74 123.84 181.74C123.008 181.74 122.264 181.572 121.608 181.236C120.952 180.884 120.44 180.412 120.072 179.82C119.704 179.228 119.52 178.564 119.52 177.828ZM127.512 178.596C127.704 178.388 127.856 178.18 127.968 177.972C128.08 177.764 128.136 177.58 128.136 177.42V175.98C127.688 175.804 127.216 175.676 126.72 175.596C126.224 175.5 125.736 175.452 125.256 175.452C124.296 175.452 123.512 175.644 122.904 176.028C122.312 176.412 122.016 176.94 122.016 177.612C122.016 177.98 122.112 178.332 122.304 178.668C122.512 179.004 122.8 179.276 123.168 179.484C123.552 179.692 124.024 179.796 124.584 179.796C125.16 179.796 125.712 179.684 126.24 179.46C126.768 179.236 127.192 178.948 127.512 178.596ZM145.235 181.5H142.595V174.468C142.595 173.3 142.403 172.444 142.019 171.9C141.651 171.356 141.099 171.084 140.363 171.084C139.851 171.084 139.339 171.212 138.827 171.468C138.331 171.724 137.883 172.076 137.483 172.524C137.083 172.956 136.795 173.46 136.619 174.036V181.5H133.979V168.948H136.379V171.468C136.699 170.908 137.115 170.428 137.627 170.028C138.155 169.612 138.747 169.292 139.403 169.068C140.059 168.844 140.755 168.732 141.491 168.732C142.243 168.732 142.859 168.868 143.339 169.14C143.835 169.412 144.219 169.788 144.491 170.268C144.779 170.732 144.971 171.276 145.067 171.9C145.179 172.508 145.235 173.156 145.235 173.844V181.5ZM155.189 180.852C154.965 180.964 154.685 181.084 154.349 181.212C154.013 181.34 153.629 181.452 153.197 181.548C152.781 181.644 152.349 181.692 151.901 181.692C151.357 181.692 150.853 181.596 150.389 181.404C149.925 181.212 149.549 180.908 149.261 180.492C148.989 180.06 148.853 179.508 148.853 178.836V170.988H147.197V168.948H148.853V164.82H151.493V168.948H154.229V170.988H151.493V177.996C151.525 178.428 151.661 178.748 151.901 178.956C152.157 179.164 152.469 179.268 152.837 179.268C153.205 179.268 153.557 179.204 153.893 179.076C154.229 178.948 154.477 178.844 154.637 178.764L155.189 180.852ZM161.482 181.74C160.426 181.74 159.426 181.572 158.482 181.236C157.538 180.884 156.73 180.364 156.058 179.676L157.042 177.9C157.762 178.54 158.482 179.004 159.202 179.292C159.938 179.58 160.666 179.724 161.386 179.724C162.122 179.724 162.722 179.588 163.186 179.316C163.65 179.028 163.882 178.612 163.882 178.068C163.882 177.668 163.762 177.372 163.522 177.18C163.282 176.988 162.93 176.82 162.466 176.676C162.018 176.532 161.474 176.372 160.834 176.196C159.938 175.924 159.186 175.644 158.578 175.356C157.97 175.052 157.514 174.684 157.21 174.252C156.906 173.82 156.754 173.268 156.754 172.596C156.754 171.78 156.962 171.084 157.378 170.508C157.794 169.932 158.37 169.492 159.106 169.188C159.858 168.884 160.722 168.732 161.698 168.732C162.61 168.732 163.45 168.876 164.218 169.164C165.002 169.436 165.69 169.868 166.282 170.46L165.154 172.212C164.594 171.7 164.018 171.324 163.426 171.084C162.85 170.844 162.226 170.724 161.554 170.724C161.17 170.724 160.802 170.772 160.45 170.868C160.098 170.948 159.802 171.108 159.562 171.348C159.338 171.572 159.226 171.892 159.226 172.308C159.226 172.644 159.322 172.916 159.514 173.124C159.706 173.332 159.994 173.508 160.378 173.652C160.762 173.796 161.234 173.956 161.794 174.132C162.77 174.42 163.602 174.708 164.29 174.996C164.978 175.268 165.506 175.628 165.874 176.076C166.258 176.508 166.45 177.108 166.45 177.876C166.45 179.092 165.994 180.044 165.082 180.732C164.186 181.404 162.986 181.74 161.482 181.74Z" fill="#303030"/>
</svg>
