<svg width="235" height="204" viewBox="0 0 235 204" fill="none" xmlns="http://www.w3.org/2000/svg">
<rect width="235" height="204" rx="15" fill="white"/>
<path opacity="0.5" d="M99.9175 66.078H134.58C135.963 66.078 105.736 65.3937 105.393 66.078C104.38 68.1044 133.37 71.8199 132.902 74.5792C131.902 80.4502 132.413 83.5247 129.105 89.897C127.665 92.668 125.904 93.4168 124.702 93.2846C123.502 93.1587 128.534 94.1393 128.534 92.3001L131.782 85.4254L132.353 78.5508C132.353 76.6523 134.285 73.9617 133.402 72.7338C132.518 71.5122 123.053 68.6431 121.338 68.6431C119.621 68.6431 115.878 67.4204 114.994 68.6431C114.112 69.872 111.966 82.3962 111.966 84.2947L111.333 89.897C111.333 91.7362 114.626 80.0114 113.421 80.1372C112.224 80.2695 116.428 71.4141 114.994 68.6431C111.68 62.2708 115.315 74.903 114.32 69.0321C113.851 66.2727 120.559 68.0864 119.507 66.078C118.823 64.7718 99.006 66.078 99.9175 66.078ZM111.966 63.8812L126.994 64.4323C127.788 64.4323 130.004 64.2842 130.234 64.4323C130.46 64.5814 128.387 59.3207 128.534 59.7501L129.932 63.8812H104.569L107.013 63.9035C107.927 64.1458 108.942 64.5814 109.173 64.4323C109.403 64.2842 111.172 63.8812 111.966 63.8812ZM107.927 56.5C106.864 56.5 105.965 56.6861 105.244 57.1536C104.524 57.6222 104.085 58.3392 103.838 59.0605L102.206 63.8812H99.9175C98.5837 63.8812 97.3794 64.6036 96.9582 65.6877C96.5423 66.7792 96.7843 67.9849 97.4312 69.1314C98.4443 70.9325 98.939 72.3265 99.3829 74.9431C100.341 80.5612 99.9078 84.1794 103.395 90.9007C105.11 94.2005 107.687 95.7267 110.044 95.4729C112.402 95.2201 114.207 93.1143 114.207 90.4004V84.2957C114.207 82.649 114.522 81.493 114.994 80.8362C115.467 80.1805 116.059 79.8685 117.251 79.8685C118.449 79.8685 119.033 80.1805 119.507 80.8362C119.979 81.493 120.299 82.649 120.299 84.2957V90.4004C120.299 93.1143 122.1 95.2211 124.458 95.4729C126.82 95.7267 129.396 94.2005 131.106 90.9007C134.6 84.1794 134.166 80.5612 135.117 74.9431C135.562 72.3254 136.055 70.9325 137.074 69.1314C137.722 67.9849 137.964 66.7792 137.542 65.6877C137.12 64.6036 135.922 63.8812 134.583 63.8812H132.299L130.661 59.0605C130.418 58.3392 129.97 57.6222 129.25 57.1536C128.529 56.6861 127.635 56.5 126.571 56.5H107.927Z" fill="#FFE5B3"/>
<path d="M100.021 65.8415H138.527C140.064 65.8415 139.488 67.3233 139.107 68.0995C137.982 70.3983 137.183 72.3552 136.663 75.4855C135.552 82.1456 136.12 85.6335 132.445 92.8623C130.846 96.0058 128.889 96.8552 127.553 96.7052C126.22 96.5625 125.148 95.5186 125.148 93.4322V86.5069C125.148 84.3533 124.797 82.5392 123.817 81.1462C122.834 79.7604 121.179 78.9829 119.273 78.9829C117.366 78.9829 115.711 79.7592 114.73 81.1462C113.75 82.5404 113.405 84.3533 113.405 86.5069V93.4322C113.405 95.5186 112.33 96.5625 110.992 96.7052C109.662 96.8552 107.698 96.0058 106.104 92.8623C102.423 85.6335 102.993 82.1456 101.888 75.4855C101.368 72.3552 100.613 70.378 99.4443 68.0995C98.6848 66.6178 99.0088 65.8415 100.021 65.8415ZM108.919 57.4753H129.628C130.51 57.4753 130.979 57.6324 131.234 57.8004C131.485 57.9696 131.647 58.176 131.81 58.6631L133.364 63.3495H105.189L106.746 58.6631C106.901 58.176 107.064 57.9696 107.321 57.8004C107.577 57.6324 108.037 57.4753 108.919 57.4753ZM108.919 54.9761C107.739 54.9761 106.739 55.1872 105.939 55.7176C105.139 56.2491 104.651 57.0625 104.377 57.8808L102.564 63.3495H100.021C98.5396 63.3495 97.2019 64.169 96.7339 65.3988C96.272 66.637 96.5408 68.0047 97.2594 69.3053C98.3849 71.3486 98.9344 72.9299 99.4275 75.8982C100.492 82.2716 100.011 86.3761 103.885 94.0009C105.79 97.7443 108.653 99.4756 111.271 99.1876C113.89 98.9009 115.895 96.5121 115.895 93.4334V86.5081C115.895 84.64 116.245 83.3286 116.769 82.5836C117.295 81.8397 117.952 81.4857 119.277 81.4857C120.608 81.4857 121.257 81.8397 121.782 82.5836C122.307 83.3286 122.663 84.64 122.663 86.5081V93.4334C122.663 96.5121 124.663 98.9021 127.282 99.1876C129.906 99.4756 132.768 97.7443 134.668 94.0009C138.549 86.3761 138.067 82.2716 139.123 75.8982C139.617 72.9287 140.166 71.3486 141.297 69.3053C142.017 68.0047 142.286 66.637 141.818 65.3988C141.349 64.169 140.018 63.3495 138.53 63.3495H135.993L134.174 57.8808C133.904 57.0625 133.406 56.2491 132.606 55.7176C131.805 55.1872 130.812 54.9761 129.63 54.9761H108.919Z" fill="#4D2C19"/>
<path opacity="0.5" d="M101.774 48.3034C104.99 48.3034 110.081 47.6066 112.296 48.9375C115.926 51.1066 123.057 48.5178 125.668 48.9375C127.103 49.1521 138.384 48.1104 136.95 47.8958C135.414 47.6654 139.642 39.51 138.505 39.0417C139.773 38.7119 120.89 29.314 121.765 28.9841C121.765 31.75 123.694 35.9167 126.203 35.9167C129.605 35.9167 128.192 35.0526 129.947 38.5208C131.703 41.9891 137.556 41.3686 136.366 45.8125C136.024 47.0947 135.424 48.3034 133.347 48.3034L99.9936 47.8958C97.9125 47.8958 96.8972 47.2294 96.555 45.9471C95.3658 41.5021 96.4249 47.8958 96.7843 47.8958C97.1437 47.8958 98.3678 48.3034 101.774 48.3034ZM105.672 25.5C101.325 25.5 97.7881 28.3901 95.7675 32.3816C93.7469 36.3784 93.121 41.5434 94.4573 46.5254C95.0665 48.7981 97.279 50.5 100.157 50.5H133.347C136.223 50.5 138.434 48.7991 139.042 46.5254C140.378 41.5434 139.76 36.3784 137.734 32.3816C135.712 28.3901 132.176 25.5 127.833 25.5C124.987 25.5 122.916 26.1987 121.004 26.9302C119.25 27.5972 117.516 28.2199 115.293 28.5666C114.957 28.3732 114.456 28.296 114.12 28.0994C111.834 26.7939 109.366 25.5 105.672 25.5Z" fill="#FFE5B3"/>
<path d="M106.275 26.3089C109.882 26.3089 112.071 27.4461 114.555 28.979C118.626 31.4774 121.376 32.4284 124.304 32.9117C125.914 33.1589 126.266 30.6532 124.659 30.406C122.935 30.1406 121.558 29.7656 120.283 29.2262C121.704 28.8463 123.342 28.1742 124.324 27.7943C126.415 26.97 128.316 26.3089 131.13 26.3089C134.945 26.3089 138.101 28.867 140.069 32.8618C142.038 36.8566 142.69 42.2139 141.355 47.3325C140.971 48.8094 139.643 50.0464 137.314 50.0464H100.089C97.7553 50.0464 96.4333 48.8094 96.0495 47.3325C94.7158 42.2127 95.3674 36.8566 97.3341 32.8618C99.3032 28.867 102.455 26.3089 106.275 26.3089ZM106.275 23.7812C101.4 23.7812 97.4324 27.1101 95.1662 31.7076C92.9 36.3112 92.198 42.2602 93.6967 47.9985C94.38 50.6163 96.8615 52.5765 100.089 52.5765H137.314C140.54 52.5765 143.019 50.6175 143.701 47.9985C145.199 42.2602 144.506 36.3112 142.234 31.7076C139.966 27.1101 136 23.7812 131.13 23.7812C127.938 23.7812 125.614 24.5861 123.47 25.4286C121.503 26.1969 119.559 26.914 117.065 27.3134C116.689 27.0906 116.126 27.0017 115.749 26.7752C113.186 25.2715 110.418 23.7812 106.275 23.7812Z" fill="#4D2C19"/>
<path d="M17.34 157.579C17.34 156.539 17.524 155.523 17.892 154.531C18.26 153.523 18.796 152.611 19.5 151.795C20.22 150.963 21.092 150.307 22.116 149.827C23.14 149.331 24.3 149.083 25.596 149.083C27.132 149.083 28.46 149.435 29.58 150.139C30.7 150.827 31.532 151.715 32.076 152.803L29.964 154.219C29.644 153.531 29.236 152.987 28.74 152.587C28.26 152.187 27.732 151.907 27.156 151.747C26.596 151.587 26.044 151.507 25.5 151.507C24.604 151.507 23.82 151.691 23.148 152.059C22.476 152.411 21.908 152.883 21.444 153.475C20.996 154.067 20.652 154.731 20.412 155.467C20.188 156.203 20.076 156.939 20.076 157.675C20.076 158.491 20.212 159.283 20.484 160.051C20.756 160.803 21.132 161.475 21.612 162.067C22.108 162.643 22.692 163.099 23.364 163.435C24.036 163.771 24.772 163.939 25.572 163.939C26.116 163.939 26.684 163.843 27.276 163.651C27.868 163.459 28.412 163.163 28.908 162.763C29.42 162.347 29.82 161.803 30.108 161.131L32.34 162.403C31.988 163.251 31.436 163.971 30.684 164.563C29.948 165.155 29.116 165.603 28.188 165.907C27.276 166.211 26.372 166.363 25.476 166.363C24.276 166.363 23.18 166.115 22.188 165.619C21.196 165.107 20.34 164.435 19.62 163.603C18.9 162.755 18.34 161.811 17.94 160.771C17.54 159.715 17.34 158.651 17.34 157.579ZM41.5463 155.947C40.5223 155.963 39.6103 156.195 38.8103 156.643C38.0263 157.091 37.4663 157.723 37.1303 158.539V166.219H34.4902V153.667H36.9383V156.475C37.3703 155.611 37.9383 154.923 38.6423 154.411C39.3463 153.883 40.0903 153.595 40.8743 153.547C41.0343 153.547 41.1623 153.547 41.2583 153.547C41.3703 153.547 41.4663 153.555 41.5463 153.571V155.947ZM48.8724 166.459C47.8804 166.459 46.9924 166.291 46.2084 165.955C45.4244 165.603 44.7444 165.123 44.1684 164.515C43.6084 163.907 43.1764 163.219 42.8724 162.451C42.5684 161.667 42.4164 160.835 42.4164 159.955C42.4164 159.075 42.5684 158.243 42.8724 157.459C43.1764 156.675 43.6084 155.987 44.1684 155.395C44.7444 154.787 45.4244 154.315 46.2084 153.979C47.0084 153.627 47.8964 153.451 48.8724 153.451C49.8484 153.451 50.7284 153.627 51.5124 153.979C52.3124 154.315 52.9924 154.787 53.5524 155.395C54.1284 155.987 54.5684 156.675 54.8724 157.459C55.1764 158.243 55.3284 159.075 55.3284 159.955C55.3284 160.835 55.1764 161.667 54.8724 162.451C54.5684 163.219 54.1284 163.907 53.5524 164.515C52.9924 165.123 52.3124 165.603 51.5124 165.955C50.7284 166.291 49.8484 166.459 48.8724 166.459ZM45.1284 159.979C45.1284 160.779 45.2964 161.499 45.6324 162.139C45.9684 162.779 46.4164 163.283 46.9764 163.651C47.5364 164.019 48.1684 164.203 48.8724 164.203C49.5604 164.203 50.1844 164.019 50.7444 163.651C51.3204 163.267 51.7764 162.755 52.1124 162.115C52.4484 161.459 52.6164 160.739 52.6164 159.955C52.6164 159.155 52.4484 158.435 52.1124 157.795C51.7764 157.155 51.3204 156.651 50.7444 156.283C50.1844 155.899 49.5604 155.707 48.8724 155.707C48.1684 155.707 47.5364 155.899 46.9764 156.283C46.4164 156.667 45.9684 157.179 45.6324 157.819C45.2964 158.443 45.1284 159.163 45.1284 159.979ZM72.8961 153.667H75.4161L70.1361 166.219H67.8801L65.6241 160.555L63.3681 166.219H61.1121L55.8081 153.667H58.3281L62.3601 163.651L64.1361 159.019L61.9761 153.691H64.2081L65.6241 157.603L67.0161 153.691H69.2481L67.1121 159.019L68.8881 163.651L72.8961 153.667ZM88.4259 166.219H85.7859V159.187C85.7859 158.019 85.5939 157.163 85.2099 156.619C84.8419 156.075 84.2899 155.803 83.5539 155.803C83.0419 155.803 82.5299 155.931 82.0179 156.187C81.5219 156.443 81.0739 156.795 80.6739 157.243C80.2739 157.675 79.9859 158.179 79.8099 158.755V166.219H77.1699V153.667H79.5699V156.187C79.8899 155.627 80.3059 155.147 80.8179 154.747C81.3459 154.331 81.9379 154.011 82.5939 153.787C83.2499 153.563 83.9459 153.451 84.6819 153.451C85.4339 153.451 86.0499 153.587 86.5299 153.859C87.0259 154.131 87.4099 154.507 87.6819 154.987C87.9699 155.451 88.1619 155.995 88.2579 156.619C88.3699 157.227 88.4259 157.875 88.4259 158.563V166.219ZM95.9543 166.459C94.8983 166.459 93.8983 166.291 92.9543 165.955C92.0103 165.603 91.2023 165.083 90.5303 164.395L91.5143 162.619C92.2343 163.259 92.9543 163.723 93.6743 164.011C94.4103 164.299 95.1383 164.443 95.8583 164.443C96.5943 164.443 97.1943 164.307 97.6583 164.035C98.1223 163.747 98.3543 163.331 98.3543 162.787C98.3543 162.387 98.2343 162.091 97.9943 161.899C97.7543 161.707 97.4023 161.539 96.9383 161.395C96.4903 161.251 95.9463 161.091 95.3063 160.915C94.4103 160.643 93.6583 160.363 93.0503 160.075C92.4423 159.771 91.9863 159.403 91.6823 158.971C91.3783 158.539 91.2263 157.987 91.2263 157.315C91.2263 156.499 91.4343 155.803 91.8503 155.227C92.2663 154.651 92.8423 154.211 93.5783 153.907C94.3303 153.603 95.1943 153.451 96.1703 153.451C97.0823 153.451 97.9223 153.595 98.6903 153.883C99.4743 154.155 100.162 154.587 100.754 155.179L99.6263 156.931C99.0663 156.419 98.4903 156.043 97.8983 155.803C97.3223 155.563 96.6983 155.443 96.0263 155.443C95.6423 155.443 95.2743 155.491 94.9223 155.587C94.5703 155.667 94.2743 155.827 94.0343 156.067C93.8103 156.291 93.6983 156.611 93.6983 157.027C93.6983 157.363 93.7943 157.635 93.9863 157.843C94.1783 158.051 94.4663 158.227 94.8503 158.371C95.2343 158.515 95.7063 158.675 96.2663 158.851C97.2423 159.139 98.0743 159.427 98.7623 159.715C99.4503 159.987 99.9783 160.347 100.346 160.795C100.73 161.227 100.922 161.827 100.922 162.595C100.922 163.811 100.466 164.763 99.5543 165.451C98.6583 166.123 97.4583 166.459 95.9543 166.459ZM120.777 166.219L112.593 157.555C111.905 156.819 111.361 156.195 110.961 155.683C110.561 155.171 110.273 154.699 110.097 154.267C109.921 153.835 109.833 153.387 109.833 152.923C109.833 152.139 110.025 151.451 110.409 150.859C110.809 150.267 111.353 149.803 112.041 149.467C112.729 149.131 113.497 148.963 114.345 148.963C115.129 148.963 115.849 149.107 116.505 149.395C117.161 149.667 117.689 150.075 118.089 150.619C118.489 151.147 118.689 151.803 118.689 152.587C118.689 153.323 118.497 153.987 118.113 154.579C117.729 155.171 117.217 155.715 116.577 156.211C115.937 156.707 115.225 157.195 114.441 157.675C113.833 158.075 113.281 158.475 112.785 158.875C112.289 159.259 111.897 159.675 111.609 160.123C111.337 160.555 111.201 161.043 111.201 161.587C111.201 162.131 111.353 162.619 111.657 163.051C111.961 163.467 112.369 163.795 112.881 164.035C113.393 164.259 113.953 164.371 114.561 164.371C115.313 164.371 116.025 164.195 116.697 163.843C117.369 163.491 117.969 162.995 118.497 162.355C119.025 161.699 119.433 160.931 119.721 160.051C120.025 159.171 120.177 158.211 120.177 157.171H122.337C122.337 158.579 122.113 159.851 121.665 160.987C121.233 162.123 120.641 163.099 119.889 163.915C119.153 164.731 118.297 165.363 117.321 165.811C116.361 166.243 115.345 166.459 114.273 166.459C113.169 166.459 112.193 166.243 111.345 165.811C110.497 165.363 109.833 164.771 109.353 164.035C108.889 163.299 108.657 162.475 108.657 161.563C108.657 160.667 108.857 159.891 109.257 159.235C109.673 158.563 110.201 157.971 110.841 157.459C111.497 156.931 112.153 156.459 112.809 156.043C113.513 155.595 114.121 155.203 114.633 154.867C115.145 154.515 115.545 154.163 115.833 153.811C116.121 153.443 116.265 153.051 116.265 152.635C116.265 152.123 116.081 151.715 115.713 151.411C115.361 151.091 114.905 150.931 114.345 150.931C113.929 150.931 113.561 151.019 113.241 151.195C112.937 151.371 112.697 151.603 112.521 151.891C112.345 152.179 112.257 152.499 112.257 152.851C112.257 153.091 112.321 153.339 112.449 153.595C112.577 153.835 112.817 154.155 113.169 154.555C113.521 154.939 114.009 155.467 114.633 156.139L124.257 166.219H120.777ZM145.578 161.827C145.578 162.739 145.338 163.523 144.858 164.179C144.394 164.835 143.762 165.339 142.962 165.691C142.162 166.043 141.282 166.219 140.322 166.219H132.186V149.179H140.97C141.77 149.179 142.458 149.395 143.034 149.827C143.626 150.243 144.074 150.787 144.378 151.459C144.698 152.115 144.858 152.803 144.858 153.523C144.858 154.355 144.642 155.139 144.21 155.875C143.794 156.595 143.194 157.131 142.41 157.483C143.386 157.771 144.154 158.299 144.714 159.067C145.29 159.819 145.578 160.739 145.578 161.827ZM142.818 161.323C142.818 160.843 142.714 160.411 142.506 160.027C142.314 159.627 142.042 159.307 141.69 159.067C141.354 158.811 140.954 158.683 140.49 158.683H134.874V163.891H140.322C140.802 163.891 141.226 163.779 141.594 163.555C141.978 163.315 142.274 163.003 142.482 162.619C142.706 162.219 142.818 161.787 142.818 161.323ZM134.874 151.507V156.523H139.818C140.266 156.523 140.666 156.419 141.018 156.211C141.37 155.987 141.65 155.691 141.858 155.323C142.066 154.939 142.17 154.507 142.17 154.027C142.17 153.531 142.074 153.099 141.882 152.731C141.69 152.347 141.426 152.051 141.09 151.843C140.77 151.619 140.394 151.507 139.962 151.507H134.874ZM155.101 155.947C154.077 155.963 153.165 156.195 152.365 156.643C151.581 157.091 151.021 157.723 150.685 158.539V166.219H148.045V153.667H150.493V156.475C150.925 155.611 151.493 154.923 152.197 154.411C152.901 153.883 153.645 153.595 154.429 153.547C154.589 153.547 154.717 153.547 154.813 153.547C154.925 153.547 155.021 153.555 155.101 153.571V155.947ZM157.021 166.219V153.667H159.662V166.219H157.021ZM157.021 151.603V148.699H159.662V151.603H157.021ZM162.042 159.955C162.042 158.755 162.282 157.667 162.762 156.691C163.258 155.699 163.93 154.915 164.778 154.339C165.626 153.747 166.602 153.451 167.706 153.451C168.666 153.451 169.53 153.699 170.298 154.195C171.082 154.691 171.69 155.307 172.122 156.043V148.699H174.762V163.243C174.762 163.547 174.818 163.763 174.93 163.891C175.042 164.019 175.226 164.091 175.482 164.107V166.219C174.986 166.299 174.602 166.339 174.33 166.339C173.834 166.339 173.41 166.195 173.058 165.907C172.722 165.619 172.546 165.275 172.53 164.875L172.506 163.939C172.026 164.739 171.378 165.363 170.562 165.811C169.746 166.243 168.898 166.459 168.018 166.459C167.154 166.459 166.354 166.291 165.618 165.955C164.898 165.619 164.266 165.147 163.722 164.539C163.194 163.931 162.778 163.235 162.474 162.451C162.186 161.667 162.042 160.835 162.042 159.955ZM172.122 161.707V158.419C171.946 157.907 171.658 157.451 171.258 157.051C170.874 156.635 170.434 156.307 169.938 156.067C169.458 155.827 168.978 155.707 168.498 155.707C167.938 155.707 167.426 155.827 166.962 156.067C166.514 156.307 166.122 156.627 165.786 157.027C165.466 157.427 165.218 157.883 165.042 158.395C164.866 158.907 164.778 159.443 164.778 160.003C164.778 160.579 164.874 161.123 165.066 161.635C165.258 162.131 165.53 162.579 165.882 162.979C166.25 163.363 166.666 163.667 167.13 163.891C167.61 164.099 168.13 164.203 168.69 164.203C169.042 164.203 169.394 164.139 169.746 164.011C170.114 163.883 170.458 163.707 170.778 163.483C171.114 163.259 171.394 162.995 171.618 162.691C171.858 162.387 172.026 162.059 172.122 161.707ZM183.083 166.339C182.235 166.339 181.459 166.171 180.755 165.835C180.051 165.483 179.443 165.011 178.931 164.419C178.435 163.827 178.043 163.147 177.755 162.379C177.483 161.611 177.347 160.803 177.347 159.955C177.347 159.059 177.491 158.219 177.779 157.435C178.067 156.651 178.467 155.963 178.979 155.371C179.507 154.763 180.123 154.291 180.827 153.955C181.531 153.619 182.315 153.451 183.179 153.451C184.187 153.451 185.067 153.691 185.819 154.171C186.587 154.651 187.219 155.275 187.715 156.043V153.667H190.043V165.859C190.043 167.075 189.747 168.107 189.155 168.955C188.579 169.803 187.787 170.451 186.779 170.899C185.771 171.347 184.635 171.571 183.371 171.571C181.979 171.571 180.827 171.331 179.915 170.851C179.003 170.371 178.227 169.715 177.587 168.883L179.075 167.491C179.555 168.163 180.171 168.675 180.923 169.027C181.691 169.379 182.507 169.555 183.371 169.555C184.091 169.555 184.755 169.419 185.363 169.147C185.987 168.891 186.483 168.483 186.851 167.923C187.219 167.379 187.403 166.691 187.403 165.859V163.939C186.955 164.691 186.339 165.283 185.555 165.715C184.771 166.131 183.947 166.339 183.083 166.339ZM183.947 164.203C184.347 164.203 184.731 164.139 185.099 164.011C185.467 163.867 185.803 163.683 186.107 163.459C186.427 163.219 186.699 162.955 186.923 162.667C187.147 162.363 187.307 162.043 187.403 161.707V158.419C187.195 157.875 186.899 157.403 186.515 157.003C186.131 156.587 185.699 156.267 185.219 156.043C184.739 155.819 184.251 155.707 183.755 155.707C183.179 155.707 182.659 155.835 182.195 156.091C181.747 156.331 181.363 156.659 181.043 157.075C180.723 157.475 180.475 157.931 180.299 158.443C180.123 158.955 180.035 159.483 180.035 160.027C180.035 160.603 180.131 161.139 180.323 161.635C180.531 162.131 180.811 162.579 181.163 162.979C181.515 163.363 181.931 163.667 182.411 163.891C182.891 164.099 183.403 164.203 183.947 164.203ZM198.897 166.459C197.921 166.459 197.033 166.291 196.233 165.955C195.449 165.603 194.769 165.131 194.193 164.539C193.617 163.931 193.169 163.243 192.849 162.475C192.545 161.691 192.393 160.859 192.393 159.979C192.393 158.795 192.665 157.715 193.209 156.739C193.753 155.747 194.513 154.955 195.489 154.363C196.465 153.755 197.609 153.451 198.921 153.451C200.233 153.451 201.361 153.755 202.305 154.363C203.265 154.955 204.009 155.739 204.537 156.715C205.065 157.691 205.329 158.739 205.329 159.859C205.329 160.051 205.321 160.235 205.305 160.411C205.289 160.571 205.273 160.707 205.257 160.819H195.201C195.249 161.555 195.449 162.203 195.801 162.763C196.169 163.307 196.633 163.739 197.193 164.059C197.753 164.363 198.353 164.515 198.993 164.515C199.697 164.515 200.361 164.339 200.985 163.987C201.625 163.635 202.057 163.171 202.281 162.595L204.537 163.243C204.265 163.851 203.849 164.403 203.289 164.899C202.745 165.379 202.097 165.763 201.345 166.051C200.593 166.323 199.777 166.459 198.897 166.459ZM195.129 159.067H202.713C202.665 158.347 202.457 157.715 202.089 157.171C201.737 156.611 201.281 156.179 200.721 155.875C200.177 155.555 199.569 155.395 198.897 155.395C198.241 155.395 197.633 155.555 197.073 155.875C196.529 156.179 196.081 156.611 195.729 157.171C195.377 157.715 195.177 158.347 195.129 159.067ZM211.946 166.459C210.89 166.459 209.89 166.291 208.946 165.955C208.002 165.603 207.194 165.083 206.522 164.395L207.506 162.619C208.226 163.259 208.946 163.723 209.666 164.011C210.402 164.299 211.13 164.443 211.85 164.443C212.586 164.443 213.186 164.307 213.65 164.035C214.114 163.747 214.346 163.331 214.346 162.787C214.346 162.387 214.226 162.091 213.986 161.899C213.746 161.707 213.394 161.539 212.93 161.395C212.482 161.251 211.938 161.091 211.298 160.915C210.402 160.643 209.65 160.363 209.042 160.075C208.434 159.771 207.978 159.403 207.674 158.971C207.37 158.539 207.218 157.987 207.218 157.315C207.218 156.499 207.426 155.803 207.842 155.227C208.258 154.651 208.834 154.211 209.57 153.907C210.322 153.603 211.186 153.451 212.162 153.451C213.074 153.451 213.914 153.595 214.682 153.883C215.466 154.155 216.154 154.587 216.746 155.179L215.618 156.931C215.058 156.419 214.482 156.043 213.89 155.803C213.314 155.563 212.69 155.443 212.018 155.443C211.634 155.443 211.266 155.491 210.914 155.587C210.562 155.667 210.266 155.827 210.026 156.067C209.802 156.291 209.69 156.611 209.69 157.027C209.69 157.363 209.786 157.635 209.978 157.843C210.17 158.051 210.458 158.227 210.842 158.371C211.226 158.515 211.698 158.675 212.258 158.851C213.234 159.139 214.066 159.427 214.754 159.715C215.442 159.987 215.97 160.347 216.338 160.795C216.722 161.227 216.914 161.827 216.914 162.595C216.914 163.811 216.458 164.763 215.546 165.451C214.65 166.123 213.45 166.459 211.946 166.459Z" fill="#303030"/>
</svg>
