<svg width="235" height="204" viewBox="0 0 235 204" fill="none" xmlns="http://www.w3.org/2000/svg">
<rect width="235" height="204" rx="15" fill="white"/>
<path opacity="0.5" d="M147.804 37.2594L143.911 41.9613L134.678 44.4944L129.859 39.8568C129.496 39.5076 129.235 39.0671 129.102 38.5816C128.969 38.0962 128.969 37.5839 129.103 37.0988L131.246 29.4783L135.969 25.6064" fill="#F3EBD9"/>
<path opacity="0.5" d="M144.59 35.653L140.697 40.3549L131.465 42.8879L126.645 38.2503C126.282 37.9012 126.021 37.4606 125.888 36.9752C125.755 36.4898 125.756 35.9775 125.89 35.4924L128.032 27.8719L132.755 24" fill="#FFE5B3"/>
<path opacity="0.5" d="M146.631 88.8249C146.631 91.5235 145.559 94.1116 143.651 96.0197C141.743 97.9279 139.155 98.9999 136.456 98.9999H97.3631C95.0912 98.9981 92.8852 98.236 91.0966 96.835C89.3081 95.434 88.0398 93.4748 87.494 91.2694C86.9482 89.064 87.1562 86.7393 88.0849 84.6658C89.0136 82.5923 90.6095 80.8893 92.6184 79.8281C92.7576 80.4922 92.9022 81.1723 93.0522 81.8631C93.1646 82.3987 93.2824 82.9342 93.4003 83.4697H141.008C141.105 82.9663 141.196 82.4576 141.287 81.9542C141.399 81.3223 141.512 80.6903 141.619 80.0584C143.145 80.957 144.41 82.2385 145.289 83.776C146.169 85.3135 146.631 87.0538 146.631 88.8249Z" fill="#F3EBD9"/>
<path opacity="0.5" d="M147.166 86.6134C147.166 88.477 146.026 90.1747 144.183 91.3957C142.028 92.7364 139.53 93.4246 136.991 93.3771H97.8981C92.2805 93.3771 87.7231 90.346 87.7231 86.6134C87.7231 84.7498 88.8638 83.0522 90.706 81.8312C91.4687 81.331 92.2908 80.928 93.1534 80.6316C93.2926 81.0707 93.4372 81.5259 93.5871 81.9865L93.9352 83.0575H141.543C141.64 82.7255 141.731 82.3828 141.822 82.0507C141.934 81.6277 142.047 81.21 142.154 80.7923C145.153 81.9597 147.166 84.1339 147.166 86.6134Z" fill="#FFE5B3"/>
<path opacity="0.5" d="M139.403 80.5833C139.301 81.167 139.194 81.7508 139.087 82.3345C139.001 82.8004 138.916 83.2717 138.825 83.7376H93.8031C93.6959 83.2342 93.5835 82.7361 93.4764 82.2541C93.3318 81.6115 93.1979 80.9849 93.064 80.3691C91.0826 70.9653 90.4668 64.6569 94.4564 61.3795C97.616 58.7715 103.11 58.5412 106.972 59.8425C111.968 61.5348 112.648 65.2299 116.359 65.1977C120.071 65.1656 120.435 61.5937 125.742 59.8425C128.896 58.8036 133.651 58.5679 136.699 60.6136C141.47 63.8161 140.908 71.9025 139.403 80.5833Z" fill="#FFE5B3"/>
<path d="M142.15 79.5231C142.043 80.155 141.931 80.7869 141.818 81.4188C141.727 81.9222 141.636 82.4309 141.54 82.9343H93.9369C93.8191 82.3988 93.7013 81.8633 93.5888 81.3278C93.4389 80.6369 93.2943 79.9568 93.155 79.2927C91.0558 69.1178 90.4078 62.306 94.6277 58.7608C97.9694 55.944 103.78 55.6923 107.861 57.1007C113.146 58.9268 113.864 62.9272 117.789 62.895C121.715 62.8629 122.1 59.0018 127.712 57.1007C131.043 55.9761 136.077 55.7244 139.296 57.9308C144.346 61.3956 143.746 70.1407 142.15 79.5231Z" stroke="#4D2C19" stroke-width="2.67762" stroke-miterlimit="10"/>
<path d="M114.067 61.3262C118.113 64.3343 123.099 65.8019 128.13 65.4658" stroke="#4D2C19" stroke-width="2.67762" stroke-miterlimit="10" stroke-linecap="round"/>
<path d="M147.167 88.2895C147.167 90.9881 146.096 93.5762 144.187 95.4843C142.279 97.3925 139.691 98.4645 136.993 98.4645H97.8993C95.6273 98.4627 93.4213 97.7006 91.6328 96.2996C89.8442 94.8986 88.576 92.9394 88.0302 90.734C87.4844 88.5286 87.6924 86.2039 88.6211 84.1304C89.5497 82.0569 91.1457 80.3539 93.1545 79.2927C93.2938 79.9568 93.4384 80.6369 93.5883 81.3277C93.7008 81.8633 93.8186 82.3988 93.9364 82.9343H141.544C141.641 82.4309 141.732 81.9222 141.823 81.4188C141.935 80.7869 142.048 80.1549 142.155 79.523C143.681 80.4216 144.946 81.7031 145.826 83.2406C146.705 84.7781 147.167 86.5184 147.167 88.2895Z" stroke="#4D2C19" stroke-width="2.67762" stroke-miterlimit="10" stroke-linecap="round"/>
<path d="M144.056 36.724L140.163 41.4259L130.925 43.959L124.895 38.17L127.466 28.9429L132.189 25.071" stroke="#4D2C19" stroke-width="2.67762" stroke-miterlimit="10" stroke-linecap="round"/>
<path d="M127.465 28.9429L140.162 41.4259" stroke="#4D2C19" stroke-width="2.67762" stroke-miterlimit="10" stroke-linecap="round"/>
<path d="M124.889 40.8262L128.161 44.0982" stroke="#4D2C19" stroke-width="2.67762" stroke-miterlimit="10" stroke-linecap="round"/>
<path d="M33.9669 150.5V133.46H36.6549V148.124H45.7989V150.5H33.9669ZM46.7345 146.828C46.7345 146.028 46.9585 145.332 47.4065 144.74C47.8705 144.132 48.5025 143.668 49.3025 143.348C50.1025 143.012 51.0305 142.844 52.0865 142.844C52.6465 142.844 53.2145 142.884 53.7905 142.964C54.3825 143.044 54.9025 143.172 55.3505 143.348V142.556C55.3505 141.676 55.0865 140.988 54.5585 140.492C54.0305 139.996 53.2705 139.748 52.2785 139.748C51.5745 139.748 50.9105 139.876 50.2865 140.132C49.6625 140.372 48.9985 140.716 48.2945 141.164L47.4065 139.388C48.2385 138.828 49.0705 138.412 49.9025 138.14C50.7505 137.868 51.6385 137.732 52.5665 137.732C54.2465 137.732 55.5665 138.18 56.5265 139.076C57.5025 139.956 57.9905 141.212 57.9905 142.844V147.524C57.9905 147.828 58.0385 148.044 58.1345 148.172C58.2465 148.3 58.4305 148.372 58.6865 148.388V150.5C58.4465 150.548 58.2305 150.58 58.0385 150.596C57.8465 150.612 57.6865 150.62 57.5585 150.62C56.9985 150.62 56.5745 150.484 56.2865 150.212C55.9985 149.94 55.8305 149.62 55.7825 149.252L55.7105 148.532C55.1665 149.236 54.4705 149.78 53.6225 150.164C52.7745 150.548 51.9185 150.74 51.0545 150.74C50.2225 150.74 49.4785 150.572 48.8225 150.236C48.1665 149.884 47.6545 149.412 47.2865 148.82C46.9185 148.228 46.7345 147.564 46.7345 146.828ZM54.7265 147.596C54.9185 147.388 55.0705 147.18 55.1825 146.972C55.2945 146.764 55.3505 146.58 55.3505 146.42V144.98C54.9025 144.804 54.4305 144.676 53.9345 144.596C53.4385 144.5 52.9505 144.452 52.4705 144.452C51.5105 144.452 50.7265 144.644 50.1185 145.028C49.5265 145.412 49.2305 145.94 49.2305 146.612C49.2305 146.98 49.3265 147.332 49.5185 147.668C49.7265 148.004 50.0145 148.276 50.3825 148.484C50.7665 148.692 51.2385 148.796 51.7985 148.796C52.3745 148.796 52.9265 148.684 53.4545 148.46C53.9825 148.236 54.4065 147.948 54.7265 147.596ZM65.6574 150.74C64.6014 150.74 63.6014 150.572 62.6574 150.236C61.7134 149.884 60.9054 149.364 60.2334 148.676L61.2174 146.9C61.9374 147.54 62.6574 148.004 63.3774 148.292C64.1134 148.58 64.8414 148.724 65.5614 148.724C66.2974 148.724 66.8974 148.588 67.3614 148.316C67.8254 148.028 68.0574 147.612 68.0574 147.068C68.0574 146.668 67.9374 146.372 67.6974 146.18C67.4574 145.988 67.1054 145.82 66.6414 145.676C66.1934 145.532 65.6494 145.372 65.0094 145.196C64.1134 144.924 63.3614 144.644 62.7534 144.356C62.1454 144.052 61.6894 143.684 61.3854 143.252C61.0814 142.82 60.9294 142.268 60.9294 141.596C60.9294 140.78 61.1374 140.084 61.5534 139.508C61.9694 138.932 62.5454 138.492 63.2814 138.188C64.0334 137.884 64.8974 137.732 65.8734 137.732C66.7854 137.732 67.6254 137.876 68.3934 138.164C69.1774 138.436 69.8654 138.868 70.4574 139.46L69.3294 141.212C68.7694 140.7 68.1934 140.324 67.6014 140.084C67.0254 139.844 66.4014 139.724 65.7294 139.724C65.3454 139.724 64.9774 139.772 64.6254 139.868C64.2734 139.948 63.9774 140.108 63.7374 140.348C63.5134 140.572 63.4014 140.892 63.4014 141.308C63.4014 141.644 63.4974 141.916 63.6894 142.124C63.8814 142.332 64.1694 142.508 64.5534 142.652C64.9374 142.796 65.4094 142.956 65.9694 143.132C66.9454 143.42 67.7774 143.708 68.4654 143.996C69.1534 144.268 69.6814 144.628 70.0494 145.076C70.4334 145.508 70.6254 146.108 70.6254 146.876C70.6254 148.092 70.1694 149.044 69.2574 149.732C68.3614 150.404 67.1614 150.74 65.6574 150.74ZM78.6704 150.74C77.6944 150.74 76.8064 150.572 76.0064 150.236C75.2224 149.884 74.5424 149.412 73.9664 148.82C73.3904 148.212 72.9424 147.524 72.6224 146.756C72.3184 145.972 72.1664 145.14 72.1664 144.26C72.1664 143.076 72.4384 141.996 72.9824 141.02C73.5264 140.028 74.2864 139.236 75.2624 138.644C76.2384 138.036 77.3824 137.732 78.6944 137.732C80.0064 137.732 81.1344 138.036 82.0784 138.644C83.0384 139.236 83.7824 140.02 84.3104 140.996C84.8384 141.972 85.1024 143.02 85.1024 144.14C85.1024 144.332 85.0944 144.516 85.0784 144.692C85.0624 144.852 85.0464 144.988 85.0304 145.1H74.9744C75.0224 145.836 75.2224 146.484 75.5744 147.044C75.9424 147.588 76.4064 148.02 76.9664 148.34C77.5264 148.644 78.1264 148.796 78.7664 148.796C79.4704 148.796 80.1344 148.62 80.7584 148.268C81.3984 147.916 81.8304 147.452 82.0544 146.876L84.3104 147.524C84.0384 148.132 83.6224 148.684 83.0624 149.18C82.5184 149.66 81.8704 150.044 81.1184 150.332C80.3664 150.604 79.5504 150.74 78.6704 150.74ZM74.9024 143.348H82.4864C82.4384 142.628 82.2304 141.996 81.8624 141.452C81.5104 140.892 81.0544 140.46 80.4944 140.156C79.9504 139.836 79.3424 139.676 78.6704 139.676C78.0144 139.676 77.4064 139.836 76.8464 140.156C76.3024 140.46 75.8544 140.892 75.5024 141.452C75.1504 141.996 74.9504 142.628 74.9024 143.348ZM94.3119 140.228C93.2879 140.244 92.3759 140.476 91.5759 140.924C90.7919 141.372 90.2319 142.004 89.8959 142.82V150.5H87.2559V137.948H89.7039V140.756C90.1359 139.892 90.7039 139.204 91.4079 138.692C92.1119 138.164 92.8559 137.876 93.6399 137.828C93.7999 137.828 93.9279 137.828 94.0239 137.828C94.1359 137.828 94.2319 137.836 94.3119 137.852V140.228ZM108.717 133.46L97.0291 150.5H94.1011L105.789 133.46H108.717ZM111.311 150.5V133.46H118.463C119.231 133.46 119.935 133.62 120.575 133.94C121.215 134.26 121.775 134.684 122.255 135.212C122.735 135.74 123.103 136.332 123.359 136.988C123.615 137.644 123.743 138.316 123.743 139.004C123.743 139.948 123.527 140.852 123.095 141.716C122.679 142.564 122.079 143.252 121.295 143.78C120.527 144.308 119.631 144.572 118.607 144.572H113.999V150.5H111.311ZM113.999 142.196H118.439C118.951 142.196 119.399 142.06 119.783 141.788C120.167 141.5 120.463 141.116 120.671 140.636C120.895 140.156 121.007 139.612 121.007 139.004C121.007 138.38 120.879 137.828 120.623 137.348C120.367 136.868 120.031 136.5 119.615 136.244C119.215 135.972 118.775 135.836 118.295 135.836H113.999V142.196ZM124.875 146.828C124.875 146.028 125.099 145.332 125.547 144.74C126.011 144.132 126.643 143.668 127.443 143.348C128.243 143.012 129.171 142.844 130.227 142.844C130.787 142.844 131.355 142.884 131.931 142.964C132.523 143.044 133.043 143.172 133.491 143.348V142.556C133.491 141.676 133.227 140.988 132.699 140.492C132.171 139.996 131.411 139.748 130.419 139.748C129.715 139.748 129.051 139.876 128.427 140.132C127.803 140.372 127.139 140.716 126.435 141.164L125.547 139.388C126.379 138.828 127.211 138.412 128.043 138.14C128.891 137.868 129.779 137.732 130.707 137.732C132.387 137.732 133.707 138.18 134.667 139.076C135.643 139.956 136.131 141.212 136.131 142.844V147.524C136.131 147.828 136.179 148.044 136.275 148.172C136.387 148.3 136.571 148.372 136.827 148.388V150.5C136.587 150.548 136.371 150.58 136.179 150.596C135.987 150.612 135.827 150.62 135.699 150.62C135.139 150.62 134.715 150.484 134.427 150.212C134.139 149.94 133.971 149.62 133.923 149.252L133.851 148.532C133.307 149.236 132.611 149.78 131.763 150.164C130.915 150.548 130.059 150.74 129.195 150.74C128.363 150.74 127.619 150.572 126.963 150.236C126.307 149.884 125.795 149.412 125.427 148.82C125.059 148.228 124.875 147.564 124.875 146.828ZM132.867 147.596C133.059 147.388 133.211 147.18 133.323 146.972C133.435 146.764 133.491 146.58 133.491 146.42V144.98C133.043 144.804 132.571 144.676 132.075 144.596C131.579 144.5 131.091 144.452 130.611 144.452C129.651 144.452 128.867 144.644 128.259 145.028C127.667 145.412 127.371 145.94 127.371 146.612C127.371 146.98 127.467 147.332 127.659 147.668C127.867 148.004 128.155 148.276 128.523 148.484C128.907 148.692 129.379 148.796 129.939 148.796C130.515 148.796 131.067 148.684 131.595 148.46C132.123 148.236 132.547 147.948 132.867 147.596ZM139.334 150.5V137.948H141.974V150.5H139.334ZM139.334 135.884V132.98H141.974V135.884H139.334ZM156.403 150.5H153.763V143.468C153.763 142.3 153.571 141.444 153.187 140.9C152.819 140.356 152.267 140.084 151.531 140.084C151.019 140.084 150.507 140.212 149.995 140.468C149.499 140.724 149.051 141.076 148.651 141.524C148.251 141.956 147.963 142.46 147.787 143.036V150.5H145.146V137.948H147.547V140.468C147.867 139.908 148.283 139.428 148.795 139.028C149.323 138.612 149.915 138.292 150.571 138.068C151.227 137.844 151.923 137.732 152.659 137.732C153.411 137.732 154.027 137.868 154.507 138.14C155.003 138.412 155.387 138.788 155.659 139.268C155.947 139.732 156.139 140.276 156.234 140.9C156.347 141.508 156.403 142.156 156.403 142.844V150.5ZM159.491 132.98H162.131V146.876C162.131 147.516 162.227 147.924 162.419 148.1C162.611 148.276 162.851 148.364 163.139 148.364C163.459 148.364 163.755 148.332 164.027 148.268C164.315 148.204 164.563 148.124 164.771 148.028L165.155 150.116C164.771 150.276 164.315 150.412 163.787 150.524C163.259 150.636 162.787 150.692 162.371 150.692C161.475 150.692 160.771 150.444 160.259 149.948C159.747 149.436 159.491 148.732 159.491 147.836V132.98ZM172.374 150.74C171.398 150.74 170.51 150.572 169.71 150.236C168.926 149.884 168.246 149.412 167.67 148.82C167.094 148.212 166.646 147.524 166.326 146.756C166.022 145.972 165.87 145.14 165.87 144.26C165.87 143.076 166.142 141.996 166.686 141.02C167.23 140.028 167.99 139.236 168.966 138.644C169.942 138.036 171.086 137.732 172.398 137.732C173.71 137.732 174.838 138.036 175.782 138.644C176.742 139.236 177.486 140.02 178.014 140.996C178.542 141.972 178.806 143.02 178.806 144.14C178.806 144.332 178.798 144.516 178.782 144.692C178.766 144.852 178.75 144.988 178.734 145.1H168.678C168.726 145.836 168.926 146.484 169.278 147.044C169.646 147.588 170.11 148.02 170.67 148.34C171.23 148.644 171.83 148.796 172.47 148.796C173.174 148.796 173.838 148.62 174.462 148.268C175.102 147.916 175.534 147.452 175.758 146.876L178.014 147.524C177.742 148.132 177.326 148.684 176.766 149.18C176.222 149.66 175.574 150.044 174.822 150.332C174.07 150.604 173.254 150.74 172.374 150.74ZM168.606 143.348H176.19C176.142 142.628 175.934 141.996 175.566 141.452C175.214 140.892 174.758 140.46 174.198 140.156C173.654 139.836 173.046 139.676 172.374 139.676C171.718 139.676 171.11 139.836 170.55 140.156C170.006 140.46 169.558 140.892 169.206 141.452C168.854 141.996 168.654 142.628 168.606 143.348ZM185.423 150.74C184.367 150.74 183.367 150.572 182.423 150.236C181.479 149.884 180.671 149.364 179.999 148.676L180.983 146.9C181.703 147.54 182.423 148.004 183.143 148.292C183.879 148.58 184.607 148.724 185.327 148.724C186.063 148.724 186.663 148.588 187.127 148.316C187.591 148.028 187.823 147.612 187.823 147.068C187.823 146.668 187.703 146.372 187.463 146.18C187.223 145.988 186.871 145.82 186.407 145.676C185.959 145.532 185.415 145.372 184.775 145.196C183.879 144.924 183.127 144.644 182.519 144.356C181.911 144.052 181.455 143.684 181.151 143.252C180.847 142.82 180.695 142.268 180.695 141.596C180.695 140.78 180.903 140.084 181.319 139.508C181.735 138.932 182.311 138.492 183.047 138.188C183.799 137.884 184.663 137.732 185.639 137.732C186.551 137.732 187.391 137.876 188.159 138.164C188.943 138.436 189.631 138.868 190.223 139.46L189.095 141.212C188.535 140.7 187.959 140.324 187.367 140.084C186.791 139.844 186.167 139.724 185.495 139.724C185.111 139.724 184.743 139.772 184.391 139.868C184.039 139.948 183.743 140.108 183.503 140.348C183.279 140.572 183.167 140.892 183.167 141.308C183.167 141.644 183.263 141.916 183.455 142.124C183.647 142.332 183.935 142.508 184.319 142.652C184.703 142.796 185.175 142.956 185.735 143.132C186.711 143.42 187.543 143.708 188.231 143.996C188.919 144.268 189.447 144.628 189.815 145.076C190.199 145.508 190.391 146.108 190.391 146.876C190.391 148.092 189.935 149.044 189.023 149.732C188.127 150.404 186.927 150.74 185.423 150.74ZM197.212 150.74C196.156 150.74 195.156 150.572 194.212 150.236C193.268 149.884 192.46 149.364 191.788 148.676L192.772 146.9C193.492 147.54 194.212 148.004 194.932 148.292C195.668 148.58 196.396 148.724 197.116 148.724C197.852 148.724 198.452 148.588 198.916 148.316C199.38 148.028 199.612 147.612 199.612 147.068C199.612 146.668 199.492 146.372 199.252 146.18C199.012 145.988 198.66 145.82 198.196 145.676C197.748 145.532 197.204 145.372 196.564 145.196C195.668 144.924 194.916 144.644 194.308 144.356C193.7 144.052 193.244 143.684 192.94 143.252C192.636 142.82 192.484 142.268 192.484 141.596C192.484 140.78 192.692 140.084 193.108 139.508C193.524 138.932 194.1 138.492 194.836 138.188C195.588 137.884 196.452 137.732 197.428 137.732C198.34 137.732 199.18 137.876 199.948 138.164C200.732 138.436 201.42 138.868 202.012 139.46L200.884 141.212C200.324 140.7 199.748 140.324 199.156 140.084C198.58 139.844 197.956 139.724 197.284 139.724C196.9 139.724 196.532 139.772 196.18 139.868C195.828 139.948 195.532 140.108 195.292 140.348C195.068 140.572 194.956 140.892 194.956 141.308C194.956 141.644 195.052 141.916 195.244 142.124C195.436 142.332 195.724 142.508 196.108 142.652C196.492 142.796 196.964 142.956 197.524 143.132C198.5 143.42 199.332 143.708 200.02 143.996C200.708 144.268 201.236 144.628 201.604 145.076C201.988 145.508 202.18 146.108 202.18 146.876C202.18 148.092 201.724 149.044 200.812 149.732C199.916 150.404 198.716 150.74 197.212 150.74ZM67.9278 181.5V164.46H73.9758C75.8158 164.46 77.3518 164.844 78.5838 165.612C79.8158 166.364 80.7358 167.388 81.3438 168.684C81.9678 169.964 82.2798 171.388 82.2798 172.956C82.2798 174.684 81.9358 176.188 81.2478 177.468C80.5758 178.748 79.6158 179.74 78.3678 180.444C77.1198 181.148 75.6558 181.5 73.9758 181.5H67.9278ZM79.5438 172.956C79.5438 171.756 79.3198 170.7 78.8718 169.788C78.4398 168.86 77.8078 168.14 76.9758 167.628C76.1598 167.1 75.1598 166.836 73.9758 166.836H70.6158V179.124H73.9758C75.1758 179.124 76.1838 178.852 76.9998 178.308C77.8318 177.764 78.4638 177.028 78.8958 176.1C79.3278 175.172 79.5438 174.124 79.5438 172.956ZM90.4595 181.74C89.4835 181.74 88.5955 181.572 87.7955 181.236C87.0115 180.884 86.3315 180.412 85.7555 179.82C85.1795 179.212 84.7315 178.524 84.4115 177.756C84.1075 176.972 83.9555 176.14 83.9555 175.26C83.9555 174.076 84.2275 172.996 84.7715 172.02C85.3155 171.028 86.0755 170.236 87.0515 169.644C88.0275 169.036 89.1715 168.732 90.4835 168.732C91.7955 168.732 92.9235 169.036 93.8675 169.644C94.8275 170.236 95.5715 171.02 96.0995 171.996C96.6275 172.972 96.8915 174.02 96.8915 175.14C96.8915 175.332 96.8835 175.516 96.8675 175.692C96.8515 175.852 96.8355 175.988 96.8195 176.1H86.7635C86.8115 176.836 87.0115 177.484 87.3635 178.044C87.7315 178.588 88.1955 179.02 88.7555 179.34C89.3155 179.644 89.9155 179.796 90.5555 179.796C91.2595 179.796 91.9235 179.62 92.5475 179.268C93.1875 178.916 93.6195 178.452 93.8435 177.876L96.0995 178.524C95.8275 179.132 95.4115 179.684 94.8515 180.18C94.3075 180.66 93.6595 181.044 92.9075 181.332C92.1555 181.604 91.3395 181.74 90.4595 181.74ZM86.6915 174.348H94.2755C94.2275 173.628 94.0195 172.996 93.6515 172.452C93.2995 171.892 92.8435 171.46 92.2835 171.156C91.7395 170.836 91.1315 170.676 90.4595 170.676C89.8035 170.676 89.1955 170.836 88.6355 171.156C88.0915 171.46 87.6435 171.892 87.2915 172.452C86.9395 172.996 86.7395 173.628 86.6915 174.348ZM110.301 181.5H107.661V174.468C107.661 173.3 107.469 172.444 107.085 171.9C106.717 171.356 106.165 171.084 105.429 171.084C104.917 171.084 104.405 171.212 103.893 171.468C103.397 171.724 102.949 172.076 102.549 172.524C102.149 172.956 101.861 173.46 101.685 174.036V181.5H99.0449V168.948H101.445V171.468C101.765 170.908 102.181 170.428 102.693 170.028C103.221 169.612 103.813 169.292 104.469 169.068C105.125 168.844 105.821 168.732 106.557 168.732C107.309 168.732 107.925 168.868 108.405 169.14C108.901 169.412 109.285 169.788 109.557 170.268C109.845 170.732 110.037 171.276 110.133 171.9C110.245 172.508 110.301 173.156 110.301 173.844V181.5ZM120.256 180.852C120.032 180.964 119.752 181.084 119.416 181.212C119.08 181.34 118.696 181.452 118.264 181.548C117.848 181.644 117.416 181.692 116.968 181.692C116.424 181.692 115.92 181.596 115.456 181.404C114.992 181.212 114.616 180.908 114.328 180.492C114.056 180.06 113.92 179.508 113.92 178.836V170.988H112.264V168.948H113.92V164.82H116.56V168.948H119.296V170.988H116.56V177.996C116.592 178.428 116.728 178.748 116.968 178.956C117.224 179.164 117.536 179.268 117.904 179.268C118.272 179.268 118.624 179.204 118.96 179.076C119.296 178.948 119.544 178.844 119.704 178.764L120.256 180.852ZM122.084 181.5V168.948H124.724V181.5H122.084ZM122.084 166.884V163.98H124.724V166.884H122.084ZM132.361 181.74C131.305 181.74 130.305 181.572 129.361 181.236C128.417 180.884 127.609 180.364 126.937 179.676L127.921 177.9C128.641 178.54 129.361 179.004 130.081 179.292C130.817 179.58 131.545 179.724 132.265 179.724C133.001 179.724 133.601 179.588 134.065 179.316C134.529 179.028 134.761 178.612 134.761 178.068C134.761 177.668 134.641 177.372 134.401 177.18C134.161 176.988 133.809 176.82 133.345 176.676C132.897 176.532 132.353 176.372 131.713 176.196C130.817 175.924 130.065 175.644 129.457 175.356C128.849 175.052 128.393 174.684 128.089 174.252C127.785 173.82 127.633 173.268 127.633 172.596C127.633 171.78 127.841 171.084 128.257 170.508C128.673 169.932 129.249 169.492 129.985 169.188C130.737 168.884 131.601 168.732 132.577 168.732C133.489 168.732 134.329 168.876 135.097 169.164C135.881 169.436 136.569 169.868 137.161 170.46L136.033 172.212C135.473 171.7 134.897 171.324 134.305 171.084C133.729 170.844 133.105 170.724 132.433 170.724C132.049 170.724 131.681 170.772 131.329 170.868C130.977 170.948 130.681 171.108 130.441 171.348C130.217 171.572 130.105 171.892 130.105 172.308C130.105 172.644 130.201 172.916 130.393 173.124C130.585 173.332 130.873 173.508 131.257 173.652C131.641 173.796 132.113 173.956 132.673 174.132C133.649 174.42 134.481 174.708 135.169 174.996C135.857 175.268 136.385 175.628 136.753 176.076C137.137 176.508 137.329 177.108 137.329 177.876C137.329 179.092 136.873 180.044 135.961 180.732C135.065 181.404 133.865 181.74 132.361 181.74ZM146.646 180.852C146.422 180.964 146.142 181.084 145.806 181.212C145.47 181.34 145.086 181.452 144.654 181.548C144.238 181.644 143.806 181.692 143.358 181.692C142.814 181.692 142.31 181.596 141.846 181.404C141.382 181.212 141.006 180.908 140.718 180.492C140.446 180.06 140.31 179.508 140.31 178.836V170.988H138.654V168.948H140.31V164.82H142.95V168.948H145.686V170.988H142.95V177.996C142.982 178.428 143.118 178.748 143.358 178.956C143.614 179.164 143.926 179.268 144.294 179.268C144.662 179.268 145.014 179.204 145.35 179.076C145.686 178.948 145.934 178.844 146.094 178.764L146.646 180.852ZM155.531 171.228C154.507 171.244 153.595 171.476 152.795 171.924C152.011 172.372 151.451 173.004 151.115 173.82V181.5H148.475V168.948H150.923V171.756C151.355 170.892 151.923 170.204 152.627 169.692C153.331 169.164 154.075 168.876 154.859 168.828C155.019 168.828 155.147 168.828 155.243 168.828C155.355 168.828 155.451 168.836 155.531 168.852V171.228ZM157.883 184.452C158.123 184.484 158.355 184.516 158.579 184.548C158.819 184.596 159.011 184.62 159.155 184.62C159.427 184.62 159.659 184.532 159.851 184.356C160.059 184.196 160.267 183.892 160.475 183.444C160.683 182.996 160.939 182.348 161.243 181.5L156.083 168.948H158.843L162.683 178.812L166.091 168.948H168.635L162.947 184.404C162.771 184.868 162.515 185.292 162.179 185.676C161.843 186.076 161.427 186.388 160.931 186.612C160.435 186.836 159.851 186.948 159.179 186.948C158.987 186.948 158.787 186.932 158.579 186.9C158.371 186.868 158.139 186.82 157.883 186.756V184.452Z" fill="#303030"/>
</svg>
