<svg width="235" height="204" viewBox="0 0 235 204" fill="none" xmlns="http://www.w3.org/2000/svg">
<rect width="235" height="204" rx="15" fill="white"/>
<path opacity="0.5" d="M150.767 66.6124C150.758 74.2779 148.4 81.7565 144.011 88.0413C139.623 94.3262 133.414 99.1155 126.22 101.764C119.027 104.413 111.195 104.795 103.778 102.857C96.3617 100.92 89.7168 96.7563 84.7383 90.9276C79.7057 82.8981 77.899 73.2614 79.6811 63.9542C81.4632 54.6471 86.7022 46.3595 94.345 40.7571C101.988 35.1547 111.468 32.6528 120.88 33.7544C130.292 34.8559 138.938 39.4791 145.081 46.6949C148.821 52.6631 150.792 59.5693 150.767 66.6124Z" fill="#FFE5B3"/>
<path d="M153.991 71.0101C153.989 79.8138 150.89 88.3362 145.236 95.0845C139.583 101.833 131.735 106.376 123.067 107.919C114.4 109.462 105.466 107.906 97.8305 103.524C90.1951 99.1417 84.3452 92.2124 81.3057 83.9501C78.2661 75.6878 78.2308 66.6195 81.2058 58.3338C84.1809 50.048 89.9766 43.0733 97.5776 38.6315C105.179 34.1898 114.1 32.5643 122.779 34.0397C131.458 35.5151 139.342 39.9974 145.048 46.7014C150.821 53.485 153.991 62.1023 153.991 71.0101Z" stroke="#4D2C19" stroke-width="3.20527" stroke-miterlimit="10"/>
<path d="M97.4141 146.468C97.2541 146.292 97.0221 146.108 96.7181 145.916C96.4141 145.708 96.0541 145.516 95.6381 145.34C95.2221 145.164 94.7741 145.02 94.2941 144.908C93.8141 144.796 93.3181 144.74 92.8061 144.74C91.6861 144.74 90.8541 144.948 90.3101 145.364C89.7661 145.78 89.4941 146.356 89.4941 147.092C89.4941 147.636 89.6461 148.068 89.9501 148.388C90.2541 148.692 90.7181 148.948 91.3421 149.156C91.9661 149.364 92.7501 149.588 93.6941 149.828C94.8461 150.1 95.8461 150.428 96.6941 150.812C97.5421 151.18 98.1901 151.676 98.6381 152.3C99.0861 152.924 99.3101 153.748 99.3101 154.772C99.3101 155.636 99.1501 156.38 98.8301 157.004C98.5101 157.628 98.0621 158.14 97.4861 158.54C96.9101 158.924 96.2461 159.212 95.4941 159.404C94.7421 159.58 93.9341 159.668 93.0701 159.668C92.2221 159.668 91.3741 159.58 90.5261 159.404C89.6941 159.228 88.8941 158.972 88.1261 158.636C87.3741 158.284 86.6781 157.86 86.0381 157.364L87.2621 155.06C87.4701 155.268 87.7661 155.5 88.1501 155.756C88.5501 155.996 89.0061 156.228 89.5181 156.452C90.0461 156.676 90.6141 156.868 91.2221 157.028C91.8461 157.172 92.4781 157.244 93.1181 157.244C94.1901 157.244 95.0061 157.06 95.5661 156.692C96.1421 156.308 96.4301 155.764 96.4301 155.06C96.4301 154.484 96.2461 154.028 95.8781 153.692C95.5101 153.34 94.9741 153.044 94.2701 152.804C93.5661 152.564 92.7261 152.324 91.7501 152.084C90.6301 151.78 89.6941 151.452 88.9421 151.1C88.1901 150.732 87.6221 150.268 87.2381 149.708C86.8701 149.132 86.6861 148.404 86.6861 147.524C86.6861 146.404 86.9581 145.46 87.5021 144.692C88.0461 143.908 88.7821 143.324 89.7101 142.94C90.6541 142.54 91.7101 142.34 92.8781 142.34C93.6461 142.34 94.3741 142.428 95.0621 142.604C95.7501 142.764 96.3901 142.988 96.9821 143.276C97.5901 143.564 98.1421 143.892 98.6381 144.26L97.4141 146.468ZM120.823 159.5H118.183V152.468C118.183 151.3 117.991 150.444 117.607 149.9C117.223 149.356 116.663 149.084 115.927 149.084C115.191 149.084 114.503 149.364 113.863 149.924C113.239 150.468 112.799 151.18 112.543 152.06V159.5H109.903V152.468C109.903 151.3 109.711 150.444 109.327 149.9C108.943 149.356 108.391 149.084 107.671 149.084C106.935 149.084 106.247 149.356 105.607 149.9C104.983 150.444 104.535 151.156 104.263 152.036V159.5H101.623V146.948H104.023V149.468C104.519 148.588 105.167 147.916 105.967 147.452C106.783 146.972 107.711 146.732 108.751 146.732C109.791 146.732 110.607 147.004 111.199 147.548C111.807 148.092 112.183 148.772 112.327 149.588C112.871 148.66 113.535 147.956 114.319 147.476C115.119 146.98 116.031 146.732 117.055 146.732C117.791 146.732 118.407 146.868 118.903 147.14C119.399 147.412 119.783 147.788 120.055 148.268C120.327 148.732 120.519 149.276 120.631 149.9C120.759 150.508 120.823 151.156 120.823 151.844V159.5ZM123.865 159.5V146.948H126.505V159.5H123.865ZM123.865 144.884V141.98H126.505V144.884H123.865ZM129.702 141.98H132.342V155.876C132.342 156.516 132.438 156.924 132.63 157.1C132.822 157.276 133.062 157.364 133.35 157.364C133.67 157.364 133.966 157.332 134.238 157.268C134.526 157.204 134.774 157.124 134.982 157.028L135.366 159.116C134.982 159.276 134.526 159.412 133.998 159.524C133.47 159.636 132.998 159.692 132.582 159.692C131.686 159.692 130.982 159.444 130.47 158.948C129.958 158.436 129.702 157.732 129.702 156.836V141.98ZM142.585 159.74C141.609 159.74 140.721 159.572 139.921 159.236C139.137 158.884 138.457 158.412 137.881 157.82C137.305 157.212 136.857 156.524 136.537 155.756C136.233 154.972 136.081 154.14 136.081 153.26C136.081 152.076 136.353 150.996 136.896 150.02C137.441 149.028 138.201 148.236 139.177 147.644C140.153 147.036 141.297 146.732 142.609 146.732C143.921 146.732 145.049 147.036 145.993 147.644C146.953 148.236 147.697 149.02 148.225 149.996C148.753 150.972 149.017 152.02 149.017 153.14C149.017 153.332 149.009 153.516 148.993 153.692C148.977 153.852 148.961 153.988 148.945 154.1H138.889C138.937 154.836 139.137 155.484 139.489 156.044C139.857 156.588 140.321 157.02 140.881 157.34C141.441 157.644 142.041 157.796 142.681 157.796C143.385 157.796 144.049 157.62 144.673 157.268C145.313 156.916 145.745 156.452 145.969 155.876L148.225 156.524C147.953 157.132 147.537 157.684 146.977 158.18C146.433 158.66 145.785 159.044 145.033 159.332C144.281 159.604 143.465 159.74 142.585 159.74ZM138.817 152.348H146.401C146.353 151.628 146.145 150.996 145.777 150.452C145.425 149.892 144.969 149.46 144.409 149.156C143.865 148.836 143.257 148.676 142.585 148.676C141.929 148.676 141.321 148.836 140.761 149.156C140.217 149.46 139.769 149.892 139.417 150.452C139.065 150.996 138.865 151.628 138.817 152.348ZM85.4082 190.5V178.356L80.3922 187.572H78.8082L73.7682 178.356V190.5H71.0802V173.46H73.9602L79.6002 183.876L85.2402 173.46H88.1202V190.5H85.4082ZM90.5743 186.828C90.5743 186.028 90.7983 185.332 91.2463 184.74C91.7103 184.132 92.3423 183.668 93.1423 183.348C93.9423 183.012 94.8703 182.844 95.9263 182.844C96.4863 182.844 97.0543 182.884 97.6303 182.964C98.2223 183.044 98.7423 183.172 99.1903 183.348V182.556C99.1903 181.676 98.9263 180.988 98.3983 180.492C97.8703 179.996 97.1103 179.748 96.1183 179.748C95.4143 179.748 94.7503 179.876 94.1263 180.132C93.5023 180.372 92.8383 180.716 92.1343 181.164L91.2463 179.388C92.0783 178.828 92.9103 178.412 93.7423 178.14C94.5903 177.868 95.4783 177.732 96.4063 177.732C98.0863 177.732 99.4063 178.18 100.366 179.076C101.342 179.956 101.83 181.212 101.83 182.844V187.524C101.83 187.828 101.878 188.044 101.974 188.172C102.086 188.3 102.27 188.372 102.526 188.388V190.5C102.286 190.548 102.07 190.58 101.878 190.596C101.686 190.612 101.526 190.62 101.398 190.62C100.838 190.62 100.414 190.484 100.126 190.212C99.8383 189.94 99.6703 189.62 99.6223 189.252L99.5503 188.532C99.0063 189.236 98.3103 189.78 97.4623 190.164C96.6143 190.548 95.7583 190.74 94.8943 190.74C94.0623 190.74 93.3183 190.572 92.6623 190.236C92.0063 189.884 91.4943 189.412 91.1263 188.82C90.7583 188.228 90.5743 187.564 90.5743 186.828ZM98.5663 187.596C98.7583 187.388 98.9103 187.18 99.0223 186.972C99.1343 186.764 99.1903 186.58 99.1903 186.42V184.98C98.7423 184.804 98.2703 184.676 97.7743 184.596C97.2783 184.5 96.7903 184.452 96.3103 184.452C95.3503 184.452 94.5663 184.644 93.9583 185.028C93.3663 185.412 93.0703 185.94 93.0703 186.612C93.0703 186.98 93.1663 187.332 93.3583 187.668C93.5663 188.004 93.8543 188.276 94.2223 188.484C94.6063 188.692 95.0783 188.796 95.6383 188.796C96.2143 188.796 96.7663 188.684 97.2943 188.46C97.8223 188.236 98.2463 187.948 98.5663 187.596ZM113.769 190.5L109.737 184.716L107.673 186.684V190.5H105.033V172.98H107.673V184.02L113.481 177.972H116.313L111.441 183.228L116.577 190.5H113.769ZM123.165 190.74C122.173 190.74 121.285 190.572 120.501 190.236C119.717 189.884 119.037 189.404 118.461 188.796C117.901 188.188 117.469 187.5 117.165 186.732C116.861 185.948 116.709 185.116 116.709 184.236C116.709 183.356 116.861 182.524 117.165 181.74C117.469 180.956 117.901 180.268 118.461 179.676C119.037 179.068 119.717 178.596 120.501 178.26C121.301 177.908 122.189 177.732 123.165 177.732C124.141 177.732 125.021 177.908 125.805 178.26C126.605 178.596 127.285 179.068 127.845 179.676C128.421 180.268 128.861 180.956 129.165 181.74C129.469 182.524 129.621 183.356 129.621 184.236C129.621 185.116 129.469 185.948 129.165 186.732C128.861 187.5 128.421 188.188 127.845 188.796C127.285 189.404 126.605 189.884 125.805 190.236C125.021 190.572 124.141 190.74 123.165 190.74ZM119.421 184.26C119.421 185.06 119.589 185.78 119.925 186.42C120.261 187.06 120.709 187.564 121.269 187.932C121.829 188.3 122.461 188.484 123.165 188.484C123.853 188.484 124.477 188.3 125.037 187.932C125.613 187.548 126.069 187.036 126.405 186.396C126.741 185.74 126.909 185.02 126.909 184.236C126.909 183.436 126.741 182.716 126.405 182.076C126.069 181.436 125.613 180.932 125.037 180.564C124.477 180.18 123.853 179.988 123.165 179.988C122.461 179.988 121.829 180.18 121.269 180.564C120.709 180.948 120.261 181.46 119.925 182.1C119.589 182.724 119.421 183.444 119.421 184.26ZM135.045 190.5L130.269 177.948H133.005L136.581 188.052L140.157 177.948H142.701L137.925 190.5H135.045ZM149.862 190.74C148.886 190.74 147.998 190.572 147.198 190.236C146.414 189.884 145.734 189.412 145.158 188.82C144.582 188.212 144.134 187.524 143.814 186.756C143.51 185.972 143.358 185.14 143.358 184.26C143.358 183.076 143.63 181.996 144.174 181.02C144.718 180.028 145.478 179.236 146.454 178.644C147.43 178.036 148.574 177.732 149.886 177.732C151.198 177.732 152.326 178.036 153.27 178.644C154.23 179.236 154.974 180.02 155.502 180.996C156.03 181.972 156.294 183.02 156.294 184.14C156.294 184.332 156.286 184.516 156.27 184.692C156.254 184.852 156.238 184.988 156.222 185.1H146.166C146.214 185.836 146.414 186.484 146.766 187.044C147.134 187.588 147.598 188.02 148.158 188.34C148.718 188.644 149.318 188.796 149.958 188.796C150.662 188.796 151.326 188.62 151.95 188.268C152.59 187.916 153.022 187.452 153.246 186.876L155.502 187.524C155.23 188.132 154.814 188.684 154.254 189.18C153.71 189.66 153.062 190.044 152.31 190.332C151.558 190.604 150.742 190.74 149.862 190.74ZM146.094 183.348H153.678C153.63 182.628 153.422 181.996 153.054 181.452C152.702 180.892 152.246 180.46 151.686 180.156C151.142 179.836 150.534 179.676 149.862 179.676C149.206 179.676 148.598 179.836 148.038 180.156C147.494 180.46 147.046 180.892 146.694 181.452C146.342 181.996 146.142 182.628 146.094 183.348ZM165.503 180.228C164.479 180.244 163.567 180.476 162.767 180.924C161.983 181.372 161.423 182.004 161.087 182.82V190.5H158.447V177.948H160.895V180.756C161.327 179.892 161.895 179.204 162.599 178.692C163.303 178.164 164.047 177.876 164.831 177.828C164.991 177.828 165.119 177.828 165.215 177.828C165.327 177.828 165.423 177.836 165.503 177.852V180.228Z" fill="#303030"/>
</svg>
