<svg width="235" height="204" viewBox="0 0 235 204" fill="none" xmlns="http://www.w3.org/2000/svg">
<rect width="235" height="204" rx="15" fill="white"/>
<path opacity="0.5" d="M113.242 13.0239H104.395C103.411 13.0239 102.614 13.8215 102.614 14.8055V27.7781C102.614 28.7621 103.411 29.5597 104.395 29.5597H113.242C114.226 29.5597 115.023 28.7621 115.023 27.7781V14.8055C115.023 13.8215 114.226 13.0239 113.242 13.0239Z" fill="#FFF2D9"/>
<path d="M110.681 12H101.835C100.851 12 100.053 12.7976 100.053 13.7816V26.7542C100.053 27.7381 100.851 28.5358 101.835 28.5358H110.681C111.665 28.5358 112.463 27.7381 112.463 26.7542V13.7816C112.463 12.7976 111.665 12 110.681 12Z" fill="#FFF2D9"/>
<path d="M140.39 64.4435C140.042 65.7183 139.366 68.191 138.695 70.6534C138.507 71.2977 138.267 71.926 137.979 72.5323C136.683 75.3633 136.474 78.353 136.366 81.3786C136.218 85.5612 135.665 89.6977 134.026 93.6653C133.686 94.4879 133.253 95.2694 132.736 95.9946C130.489 99.1636 126.081 99.2967 123.782 96.1431C122.864 94.7563 122.155 93.2417 121.678 91.6482C120.951 89.5186 120.48 87.3069 119.84 85.1516C119.617 84.4405 119.296 83.7635 118.888 83.1397C117.629 81.1892 115.028 80.9742 113.661 82.8581C112.744 84.2445 112.012 85.7454 111.485 87.3223C110.497 89.923 109.678 92.5851 108.726 95.2011C108.472 95.7932 108.115 96.3357 107.671 96.8035C107.247 97.3235 106.715 97.7454 106.112 98.04C105.509 98.3347 104.849 98.495 104.178 98.5101C103.507 98.5252 102.841 98.3946 102.225 98.1274C101.609 97.8602 101.059 97.4627 100.612 96.9622C98.9921 95.1901 97.9246 92.9839 97.5401 90.6141C96.8674 87.1766 96.3922 83.7033 96.1169 80.2114C95.9617 77.6906 95.4604 75.2031 94.6271 72.8189C93.6032 70.0032 92.5794 67.1466 92.1647 64.2285C91.4684 59.1961 93.9718 55.3207 98.3695 52.5306C100.858 50.9487 103.668 51.1432 106.438 51.8753C107.856 52.2439 109.264 52.6381 110.646 53.1039C114.125 54.3089 117.904 54.3305 121.397 53.1654C123.137 52.6125 124.919 52.1415 126.706 51.7217C128.271 51.3233 129.909 51.3127 131.48 51.6909C133.05 52.0692 134.504 52.8249 135.716 53.8924C138.793 56.4418 140.405 59.5801 140.39 64.4435Z" fill="#FFF2D9"/>
<path d="M114.388 50.6211C115.443 50.8597 116.472 51.2027 117.46 51.645C118.63 52.2006 119.75 52.8567 120.808 53.6057C122.103 54.389 124.253 55.0699 127.929 54.3992" stroke="#4D2C19" stroke-width="2.55972" stroke-miterlimit="10" stroke-linecap="round"/>
<path d="M142.95 62.3704C142.602 63.7424 141.927 66.3994 141.256 69.0257C141.07 69.7256 140.83 70.4102 140.539 71.0735C139.244 74.1451 139.034 77.3346 138.927 80.5957C138.778 85.0905 138.225 89.5445 136.587 93.7834C136.25 94.6625 135.817 95.502 135.297 96.2867C133.049 99.7014 128.642 99.8396 126.343 96.4506C125.418 94.9447 124.71 93.316 124.239 91.6127C123.512 89.3192 123.041 86.9438 122.401 84.6196C122.179 83.8609 121.859 83.1345 121.449 82.4591C120.189 80.3601 117.589 80.1298 116.222 82.1571C115.3 83.661 114.569 85.2742 114.046 86.9591C113.058 89.7594 112.239 92.6212 111.287 95.4318C111.037 96.0632 110.68 96.6469 110.232 97.1571C108.322 99.5427 105.189 99.6246 103.172 97.3311C101.534 95.3844 100.47 93.0195 100.101 90.5018C99.4275 86.7994 98.9525 83.0637 98.6774 79.3107C98.5243 76.6059 98.0236 73.932 97.1877 71.3551C96.1638 68.3244 95.1399 65.2475 94.7252 62.1093C94.029 56.6981 96.5324 52.5258 100.93 49.5258C103.418 47.8261 106.229 48.036 108.998 48.8193C110.416 49.2186 111.824 49.6384 113.206 50.1401C116.668 51.4387 120.48 51.4622 123.957 50.2066C125.698 49.6128 127.479 49.1008 129.266 48.6708C132.671 47.821 135.66 48.6708 138.276 51.0053C141.353 53.7595 142.966 57.1281 142.95 62.3704Z" stroke="#4D2C19" stroke-width="2.55972" stroke-miterlimit="10" stroke-linecap="round"/>
<path d="M104.223 30.5698L108.646 30.6773" stroke="#4D2C19" stroke-width="2.55972" stroke-miterlimit="10" stroke-linecap="round"/>
<path d="M104.236 13H107.819C109.041 13 110.213 13.4854 111.077 14.3495C111.941 15.2136 112.427 16.3855 112.427 17.6075V27.7593C112.427 28.2318 112.239 28.685 111.905 29.0191C111.571 29.3532 111.118 29.5409 110.645 29.5409H101.835C101.362 29.5409 100.909 29.3532 100.575 29.0191C100.241 28.685 100.053 28.2318 100.053 27.7593V17.2031C100.055 16.0923 100.495 15.0271 101.278 14.2397C102.062 13.4524 103.125 13.0068 104.236 13Z" stroke="#4D2C19" stroke-width="2.04778" stroke-miterlimit="10" stroke-linecap="round"/>
<path d="M106.452 30.0476V45.3676" stroke="#4D2C19" stroke-width="2.55972" stroke-miterlimit="10" stroke-linecap="round"/>
<path d="M57.42 150.5V133.46H64.836C65.604 133.46 66.308 133.62 66.948 133.94C67.588 134.26 68.14 134.684 68.604 135.212C69.084 135.74 69.452 136.332 69.708 136.988C69.98 137.644 70.116 138.316 70.116 139.004C70.116 139.756 69.98 140.476 69.708 141.164C69.436 141.852 69.044 142.444 68.532 142.94C68.036 143.436 67.452 143.796 66.78 144.02L70.788 150.5H67.764L64.068 144.572H60.108V150.5H57.42ZM60.108 142.196H64.812C65.308 142.196 65.748 142.052 66.132 141.764C66.516 141.476 66.82 141.092 67.044 140.612C67.268 140.116 67.38 139.58 67.38 139.004C67.38 138.412 67.252 137.884 66.996 137.42C66.74 136.94 66.404 136.556 65.988 136.268C65.588 135.98 65.148 135.836 64.668 135.836H60.108V142.196ZM78.1928 150.74C77.2008 150.74 76.3128 150.572 75.5288 150.236C74.7448 149.884 74.0648 149.404 73.4888 148.796C72.9288 148.188 72.4968 147.5 72.1928 146.732C71.8888 145.948 71.7368 145.116 71.7368 144.236C71.7368 143.356 71.8888 142.524 72.1928 141.74C72.4968 140.956 72.9288 140.268 73.4888 139.676C74.0648 139.068 74.7448 138.596 75.5288 138.26C76.3288 137.908 77.2168 137.732 78.1928 137.732C79.1688 137.732 80.0488 137.908 80.8328 138.26C81.6328 138.596 82.3128 139.068 82.8728 139.676C83.4488 140.268 83.8888 140.956 84.1927 141.74C84.4968 142.524 84.6488 143.356 84.6488 144.236C84.6488 145.116 84.4968 145.948 84.1927 146.732C83.8888 147.5 83.4488 148.188 82.8728 148.796C82.3128 149.404 81.6328 149.884 80.8328 150.236C80.0488 150.572 79.1688 150.74 78.1928 150.74ZM74.4488 144.26C74.4488 145.06 74.6168 145.78 74.9528 146.42C75.2888 147.06 75.7368 147.564 76.2968 147.932C76.8568 148.3 77.4888 148.484 78.1928 148.484C78.8808 148.484 79.5048 148.3 80.0648 147.932C80.6408 147.548 81.0968 147.036 81.4328 146.396C81.7688 145.74 81.9368 145.02 81.9368 144.236C81.9368 143.436 81.7688 142.716 81.4328 142.076C81.0968 141.436 80.6408 140.932 80.0648 140.564C79.5048 140.18 78.8808 139.988 78.1928 139.988C77.4888 139.988 76.8568 140.18 76.2968 140.564C75.7368 140.948 75.2888 141.46 74.9528 142.1C74.6168 142.724 74.4488 143.444 74.4488 144.26ZM92.6303 150.74C91.6383 150.74 90.7503 150.572 89.9663 150.236C89.1823 149.884 88.5023 149.404 87.9263 148.796C87.3663 148.188 86.9343 147.5 86.6303 146.732C86.3263 145.948 86.1743 145.116 86.1743 144.236C86.1743 143.356 86.3263 142.524 86.6303 141.74C86.9343 140.956 87.3663 140.268 87.9263 139.676C88.5023 139.068 89.1823 138.596 89.9663 138.26C90.7663 137.908 91.6543 137.732 92.6303 137.732C93.6063 137.732 94.4863 137.908 95.2703 138.26C96.0703 138.596 96.7503 139.068 97.3103 139.676C97.8863 140.268 98.3263 140.956 98.6302 141.74C98.9343 142.524 99.0863 143.356 99.0863 144.236C99.0863 145.116 98.9343 145.948 98.6302 146.732C98.3263 147.5 97.8863 148.188 97.3103 148.796C96.7503 149.404 96.0703 149.884 95.2703 150.236C94.4863 150.572 93.6063 150.74 92.6303 150.74ZM88.8863 144.26C88.8863 145.06 89.0543 145.78 89.3903 146.42C89.7263 147.06 90.1743 147.564 90.7343 147.932C91.2943 148.3 91.9263 148.484 92.6303 148.484C93.3183 148.484 93.9423 148.3 94.5023 147.932C95.0783 147.548 95.5343 147.036 95.8703 146.396C96.2063 145.74 96.3743 145.02 96.3743 144.236C96.3743 143.436 96.2063 142.716 95.8703 142.076C95.5343 141.436 95.0783 140.932 94.5023 140.564C93.9423 140.18 93.3183 139.988 92.6303 139.988C91.9263 139.988 91.2943 140.18 90.7343 140.564C90.1743 140.948 89.7263 141.46 89.3903 142.1C89.0543 142.724 88.8863 143.444 88.8863 144.26ZM108.224 149.852C108 149.964 107.72 150.084 107.384 150.212C107.048 150.34 106.664 150.452 106.232 150.548C105.816 150.644 105.384 150.692 104.936 150.692C104.392 150.692 103.888 150.596 103.424 150.404C102.96 150.212 102.584 149.908 102.296 149.492C102.024 149.06 101.888 148.508 101.888 147.836V139.988H100.232V137.948H101.888V133.82H104.528V137.948H107.264V139.988H104.528V146.996C104.56 147.428 104.696 147.748 104.936 147.956C105.192 148.164 105.504 148.268 105.872 148.268C106.24 148.268 106.592 148.204 106.928 148.076C107.264 147.948 107.512 147.844 107.672 147.764L108.224 149.852ZM115.238 141.86C115.238 140.82 115.422 139.804 115.79 138.812C116.158 137.804 116.694 136.892 117.398 136.076C118.118 135.244 118.99 134.588 120.014 134.108C121.038 133.612 122.198 133.364 123.494 133.364C125.03 133.364 126.358 133.716 127.478 134.42C128.598 135.108 129.43 135.996 129.974 137.084L127.862 138.5C127.542 137.812 127.134 137.268 126.638 136.868C126.158 136.468 125.63 136.188 125.054 136.028C124.494 135.868 123.942 135.788 123.398 135.788C122.502 135.788 121.718 135.972 121.046 136.34C120.374 136.692 119.806 137.164 119.342 137.756C118.894 138.348 118.55 139.012 118.31 139.748C118.086 140.484 117.974 141.22 117.974 141.956C117.974 142.772 118.11 143.564 118.382 144.332C118.654 145.084 119.03 145.756 119.51 146.348C120.006 146.924 120.59 147.38 121.262 147.716C121.934 148.052 122.67 148.22 123.47 148.22C124.014 148.22 124.582 148.124 125.174 147.932C125.766 147.74 126.31 147.444 126.806 147.044C127.318 146.628 127.718 146.084 128.006 145.412L130.238 146.684C129.886 147.532 129.334 148.252 128.582 148.844C127.846 149.436 127.014 149.884 126.086 150.188C125.174 150.492 124.27 150.644 123.374 150.644C122.174 150.644 121.078 150.396 120.086 149.9C119.094 149.388 118.238 148.716 117.518 147.884C116.798 147.036 116.238 146.092 115.838 145.052C115.438 143.996 115.238 142.932 115.238 141.86ZM131.477 146.828C131.477 146.028 131.701 145.332 132.149 144.74C132.613 144.132 133.245 143.668 134.045 143.348C134.845 143.012 135.773 142.844 136.829 142.844C137.389 142.844 137.957 142.884 138.533 142.964C139.125 143.044 139.645 143.172 140.093 143.348V142.556C140.093 141.676 139.829 140.988 139.301 140.492C138.773 139.996 138.013 139.748 137.021 139.748C136.317 139.748 135.653 139.876 135.029 140.132C134.405 140.372 133.741 140.716 133.037 141.164L132.149 139.388C132.981 138.828 133.813 138.412 134.645 138.14C135.493 137.868 136.381 137.732 137.309 137.732C138.989 137.732 140.309 138.18 141.269 139.076C142.245 139.956 142.733 141.212 142.733 142.844V147.524C142.733 147.828 142.781 148.044 142.877 148.172C142.989 148.3 143.173 148.372 143.429 148.388V150.5C143.189 150.548 142.973 150.58 142.781 150.596C142.589 150.612 142.429 150.62 142.301 150.62C141.741 150.62 141.317 150.484 141.029 150.212C140.741 149.94 140.573 149.62 140.525 149.252L140.453 148.532C139.909 149.236 139.213 149.78 138.365 150.164C137.517 150.548 136.661 150.74 135.797 150.74C134.965 150.74 134.221 150.572 133.565 150.236C132.909 149.884 132.397 149.412 132.029 148.82C131.661 148.228 131.477 147.564 131.477 146.828ZM139.469 147.596C139.661 147.388 139.813 147.18 139.925 146.972C140.037 146.764 140.093 146.58 140.093 146.42V144.98C139.645 144.804 139.173 144.676 138.677 144.596C138.181 144.5 137.693 144.452 137.213 144.452C136.253 144.452 135.469 144.644 134.861 145.028C134.269 145.412 133.973 145.94 133.973 146.612C133.973 146.98 134.069 147.332 134.261 147.668C134.469 148.004 134.757 148.276 135.125 148.484C135.509 148.692 135.981 148.796 136.541 148.796C137.117 148.796 137.669 148.684 138.197 148.46C138.725 148.236 139.149 147.948 139.469 147.596ZM157.192 150.5H154.552V143.468C154.552 142.3 154.36 141.444 153.976 140.9C153.608 140.356 153.056 140.084 152.32 140.084C151.808 140.084 151.296 140.212 150.784 140.468C150.288 140.724 149.84 141.076 149.44 141.524C149.04 141.956 148.752 142.46 148.576 143.036V150.5H145.936V137.948H148.336V140.468C148.656 139.908 149.072 139.428 149.584 139.028C150.112 138.612 150.704 138.292 151.36 138.068C152.016 137.844 152.712 137.732 153.448 137.732C154.2 137.732 154.816 137.868 155.296 138.14C155.792 138.412 156.176 138.788 156.448 139.268C156.736 139.732 156.928 140.276 157.024 140.9C157.136 141.508 157.192 142.156 157.192 142.844V150.5ZM159.344 146.828C159.344 146.028 159.568 145.332 160.016 144.74C160.48 144.132 161.112 143.668 161.912 143.348C162.712 143.012 163.64 142.844 164.696 142.844C165.256 142.844 165.824 142.884 166.4 142.964C166.992 143.044 167.512 143.172 167.96 143.348V142.556C167.96 141.676 167.696 140.988 167.168 140.492C166.64 139.996 165.88 139.748 164.888 139.748C164.184 139.748 163.52 139.876 162.896 140.132C162.272 140.372 161.608 140.716 160.904 141.164L160.016 139.388C160.848 138.828 161.68 138.412 162.512 138.14C163.36 137.868 164.248 137.732 165.176 137.732C166.856 137.732 168.176 138.18 169.136 139.076C170.112 139.956 170.6 141.212 170.6 142.844V147.524C170.6 147.828 170.648 148.044 170.744 148.172C170.856 148.3 171.04 148.372 171.296 148.388V150.5C171.056 150.548 170.84 150.58 170.648 150.596C170.456 150.612 170.296 150.62 170.168 150.62C169.608 150.62 169.184 150.484 168.896 150.212C168.608 149.94 168.44 149.62 168.392 149.252L168.32 148.532C167.776 149.236 167.08 149.78 166.232 150.164C165.384 150.548 164.528 150.74 163.664 150.74C162.832 150.74 162.088 150.572 161.432 150.236C160.776 149.884 160.264 149.412 159.896 148.82C159.528 148.228 159.344 147.564 159.344 146.828ZM167.336 147.596C167.528 147.388 167.68 147.18 167.792 146.972C167.904 146.764 167.96 146.58 167.96 146.42V144.98C167.512 144.804 167.04 144.676 166.544 144.596C166.048 144.5 165.56 144.452 165.08 144.452C164.12 144.452 163.336 144.644 162.728 145.028C162.136 145.412 161.84 145.94 161.84 146.612C161.84 146.98 161.936 147.332 162.128 147.668C162.336 148.004 162.624 148.276 162.992 148.484C163.376 148.692 163.848 148.796 164.408 148.796C164.984 148.796 165.536 148.684 166.064 148.46C166.592 148.236 167.016 147.948 167.336 147.596ZM173.827 132.98H176.467V146.876C176.467 147.516 176.563 147.924 176.755 148.1C176.947 148.276 177.187 148.364 177.475 148.364C177.795 148.364 178.091 148.332 178.363 148.268C178.651 148.204 178.899 148.124 179.107 148.028L179.491 150.116C179.107 150.276 178.651 150.412 178.123 150.524C177.595 150.636 177.123 150.692 176.707 150.692C175.811 150.692 175.107 150.444 174.595 149.948C174.083 149.436 173.827 148.732 173.827 147.836V132.98ZM69.924 166.836H64.26V181.5H61.548V166.836H55.86V164.46H69.924V166.836ZM77.3353 171.228C76.3113 171.244 75.3993 171.476 74.5993 171.924C73.8153 172.372 73.2553 173.004 72.9193 173.82V181.5H70.2793V168.948H72.7273V171.756C73.1593 170.892 73.7273 170.204 74.4313 169.692C75.1353 169.164 75.8793 168.876 76.6633 168.828C76.8233 168.828 76.9513 168.828 77.0473 168.828C77.1593 168.828 77.2553 168.836 77.3353 168.852V171.228ZM84.7095 181.74C83.7335 181.74 82.8455 181.572 82.0455 181.236C81.2615 180.884 80.5815 180.412 80.0055 179.82C79.4295 179.212 78.9815 178.524 78.6615 177.756C78.3575 176.972 78.2055 176.14 78.2055 175.26C78.2055 174.076 78.4775 172.996 79.0215 172.02C79.5655 171.028 80.3255 170.236 81.3015 169.644C82.2775 169.036 83.4215 168.732 84.7335 168.732C86.0455 168.732 87.1735 169.036 88.1175 169.644C89.0775 170.236 89.8215 171.02 90.3495 171.996C90.8775 172.972 91.1415 174.02 91.1415 175.14C91.1415 175.332 91.1335 175.516 91.1175 175.692C91.1015 175.852 91.0855 175.988 91.0695 176.1H81.0135C81.0615 176.836 81.2615 177.484 81.6135 178.044C81.9815 178.588 82.4455 179.02 83.0055 179.34C83.5655 179.644 84.1655 179.796 84.8055 179.796C85.5095 179.796 86.1735 179.62 86.7975 179.268C87.4375 178.916 87.8695 178.452 88.0935 177.876L90.3495 178.524C90.0775 179.132 89.6615 179.684 89.1015 180.18C88.5575 180.66 87.9095 181.044 87.1575 181.332C86.4055 181.604 85.5895 181.74 84.7095 181.74ZM80.9415 174.348H88.5255C88.4775 173.628 88.2695 172.996 87.9015 172.452C87.5495 171.892 87.0935 171.46 86.5335 171.156C85.9895 170.836 85.3815 170.676 84.7095 170.676C84.0535 170.676 83.4455 170.836 82.8855 171.156C82.3415 171.46 81.8935 171.892 81.5415 172.452C81.1895 172.996 80.9895 173.628 80.9415 174.348ZM92.3829 177.828C92.3829 177.028 92.6069 176.332 93.0549 175.74C93.5189 175.132 94.1509 174.668 94.9509 174.348C95.7509 174.012 96.6789 173.844 97.7349 173.844C98.2949 173.844 98.8629 173.884 99.4389 173.964C100.031 174.044 100.551 174.172 100.999 174.348V173.556C100.999 172.676 100.735 171.988 100.207 171.492C99.6789 170.996 98.9189 170.748 97.9269 170.748C97.2229 170.748 96.5589 170.876 95.9349 171.132C95.3109 171.372 94.6469 171.716 93.9429 172.164L93.0549 170.388C93.8869 169.828 94.7189 169.412 95.5509 169.14C96.3989 168.868 97.2869 168.732 98.2149 168.732C99.8949 168.732 101.215 169.18 102.175 170.076C103.151 170.956 103.639 172.212 103.639 173.844V178.524C103.639 178.828 103.687 179.044 103.783 179.172C103.895 179.3 104.079 179.372 104.335 179.388V181.5C104.095 181.548 103.879 181.58 103.687 181.596C103.495 181.612 103.335 181.62 103.207 181.62C102.647 181.62 102.223 181.484 101.935 181.212C101.647 180.94 101.479 180.62 101.431 180.252L101.359 179.532C100.815 180.236 100.119 180.78 99.2709 181.164C98.4229 181.548 97.5669 181.74 96.7029 181.74C95.8709 181.74 95.1269 181.572 94.4709 181.236C93.8149 180.884 93.3029 180.412 92.9349 179.82C92.5669 179.228 92.3829 178.564 92.3829 177.828ZM100.375 178.596C100.567 178.388 100.719 178.18 100.831 177.972C100.943 177.764 100.999 177.58 100.999 177.42V175.98C100.551 175.804 100.079 175.676 99.5829 175.596C99.0869 175.5 98.5989 175.452 98.1189 175.452C97.1589 175.452 96.3749 175.644 95.7669 176.028C95.1749 176.412 94.8789 176.94 94.8789 177.612C94.8789 177.98 94.9749 178.332 95.1669 178.668C95.3749 179.004 95.6629 179.276 96.0309 179.484C96.4149 179.692 96.8869 179.796 97.4469 179.796C98.0229 179.796 98.5749 179.684 99.1029 179.46C99.6309 179.236 100.055 178.948 100.375 178.596ZM113.732 180.852C113.508 180.964 113.228 181.084 112.892 181.212C112.556 181.34 112.172 181.452 111.74 181.548C111.324 181.644 110.892 181.692 110.444 181.692C109.9 181.692 109.396 181.596 108.932 181.404C108.468 181.212 108.092 180.908 107.804 180.492C107.532 180.06 107.396 179.508 107.396 178.836V170.988H105.74V168.948H107.396V164.82H110.036V168.948H112.772V170.988H110.036V177.996C110.068 178.428 110.204 178.748 110.444 178.956C110.7 179.164 111.012 179.268 111.38 179.268C111.748 179.268 112.1 179.204 112.436 179.076C112.772 178.948 113.02 178.844 113.18 178.764L113.732 180.852ZM134.761 181.5H132.121V174.468C132.121 173.3 131.929 172.444 131.545 171.9C131.161 171.356 130.601 171.084 129.865 171.084C129.129 171.084 128.441 171.364 127.801 171.924C127.177 172.468 126.737 173.18 126.481 174.06V181.5H123.841V174.468C123.841 173.3 123.649 172.444 123.265 171.9C122.881 171.356 122.329 171.084 121.609 171.084C120.873 171.084 120.185 171.356 119.545 171.9C118.921 172.444 118.473 173.156 118.201 174.036V181.5H115.561V168.948H117.961V171.468C118.457 170.588 119.105 169.916 119.905 169.452C120.721 168.972 121.649 168.732 122.689 168.732C123.729 168.732 124.545 169.004 125.137 169.548C125.745 170.092 126.121 170.772 126.265 171.588C126.809 170.66 127.473 169.956 128.257 169.476C129.057 168.98 129.969 168.732 130.993 168.732C131.729 168.732 132.345 168.868 132.841 169.14C133.337 169.412 133.721 169.788 133.993 170.268C134.265 170.732 134.457 171.276 134.569 171.9C134.697 172.508 134.761 173.156 134.761 173.844V181.5ZM143.491 181.74C142.515 181.74 141.627 181.572 140.827 181.236C140.043 180.884 139.363 180.412 138.787 179.82C138.211 179.212 137.763 178.524 137.443 177.756C137.139 176.972 136.987 176.14 136.987 175.26C136.987 174.076 137.259 172.996 137.803 172.02C138.347 171.028 139.107 170.236 140.083 169.644C141.059 169.036 142.203 168.732 143.515 168.732C144.827 168.732 145.955 169.036 146.899 169.644C147.859 170.236 148.603 171.02 149.131 171.996C149.659 172.972 149.923 174.02 149.923 175.14C149.923 175.332 149.915 175.516 149.899 175.692C149.883 175.852 149.867 175.988 149.851 176.1H139.795C139.843 176.836 140.043 177.484 140.395 178.044C140.763 178.588 141.227 179.02 141.787 179.34C142.347 179.644 142.947 179.796 143.587 179.796C144.291 179.796 144.955 179.62 145.579 179.268C146.219 178.916 146.651 178.452 146.875 177.876L149.131 178.524C148.859 179.132 148.443 179.684 147.883 180.18C147.339 180.66 146.691 181.044 145.939 181.332C145.187 181.604 144.371 181.74 143.491 181.74ZM139.723 174.348H147.307C147.259 173.628 147.051 172.996 146.683 172.452C146.331 171.892 145.875 171.46 145.315 171.156C144.771 170.836 144.163 170.676 143.491 170.676C142.835 170.676 142.227 170.836 141.667 171.156C141.123 171.46 140.675 171.892 140.323 172.452C139.971 172.996 139.771 173.628 139.723 174.348ZM163.332 181.5H160.692V174.468C160.692 173.3 160.5 172.444 160.116 171.9C159.748 171.356 159.196 171.084 158.46 171.084C157.948 171.084 157.436 171.212 156.924 171.468C156.428 171.724 155.98 172.076 155.58 172.524C155.18 172.956 154.892 173.46 154.716 174.036V181.5H152.076V168.948H154.476V171.468C154.796 170.908 155.212 170.428 155.724 170.028C156.252 169.612 156.844 169.292 157.5 169.068C158.156 168.844 158.852 168.732 159.588 168.732C160.34 168.732 160.956 168.868 161.436 169.14C161.932 169.412 162.316 169.788 162.588 170.268C162.876 170.732 163.068 171.276 163.164 171.9C163.276 172.508 163.332 173.156 163.332 173.844V181.5ZM173.287 180.852C173.063 180.964 172.783 181.084 172.447 181.212C172.111 181.34 171.727 181.452 171.295 181.548C170.879 181.644 170.447 181.692 169.999 181.692C169.455 181.692 168.951 181.596 168.487 181.404C168.023 181.212 167.647 180.908 167.359 180.492C167.087 180.06 166.951 179.508 166.951 178.836V170.988H165.295V168.948H166.951V164.82H169.591V168.948H172.327V170.988H169.591V177.996C169.623 178.428 169.759 178.748 169.999 178.956C170.255 179.164 170.567 179.268 170.935 179.268C171.303 179.268 171.655 179.204 171.991 179.076C172.327 178.948 172.575 178.844 172.735 178.764L173.287 180.852Z" fill="#303030"/>
</svg>
