<svg width="235" height="204" viewBox="0 0 235 204" fill="none" xmlns="http://www.w3.org/2000/svg">
<rect width="235" height="204" rx="15" fill="white"/>
<g clip-path="url(#clip0_1_2677)">
<path opacity="0.5" d="M161.001 75.1072C160.997 79.0174 159.442 82.7664 156.678 85.5313C153.913 88.2962 150.164 89.851 146.253 89.8543H89.5828C86.6681 89.8525 83.8194 88.9862 81.3971 87.365C78.9748 85.7439 77.0878 83.4407 75.9747 80.7469C74.8616 78.0531 74.5724 75.0897 75.1438 72.2315C75.7152 69.3733 77.1215 66.7488 79.1847 64.69C80.2324 63.6404 81.435 62.7578 82.7505 62.073C82.9479 63.0345 83.158 64.0215 83.3872 65.0211C83.5464 65.7789 83.7184 66.5557 83.8903 67.3516H152.844C152.984 66.6194 153.118 65.8808 153.251 65.1549C153.411 64.2379 153.576 63.321 153.729 62.4041C155.943 63.704 157.779 65.5601 159.055 67.7884C160.33 70.0167 161.001 72.5397 161.001 75.1072Z" fill="#F6F0E2"/>
<path opacity="0.5" d="M161.778 71.9044C161.778 74.6042 160.122 77.0621 157.454 78.8323C154.34 80.7728 150.731 81.7702 147.063 81.704H90.3919C82.2542 81.704 75.6511 77.3168 75.6511 71.9044C75.6511 69.1983 77.3003 66.7468 79.9746 64.9766C81.079 64.2502 82.2707 63.6662 83.5213 63.2383C83.7187 63.875 83.9289 64.5118 84.1581 65.1995L84.6675 66.7468H153.621C153.761 66.2628 153.895 65.7725 154.022 65.2822C154.188 64.6455 154.353 64.0661 154.506 63.4611C158.861 65.1613 161.778 68.3068 161.778 71.9044Z" fill="#FFE5B3"/>
<path opacity="0.5" d="M144.58 62.8436C144.459 63.5376 144.332 64.2381 144.205 64.9321C144.103 65.4861 144.001 66.0464 143.893 66.6004H90.393C90.2656 65.9637 90.1319 65.4097 90.0045 64.8302C89.8326 64.0725 89.6734 63.3211 89.5142 62.5953C87.1583 51.4076 86.426 43.913 91.1698 40.0098C94.9266 36.9152 101.46 36.635 106.051 38.1887C111.991 40.1944 112.8 44.5944 117.213 44.5562C121.625 44.518 122.058 40.2772 128.369 38.1887C132.119 36.947 137.773 36.6732 141.397 39.0992C147.064 42.907 146.376 52.5283 144.58 62.8436Z" fill="#FFE5B3"/>
<path d="M147.851 61.6209C147.724 62.3722 147.59 63.1236 147.456 63.875C147.348 64.4735 147.24 65.0784 147.125 65.677H90.5247C90.3847 65.0402 90.2446 64.4035 90.1109 63.7667C89.9326 62.9453 89.7607 62.1366 89.5951 61.3471C87.099 49.2488 86.3286 41.1494 91.3462 36.9341C95.3195 33.5848 102.228 33.2855 107.08 34.9602C113.365 37.0997 114.218 41.8817 118.886 41.818C123.553 41.7543 123.98 37.1888 130.684 34.9284C134.645 33.6039 140.631 33.2919 144.457 35.9153C150.462 40.0351 149.749 50.4332 147.851 61.6209Z" stroke="#4D2C19" stroke-width="3" stroke-miterlimit="10"/>
<path d="M114.462 39.9714C116.833 41.7328 119.494 43.0647 122.326 43.9065C125.196 44.7559 128.196 45.0879 131.183 44.8871" stroke="#4D2C19" stroke-width="3.18374" stroke-miterlimit="10" stroke-linecap="round"/>
<path d="M161.776 73.3559C161.766 77.2561 160.213 80.9938 157.456 83.7522C154.698 86.5107 150.961 88.0657 147.061 88.0775H90.3905C87.4731 88.0819 84.62 87.2202 82.1929 85.6014C79.7657 83.9827 77.8737 81.6799 76.7566 78.9848C75.6396 76.2897 75.3478 73.3236 75.9181 70.4624C76.4885 67.6013 77.8954 64.9739 79.9606 62.9132C80.9747 61.893 86.827 57.7465 88.3451 56.8931C88.4031 56.8605 88.473 56.8944 88.4862 56.9596C88.704 58.0388 89.2402 60.872 89.46 61.8306C89.6204 62.5709 90.1822 64.8847 90.3733 65.7517C90.3835 65.7977 90.4242 65.8306 90.4712 65.8306H147.043C147.091 65.8306 147.133 65.7969 147.142 65.7498C147.304 64.9277 147.837 62.5318 147.96 61.8306C148.117 60.9595 148.289 59.4123 148.437 58.4736C148.448 58.4044 148.522 58.367 148.583 58.4017C150.918 59.7298 157.502 62.3965 159.836 66.0231C161.112 68.2561 161.781 70.7841 161.776 73.3559Z" stroke="#4D2C19" stroke-width="3" stroke-miterlimit="10" stroke-linecap="round"/>
</g>
<path d="M99.3214 142.289C98.2014 142.289 97.1534 142.057 96.1774 141.593C95.2014 141.129 94.3454 140.489 93.6094 139.673C92.8894 138.857 92.3214 137.929 91.9054 136.889C91.5054 135.849 91.3054 134.745 91.3054 133.577C91.3054 132.409 91.5054 131.313 91.9054 130.289C92.3214 129.265 92.8894 128.353 93.6094 127.553C94.3454 126.753 95.2014 126.129 96.1774 125.681C97.1694 125.233 98.2494 125.009 99.4174 125.009C101.033 125.009 102.393 125.353 103.497 126.041C104.617 126.713 105.457 127.609 106.017 128.729L103.953 130.217C103.505 129.289 102.865 128.593 102.033 128.129C101.217 127.665 100.321 127.433 99.3454 127.433C98.5454 127.433 97.8174 127.601 97.1614 127.937C96.5054 128.273 95.9374 128.737 95.4574 129.329C94.9934 129.905 94.6414 130.569 94.4014 131.321C94.1614 132.057 94.0414 132.833 94.0414 133.649C94.0414 134.513 94.1774 135.321 94.4494 136.073C94.7214 136.825 95.1054 137.489 95.6014 138.065C96.0974 138.625 96.6814 139.065 97.3534 139.385C98.0254 139.705 98.7534 139.865 99.5374 139.865C100.465 139.865 101.345 139.633 102.177 139.169C103.025 138.689 103.817 137.977 104.553 137.033V139.769C103.065 141.449 101.321 142.289 99.3214 142.289ZM104.289 135.545H100.713V133.553H106.545V142.169H104.289V135.545ZM109.155 137.297V129.617H111.795V136.769C111.795 137.889 111.995 138.737 112.395 139.313C112.811 139.873 113.411 140.153 114.195 140.153C114.691 140.153 115.171 140.049 115.635 139.841C116.115 139.633 116.547 139.329 116.931 138.929C117.331 138.513 117.651 138.017 117.891 137.441V129.617H120.531V139.193C120.531 139.497 120.587 139.713 120.699 139.841C120.811 139.969 120.995 140.041 121.251 140.057V142.169C120.979 142.217 120.755 142.249 120.579 142.265C120.403 142.281 120.235 142.289 120.075 142.289C119.595 142.289 119.195 142.161 118.875 141.905C118.555 141.633 118.371 141.289 118.323 140.873L118.275 139.625C117.715 140.537 116.987 141.233 116.091 141.713C115.195 142.177 114.211 142.409 113.139 142.409C111.827 142.409 110.835 141.977 110.163 141.113C109.491 140.249 109.155 138.977 109.155 137.297ZM143.1 142.169H140.46V135.137C140.46 133.969 140.268 133.113 139.884 132.569C139.5 132.025 138.94 131.753 138.204 131.753C137.468 131.753 136.78 132.033 136.14 132.593C135.516 133.137 135.076 133.849 134.82 134.729V142.169H132.18V135.137C132.18 133.969 131.988 133.113 131.604 132.569C131.22 132.025 130.668 131.753 129.948 131.753C129.212 131.753 128.524 132.025 127.884 132.569C127.26 133.113 126.812 133.825 126.54 134.705V142.169H123.9V129.617H126.3V132.137C126.796 131.257 127.444 130.585 128.244 130.121C129.06 129.641 129.988 129.401 131.028 129.401C132.068 129.401 132.884 129.673 133.476 130.217C134.084 130.761 134.46 131.441 134.604 132.257C135.148 131.329 135.812 130.625 136.596 130.145C137.396 129.649 138.308 129.401 139.332 129.401C140.068 129.401 140.684 129.537 141.18 129.809C141.676 130.081 142.06 130.457 142.332 130.937C142.604 131.401 142.796 131.945 142.908 132.569C143.036 133.177 143.1 133.825 143.1 134.513V142.169ZM72.9084 158.505H67.2444V173.169H64.5324V158.505H58.8444V156.129H72.9084V158.505ZM80.3197 162.897C79.2957 162.913 78.3837 163.145 77.5837 163.593C76.7997 164.041 76.2397 164.673 75.9037 165.489V173.169H73.2637V160.617H75.7117V163.425C76.1437 162.561 76.7117 161.873 77.4157 161.361C78.1197 160.833 78.8637 160.545 79.6477 160.497C79.8077 160.497 79.9357 160.497 80.0317 160.497C80.1437 160.497 80.2397 160.505 80.3197 160.521V162.897ZM87.6939 173.409C86.7179 173.409 85.8299 173.241 85.0299 172.905C84.2459 172.553 83.5659 172.081 82.9899 171.489C82.4139 170.881 81.9659 170.193 81.6459 169.425C81.3419 168.641 81.1899 167.809 81.1899 166.929C81.1899 165.745 81.4619 164.665 82.0059 163.689C82.5499 162.697 83.3099 161.905 84.2859 161.313C85.2619 160.705 86.4059 160.401 87.7179 160.401C89.0299 160.401 90.1579 160.705 91.1019 161.313C92.0619 161.905 92.8059 162.689 93.3339 163.665C93.8619 164.641 94.1259 165.689 94.1259 166.809C94.1259 167.001 94.1179 167.185 94.1019 167.361C94.0859 167.521 94.0699 167.657 94.0539 167.769H83.9979C84.0459 168.505 84.2459 169.153 84.5979 169.713C84.9659 170.257 85.4299 170.689 85.9899 171.009C86.5499 171.313 87.1499 171.465 87.7899 171.465C88.4939 171.465 89.1579 171.289 89.7819 170.937C90.4219 170.585 90.8539 170.121 91.0779 169.545L93.3339 170.193C93.0619 170.801 92.6459 171.353 92.0859 171.849C91.5419 172.329 90.8939 172.713 90.1419 173.001C89.3899 173.273 88.5739 173.409 87.6939 173.409ZM83.9259 166.017H91.5099C91.4619 165.297 91.2539 164.665 90.8859 164.121C90.5339 163.561 90.0779 163.129 89.5179 162.825C88.9739 162.505 88.3659 162.345 87.6939 162.345C87.0379 162.345 86.4299 162.505 85.8699 162.825C85.3259 163.129 84.8779 163.561 84.5259 164.121C84.1739 164.665 83.9739 165.297 83.9259 166.017ZM95.3673 169.497C95.3673 168.697 95.5913 168.001 96.0393 167.409C96.5033 166.801 97.1353 166.337 97.9353 166.017C98.7353 165.681 99.6633 165.513 100.719 165.513C101.279 165.513 101.847 165.553 102.423 165.633C103.015 165.713 103.535 165.841 103.983 166.017V165.225C103.983 164.345 103.719 163.657 103.191 163.161C102.663 162.665 101.903 162.417 100.911 162.417C100.207 162.417 99.5433 162.545 98.9193 162.801C98.2953 163.041 97.6313 163.385 96.9273 163.833L96.0393 162.057C96.8713 161.497 97.7033 161.081 98.5353 160.809C99.3833 160.537 100.271 160.401 101.199 160.401C102.879 160.401 104.199 160.849 105.159 161.745C106.135 162.625 106.623 163.881 106.623 165.513V170.193C106.623 170.497 106.671 170.713 106.767 170.841C106.879 170.969 107.063 171.041 107.319 171.057V173.169C107.079 173.217 106.863 173.249 106.671 173.265C106.479 173.281 106.319 173.289 106.191 173.289C105.631 173.289 105.207 173.153 104.919 172.881C104.631 172.609 104.463 172.289 104.415 171.921L104.343 171.201C103.799 171.905 103.103 172.449 102.255 172.833C101.407 173.217 100.551 173.409 99.6873 173.409C98.8553 173.409 98.1113 173.241 97.4553 172.905C96.7993 172.553 96.2873 172.081 95.9193 171.489C95.5513 170.897 95.3673 170.233 95.3673 169.497ZM103.359 170.265C103.551 170.057 103.703 169.849 103.815 169.641C103.927 169.433 103.983 169.249 103.983 169.089V167.649C103.535 167.473 103.063 167.345 102.567 167.265C102.071 167.169 101.583 167.121 101.103 167.121C100.143 167.121 99.3593 167.313 98.7513 167.697C98.1593 168.081 97.8633 168.609 97.8633 169.281C97.8633 169.649 97.9593 170.001 98.1513 170.337C98.3593 170.673 98.6473 170.945 99.0153 171.153C99.3993 171.361 99.8713 171.465 100.431 171.465C101.007 171.465 101.559 171.353 102.087 171.129C102.615 170.905 103.039 170.617 103.359 170.265ZM116.716 172.521C116.492 172.633 116.212 172.753 115.876 172.881C115.54 173.009 115.156 173.121 114.724 173.217C114.308 173.313 113.876 173.361 113.428 173.361C112.884 173.361 112.38 173.265 111.916 173.073C111.452 172.881 111.076 172.577 110.788 172.161C110.516 171.729 110.38 171.177 110.38 170.505V162.657H108.724V160.617H110.38V156.489H113.02V160.617H115.756V162.657H113.02V169.665C113.052 170.097 113.188 170.417 113.428 170.625C113.684 170.833 113.996 170.937 114.364 170.937C114.732 170.937 115.084 170.873 115.42 170.745C115.756 170.617 116.004 170.513 116.164 170.433L116.716 172.521ZM137.745 173.169H135.105V166.137C135.105 164.969 134.913 164.113 134.529 163.569C134.145 163.025 133.585 162.753 132.849 162.753C132.113 162.753 131.425 163.033 130.785 163.593C130.161 164.137 129.721 164.849 129.465 165.729V173.169H126.825V166.137C126.825 164.969 126.633 164.113 126.249 163.569C125.865 163.025 125.313 162.753 124.593 162.753C123.857 162.753 123.169 163.025 122.529 163.569C121.905 164.113 121.457 164.825 121.185 165.705V173.169H118.545V160.617H120.945V163.137C121.441 162.257 122.089 161.585 122.889 161.121C123.705 160.641 124.633 160.401 125.673 160.401C126.713 160.401 127.529 160.673 128.121 161.217C128.729 161.761 129.105 162.441 129.249 163.257C129.793 162.329 130.457 161.625 131.241 161.145C132.041 160.649 132.953 160.401 133.977 160.401C134.713 160.401 135.329 160.537 135.825 160.809C136.321 161.081 136.705 161.457 136.977 161.937C137.249 162.401 137.441 162.945 137.553 163.569C137.681 164.177 137.745 164.825 137.745 165.513V173.169ZM146.475 173.409C145.499 173.409 144.611 173.241 143.811 172.905C143.027 172.553 142.347 172.081 141.771 171.489C141.195 170.881 140.747 170.193 140.427 169.425C140.123 168.641 139.971 167.809 139.971 166.929C139.971 165.745 140.243 164.665 140.787 163.689C141.331 162.697 142.091 161.905 143.067 161.313C144.043 160.705 145.187 160.401 146.499 160.401C147.811 160.401 148.939 160.705 149.883 161.313C150.843 161.905 151.587 162.689 152.115 163.665C152.643 164.641 152.907 165.689 152.907 166.809C152.907 167.001 152.899 167.185 152.883 167.361C152.867 167.521 152.851 167.657 152.835 167.769H142.779C142.827 168.505 143.027 169.153 143.379 169.713C143.747 170.257 144.211 170.689 144.771 171.009C145.331 171.313 145.931 171.465 146.571 171.465C147.275 171.465 147.939 171.289 148.563 170.937C149.203 170.585 149.635 170.121 149.859 169.545L152.115 170.193C151.843 170.801 151.427 171.353 150.867 171.849C150.323 172.329 149.675 172.713 148.923 173.001C148.171 173.273 147.355 173.409 146.475 173.409ZM142.707 166.017H150.291C150.243 165.297 150.035 164.665 149.667 164.121C149.315 163.561 148.859 163.129 148.299 162.825C147.755 162.505 147.147 162.345 146.475 162.345C145.819 162.345 145.211 162.505 144.651 162.825C144.107 163.129 143.659 163.561 143.307 164.121C142.955 164.665 142.755 165.297 142.707 166.017ZM166.317 173.169H163.677V166.137C163.677 164.969 163.485 164.113 163.101 163.569C162.733 163.025 162.181 162.753 161.445 162.753C160.933 162.753 160.421 162.881 159.909 163.137C159.413 163.393 158.965 163.745 158.565 164.193C158.165 164.625 157.877 165.129 157.701 165.705V173.169H155.061V160.617H157.461V163.137C157.781 162.577 158.197 162.097 158.709 161.697C159.237 161.281 159.829 160.961 160.485 160.737C161.141 160.513 161.837 160.401 162.573 160.401C163.325 160.401 163.941 160.537 164.421 160.809C164.917 161.081 165.301 161.457 165.573 161.937C165.861 162.401 166.053 162.945 166.149 163.569C166.261 164.177 166.317 164.825 166.317 165.513V173.169ZM176.271 172.521C176.047 172.633 175.767 172.753 175.431 172.881C175.095 173.009 174.711 173.121 174.279 173.217C173.863 173.313 173.431 173.361 172.983 173.361C172.439 173.361 171.935 173.265 171.471 173.073C171.007 172.881 170.631 172.577 170.343 172.161C170.071 171.729 169.935 171.177 169.935 170.505V162.657H168.279V160.617H169.935V156.489H172.575V160.617H175.311V162.657H172.575V169.665C172.607 170.097 172.743 170.417 172.983 170.625C173.239 170.833 173.551 170.937 173.919 170.937C174.287 170.937 174.639 170.873 174.975 170.745C175.311 170.617 175.559 170.513 175.719 170.433L176.271 172.521Z" fill="#303030"/>
<defs>
<clipPath id="clip0_1_2677">
<rect width="128.082" height="58.3389" fill="white" transform="translate(53.459 32.3306)"/>
</clipPath>
</defs>
</svg>
