<svg width="235" height="204" viewBox="0 0 235 204" fill="none" xmlns="http://www.w3.org/2000/svg">
<rect width="235" height="204" rx="15" fill="white"/>
<path opacity="0.5" d="M150.75 59.5C150.75 78.83 135.08 94.5 115.75 94.5C96.42 94.5 80.75 78.83 80.75 59.5C80.75 40.17 96.42 24.5 115.75 24.5C135.08 24.5 150.75 40.17 150.75 59.5Z" fill="#FFE5B3"/>
<path d="M155.741 60.8778C155.739 69.6815 152.64 78.2039 146.986 84.9521C141.333 91.7004 133.485 96.244 124.817 97.7871C116.15 99.3301 107.216 97.7741 99.5805 93.3917C91.9451 89.0093 86.0952 82.08 83.0557 73.8177C80.0161 65.5555 79.9808 56.4872 82.9558 48.2014C85.9309 39.9157 91.7266 32.941 99.3276 28.4992C106.929 24.0574 115.85 22.4319 124.529 23.9074C133.208 25.3828 141.092 29.8651 146.798 36.569C152.571 43.3527 155.741 51.97 155.741 60.8778Z" stroke="#4D2C19" stroke-width="3.20527" stroke-miterlimit="10"/>
<path d="M87.25 39.3769C93.5833 37.3769 108.05 34.5769 115.25 39.3769C124.25 45.3769 130.25 52.877 141.75 54.877C150.95 56.477 154.917 55.5436 155.75 54.877" stroke="#4D2C19" stroke-width="3.21"/>
<path d="M40.42 166V148.984H43.108V157.744L51.124 148.96H54.1L47.38 156.496L54.484 166H51.436L45.676 158.2L43.108 160.864V166H40.42ZM55.9277 166V153.448H58.5678V166H55.9277ZM55.9277 151.384V148.48H58.5678V151.384H55.9277ZM60.9482 159.736C60.9482 158.536 61.1883 157.448 61.6683 156.472C62.1643 155.48 62.8363 154.696 63.6842 154.12C64.5323 153.528 65.5083 153.232 66.6123 153.232C67.5723 153.232 68.4363 153.48 69.2043 153.976C69.9883 154.472 70.5963 155.088 71.0283 155.824V148.48H73.6683V163.024C73.6683 163.328 73.7243 163.544 73.8363 163.672C73.9483 163.8 74.1323 163.872 74.3883 163.888V166C73.8923 166.08 73.5083 166.12 73.2363 166.12C72.7403 166.12 72.3163 165.976 71.9643 165.688C71.6283 165.4 71.4523 165.056 71.4363 164.656L71.4123 163.72C70.9323 164.52 70.2843 165.144 69.4683 165.592C68.6523 166.024 67.8043 166.24 66.9243 166.24C66.0603 166.24 65.2603 166.072 64.5243 165.736C63.8043 165.4 63.1723 164.928 62.6283 164.32C62.1003 163.712 61.6843 163.016 61.3803 162.232C61.0923 161.448 60.9482 160.616 60.9482 159.736ZM71.0283 161.488V158.2C70.8523 157.688 70.5643 157.232 70.1643 156.832C69.7803 156.416 69.3403 156.088 68.8443 155.848C68.3643 155.608 67.8843 155.488 67.4043 155.488C66.8443 155.488 66.3323 155.608 65.8683 155.848C65.4203 156.088 65.0283 156.408 64.6923 156.808C64.3723 157.208 64.1243 157.664 63.9483 158.176C63.7723 158.688 63.6842 159.224 63.6842 159.784C63.6842 160.36 63.7803 160.904 63.9723 161.416C64.1643 161.912 64.4363 162.36 64.7883 162.76C65.1563 163.144 65.5723 163.448 66.0363 163.672C66.5163 163.88 67.0363 163.984 67.5963 163.984C67.9483 163.984 68.3003 163.92 68.6523 163.792C69.0203 163.664 69.3643 163.488 69.6843 163.264C70.0203 163.04 70.3003 162.776 70.5243 162.472C70.7643 162.168 70.9323 161.84 71.0283 161.488ZM81.4855 166.24C80.4295 166.24 79.4295 166.072 78.4855 165.736C77.5415 165.384 76.7335 164.864 76.0615 164.176L77.0455 162.4C77.7655 163.04 78.4855 163.504 79.2055 163.792C79.9415 164.08 80.6695 164.224 81.3895 164.224C82.1255 164.224 82.7255 164.088 83.1895 163.816C83.6535 163.528 83.8855 163.112 83.8855 162.568C83.8855 162.168 83.7655 161.872 83.5255 161.68C83.2855 161.488 82.9335 161.32 82.4695 161.176C82.0215 161.032 81.4775 160.872 80.8375 160.696C79.9415 160.424 79.1895 160.144 78.5815 159.856C77.9735 159.552 77.5175 159.184 77.2135 158.752C76.9095 158.32 76.7575 157.768 76.7575 157.096C76.7575 156.28 76.9655 155.584 77.3815 155.008C77.7975 154.432 78.3735 153.992 79.1095 153.688C79.8615 153.384 80.7255 153.232 81.7015 153.232C82.6135 153.232 83.4535 153.376 84.2215 153.664C85.0055 153.936 85.6935 154.368 86.2855 154.96L85.1575 156.712C84.5975 156.2 84.0215 155.824 83.4295 155.584C82.8535 155.344 82.2295 155.224 81.5575 155.224C81.1735 155.224 80.8055 155.272 80.4535 155.368C80.1015 155.448 79.8055 155.608 79.5655 155.848C79.3415 156.072 79.2295 156.392 79.2295 156.808C79.2295 157.144 79.3255 157.416 79.5175 157.624C79.7095 157.832 79.9975 158.008 80.3815 158.152C80.7655 158.296 81.2375 158.456 81.7975 158.632C82.7735 158.92 83.6055 159.208 84.2935 159.496C84.9815 159.768 85.5095 160.128 85.8775 160.576C86.2615 161.008 86.4535 161.608 86.4535 162.376C86.4535 163.592 85.9975 164.544 85.0855 165.232C84.1895 165.904 82.9895 166.24 81.4855 166.24ZM95.0763 166V148.96H101.124C102.964 148.96 104.5 149.344 105.732 150.112C106.964 150.864 107.884 151.888 108.492 153.184C109.116 154.464 109.428 155.888 109.428 157.456C109.428 159.184 109.084 160.688 108.396 161.968C107.724 163.248 106.764 164.24 105.516 164.944C104.268 165.648 102.804 166 101.124 166H95.0763ZM106.692 157.456C106.692 156.256 106.468 155.2 106.02 154.288C105.588 153.36 104.956 152.64 104.124 152.128C103.308 151.6 102.308 151.336 101.124 151.336H97.7643V163.624H101.124C102.324 163.624 103.332 163.352 104.148 162.808C104.98 162.264 105.612 161.528 106.044 160.6C106.476 159.672 106.692 158.624 106.692 157.456ZM117.608 166.24C116.632 166.24 115.744 166.072 114.944 165.736C114.16 165.384 113.48 164.912 112.904 164.32C112.328 163.712 111.88 163.024 111.56 162.256C111.256 161.472 111.104 160.64 111.104 159.76C111.104 158.576 111.376 157.496 111.92 156.52C112.464 155.528 113.224 154.736 114.2 154.144C115.176 153.536 116.32 153.232 117.632 153.232C118.944 153.232 120.072 153.536 121.016 154.144C121.976 154.736 122.72 155.52 123.248 156.496C123.776 157.472 124.04 158.52 124.04 159.64C124.04 159.832 124.032 160.016 124.016 160.192C124 160.352 123.984 160.488 123.968 160.6H113.912C113.96 161.336 114.16 161.984 114.512 162.544C114.88 163.088 115.344 163.52 115.904 163.84C116.464 164.144 117.064 164.296 117.704 164.296C118.408 164.296 119.072 164.12 119.696 163.768C120.336 163.416 120.768 162.952 120.992 162.376L123.248 163.024C122.976 163.632 122.56 164.184 122 164.68C121.456 165.16 120.808 165.544 120.056 165.832C119.304 166.104 118.488 166.24 117.608 166.24ZM113.84 158.848H121.424C121.376 158.128 121.168 157.496 120.8 156.952C120.448 156.392 119.992 155.96 119.432 155.656C118.888 155.336 118.28 155.176 117.608 155.176C116.952 155.176 116.344 155.336 115.784 155.656C115.24 155.96 114.792 156.392 114.44 156.952C114.088 157.496 113.888 158.128 113.84 158.848ZM137.449 166H134.809V158.968C134.809 157.8 134.617 156.944 134.233 156.4C133.865 155.856 133.313 155.584 132.577 155.584C132.065 155.584 131.553 155.712 131.041 155.968C130.545 156.224 130.097 156.576 129.697 157.024C129.297 157.456 129.009 157.96 128.833 158.536V166H126.193V153.448H128.593V155.968C128.913 155.408 129.329 154.928 129.841 154.528C130.369 154.112 130.961 153.792 131.617 153.568C132.273 153.344 132.969 153.232 133.705 153.232C134.457 153.232 135.073 153.368 135.553 153.64C136.049 153.912 136.433 154.288 136.705 154.768C136.993 155.232 137.185 155.776 137.281 156.4C137.393 157.008 137.449 157.656 137.449 158.344V166ZM147.404 165.352C147.18 165.464 146.9 165.584 146.564 165.712C146.228 165.84 145.844 165.952 145.412 166.048C144.996 166.144 144.564 166.192 144.116 166.192C143.572 166.192 143.068 166.096 142.604 165.904C142.14 165.712 141.764 165.408 141.476 164.992C141.204 164.56 141.068 164.008 141.068 163.336V155.488H139.412V153.448H141.068V149.32H143.708V153.448H146.444V155.488H143.708V162.496C143.74 162.928 143.876 163.248 144.116 163.456C144.372 163.664 144.684 163.768 145.052 163.768C145.42 163.768 145.772 163.704 146.108 163.576C146.444 163.448 146.692 163.344 146.852 163.264L147.404 165.352ZM149.232 166V153.448H151.872V166H149.232ZM149.232 151.384V148.48H151.872V151.384H149.232ZM159.509 166.24C158.453 166.24 157.453 166.072 156.509 165.736C155.565 165.384 154.757 164.864 154.085 164.176L155.069 162.4C155.789 163.04 156.509 163.504 157.229 163.792C157.965 164.08 158.693 164.224 159.413 164.224C160.149 164.224 160.749 164.088 161.213 163.816C161.677 163.528 161.909 163.112 161.909 162.568C161.909 162.168 161.789 161.872 161.549 161.68C161.309 161.488 160.957 161.32 160.493 161.176C160.045 161.032 159.501 160.872 158.861 160.696C157.965 160.424 157.213 160.144 156.605 159.856C155.997 159.552 155.541 159.184 155.237 158.752C154.933 158.32 154.781 157.768 154.781 157.096C154.781 156.28 154.989 155.584 155.405 155.008C155.821 154.432 156.397 153.992 157.133 153.688C157.885 153.384 158.749 153.232 159.725 153.232C160.637 153.232 161.477 153.376 162.245 153.664C163.029 153.936 163.717 154.368 164.309 154.96L163.181 156.712C162.621 156.2 162.045 155.824 161.453 155.584C160.877 155.344 160.253 155.224 159.581 155.224C159.197 155.224 158.829 155.272 158.477 155.368C158.125 155.448 157.829 155.608 157.589 155.848C157.365 156.072 157.253 156.392 157.253 156.808C157.253 157.144 157.349 157.416 157.541 157.624C157.733 157.832 158.021 158.008 158.405 158.152C158.789 158.296 159.261 158.456 159.821 158.632C160.797 158.92 161.629 159.208 162.317 159.496C163.005 159.768 163.533 160.128 163.901 160.576C164.285 161.008 164.477 161.608 164.477 162.376C164.477 163.592 164.021 164.544 163.109 165.232C162.213 165.904 161.013 166.24 159.509 166.24ZM173.795 165.352C173.571 165.464 173.291 165.584 172.955 165.712C172.619 165.84 172.235 165.952 171.803 166.048C171.387 166.144 170.955 166.192 170.507 166.192C169.963 166.192 169.459 166.096 168.995 165.904C168.531 165.712 168.155 165.408 167.867 164.992C167.595 164.56 167.459 164.008 167.459 163.336V155.488H165.803V153.448H167.459V149.32H170.099V153.448H172.835V155.488H170.099V162.496C170.131 162.928 170.267 163.248 170.507 163.456C170.763 163.664 171.075 163.768 171.443 163.768C171.811 163.768 172.163 163.704 172.499 163.576C172.835 163.448 173.083 163.344 173.243 163.264L173.795 165.352ZM182.679 155.728C181.655 155.744 180.743 155.976 179.943 156.424C179.159 156.872 178.599 157.504 178.263 158.32V166H175.623V153.448H178.071V156.256C178.503 155.392 179.071 154.704 179.775 154.192C180.479 153.664 181.223 153.376 182.007 153.328C182.167 153.328 182.295 153.328 182.391 153.328C182.503 153.328 182.599 153.336 182.679 153.352V155.728ZM185.032 168.952C185.272 168.984 185.504 169.016 185.728 169.048C185.968 169.096 186.16 169.12 186.304 169.12C186.576 169.12 186.808 169.032 187 168.856C187.208 168.696 187.416 168.392 187.624 167.944C187.832 167.496 188.088 166.848 188.392 166L183.232 153.448H185.992L189.832 163.312L193.24 153.448H195.784L190.096 168.904C189.92 169.368 189.664 169.792 189.328 170.176C188.992 170.576 188.576 170.888 188.08 171.112C187.584 171.336 187 171.448 186.328 171.448C186.136 171.448 185.936 171.432 185.728 171.4C185.52 171.368 185.288 171.32 185.032 171.256V168.952Z" fill="#303030"/>
</svg>
