<svg width="235" height="204" viewBox="0 0 235 204" fill="none" xmlns="http://www.w3.org/2000/svg">
<rect width="235" height="204" rx="15" fill="white"/>
<path opacity="0.5" d="M144.486 75.6016C144.365 76.2944 144.238 76.9872 144.111 77.68C144.009 78.233 143.908 78.7923 143.8 79.3453H90.3653C90.2382 78.7478 90.1047 78.1567 89.9776 77.5847C89.806 76.8219 89.6471 76.0783 89.4882 75.3474C87.1365 64.1863 86.4056 56.6991 91.1407 52.8092C94.8907 49.7139 101.412 49.4406 105.995 50.9851C111.925 52.9936 112.732 57.3792 117.136 57.341C121.541 57.3029 121.973 53.0635 128.272 50.9851C132.016 49.752 137.66 49.4723 141.276 51.9003C146.939 55.7012 146.272 65.2986 144.486 75.6016Z" fill="#FFE0A3"/>
<path opacity="0.5" d="M151.831 86.9236C151.831 90.1264 150.558 93.1981 148.294 95.4628C146.029 97.7276 142.957 98.9999 139.754 98.9999H93.356C90.6595 98.9978 88.0413 98.0933 85.9185 96.4305C83.7957 94.7677 82.2905 92.4423 81.6427 89.8248C80.9949 87.2073 81.2418 84.4482 82.344 81.9873C83.4463 79.5264 85.3404 77.5051 87.7247 76.2456C87.8899 77.0337 88.0615 77.841 88.2395 78.6609C88.373 79.2965 88.5128 79.9321 88.6526 80.5677H145.157C145.271 79.9702 145.379 79.3664 145.487 78.769C145.621 78.019 145.754 77.2689 145.881 76.5189C147.693 77.5855 149.194 79.1063 150.238 80.9312C151.281 82.756 151.83 84.8215 151.831 86.9236Z" fill="#F9F5EC"/>
<path d="M146.511 75.8833C146.384 76.6333 146.251 77.3833 146.117 78.1333C146.009 78.7308 145.901 79.3346 145.787 79.932H89.2888C89.1489 79.2964 89.0091 78.6609 88.8757 78.0253C88.6977 77.2053 88.5261 76.3981 88.3608 75.61C85.8693 63.5337 85.1002 55.449 90.1087 51.2414C94.0748 47.8981 100.971 47.5994 105.814 49.271C112.088 51.4384 112.939 56.1863 117.598 56.1481C122.257 56.11 122.715 51.5274 129.376 49.271C133.329 47.9363 139.304 47.6376 143.124 50.2562C149.117 54.3685 148.405 64.7477 146.511 75.8833Z" stroke="#4D2C19" stroke-width="3" stroke-miterlimit="10"/>
<path d="M115.182 55.2861C119.985 58.8564 125.902 60.5983 131.873 60.1993" stroke="#4D2C19" stroke-width="3" stroke-miterlimit="10"/>
<path d="M152.466 86.2881C152.466 89.4909 151.194 92.5626 148.929 94.8273C146.664 97.0921 143.592 98.3644 140.39 98.3644H93.9913C91.2948 98.3623 88.6766 97.4578 86.5538 95.795C84.431 94.1322 82.9258 91.8068 82.278 89.1893C81.6302 86.5718 81.8771 83.8127 82.9793 81.3518C84.0815 78.8909 85.9757 76.8696 88.3599 75.6101C88.5252 76.3982 88.6968 77.2055 88.8747 78.0254C89.0082 78.661 89.148 79.2966 89.2879 79.9322H145.792C145.907 79.3347 146.015 78.7309 146.123 78.1335C146.256 77.3835 146.39 76.6334 146.517 75.8834C148.328 76.95 149.83 78.4708 150.873 80.2957C151.917 82.1205 152.466 84.186 152.466 86.2881Z" stroke="#4D2C19" stroke-width="3.17797" stroke-miterlimit="10" stroke-linecap="round"/>
<path d="M67.42 166V148.96H73.468C75.308 148.96 76.844 149.344 78.076 150.112C79.308 150.864 80.228 151.888 80.836 153.184C81.46 154.464 81.772 155.888 81.772 157.456C81.772 159.184 81.428 160.688 80.74 161.968C80.068 163.248 79.108 164.24 77.86 164.944C76.612 165.648 75.148 166 73.468 166H67.42ZM79.036 157.456C79.036 156.256 78.812 155.2 78.364 154.288C77.932 153.36 77.3 152.64 76.468 152.128C75.652 151.6 74.652 151.336 73.468 151.336H70.108V163.624H73.468C74.668 163.624 75.676 163.352 76.492 162.808C77.324 162.264 77.956 161.528 78.388 160.6C78.82 159.672 79.036 158.624 79.036 157.456ZM89.9517 166.24C88.9757 166.24 88.0877 166.072 87.2877 165.736C86.5037 165.384 85.8237 164.912 85.2477 164.32C84.6717 163.712 84.2237 163.024 83.9037 162.256C83.5997 161.472 83.4477 160.64 83.4477 159.76C83.4477 158.576 83.7197 157.496 84.2637 156.52C84.8077 155.528 85.5677 154.736 86.5437 154.144C87.5197 153.536 88.6637 153.232 89.9757 153.232C91.2877 153.232 92.4157 153.536 93.3597 154.144C94.3197 154.736 95.0637 155.52 95.5917 156.496C96.1197 157.472 96.3837 158.52 96.3837 159.64C96.3837 159.832 96.3757 160.016 96.3597 160.192C96.3437 160.352 96.3277 160.488 96.3117 160.6H86.2557C86.3037 161.336 86.5037 161.984 86.8557 162.544C87.2237 163.088 87.6877 163.52 88.2477 163.84C88.8077 164.144 89.4077 164.296 90.0477 164.296C90.7517 164.296 91.4157 164.12 92.0397 163.768C92.6797 163.416 93.1117 162.952 93.3357 162.376L95.5917 163.024C95.3197 163.632 94.9037 164.184 94.3437 164.68C93.7997 165.16 93.1517 165.544 92.3997 165.832C91.6477 166.104 90.8317 166.24 89.9517 166.24ZM86.1837 158.848H93.7677C93.7197 158.128 93.5117 157.496 93.1437 156.952C92.7917 156.392 92.3357 155.96 91.7757 155.656C91.2317 155.336 90.6237 155.176 89.9517 155.176C89.2957 155.176 88.6877 155.336 88.1277 155.656C87.5837 155.96 87.1357 156.392 86.7837 156.952C86.4317 157.496 86.2317 158.128 86.1837 158.848ZM109.793 166H107.153V158.968C107.153 157.8 106.961 156.944 106.577 156.4C106.209 155.856 105.657 155.584 104.921 155.584C104.409 155.584 103.897 155.712 103.385 155.968C102.889 156.224 102.441 156.576 102.041 157.024C101.641 157.456 101.353 157.96 101.177 158.536V166H98.5371V153.448H100.937V155.968C101.257 155.408 101.673 154.928 102.185 154.528C102.713 154.112 103.305 153.792 103.961 153.568C104.617 153.344 105.313 153.232 106.049 153.232C106.801 153.232 107.417 153.368 107.897 153.64C108.393 153.912 108.777 154.288 109.049 154.768C109.337 155.232 109.529 155.776 109.625 156.4C109.737 157.008 109.793 157.656 109.793 158.344V166ZM119.748 165.352C119.524 165.464 119.244 165.584 118.908 165.712C118.572 165.84 118.188 165.952 117.756 166.048C117.34 166.144 116.908 166.192 116.46 166.192C115.916 166.192 115.412 166.096 114.948 165.904C114.484 165.712 114.108 165.408 113.82 164.992C113.548 164.56 113.412 164.008 113.412 163.336V155.488H111.756V153.448H113.412V149.32H116.052V153.448H118.788V155.488H116.052V162.496C116.084 162.928 116.22 163.248 116.46 163.456C116.716 163.664 117.028 163.768 117.396 163.768C117.764 163.768 118.116 163.704 118.452 163.576C118.788 163.448 119.036 163.344 119.196 163.264L119.748 165.352ZM121.456 161.128V153.448H124.096V160.6C124.096 161.72 124.296 162.568 124.696 163.144C125.112 163.704 125.712 163.984 126.496 163.984C126.992 163.984 127.472 163.88 127.936 163.672C128.416 163.464 128.848 163.16 129.232 162.76C129.632 162.344 129.952 161.848 130.192 161.272V153.448H132.832V163.024C132.832 163.328 132.888 163.544 133 163.672C133.112 163.8 133.296 163.872 133.552 163.888V166C133.28 166.048 133.056 166.08 132.88 166.096C132.704 166.112 132.536 166.12 132.376 166.12C131.896 166.12 131.496 165.992 131.176 165.736C130.856 165.464 130.672 165.12 130.624 164.704L130.576 163.456C130.016 164.368 129.288 165.064 128.392 165.544C127.496 166.008 126.512 166.24 125.44 166.24C124.128 166.24 123.136 165.808 122.464 164.944C121.792 164.08 121.456 162.808 121.456 161.128ZM143.257 155.728C142.233 155.744 141.321 155.976 140.521 156.424C139.737 156.872 139.177 157.504 138.841 158.32V166H136.201V153.448H138.649V156.256C139.081 155.392 139.649 154.704 140.353 154.192C141.057 153.664 141.801 153.376 142.585 153.328C142.745 153.328 142.873 153.328 142.969 153.328C143.081 153.328 143.177 153.336 143.257 153.352V155.728ZM150.631 166.24C149.655 166.24 148.767 166.072 147.967 165.736C147.183 165.384 146.503 164.912 145.927 164.32C145.351 163.712 144.903 163.024 144.583 162.256C144.279 161.472 144.127 160.64 144.127 159.76C144.127 158.576 144.399 157.496 144.943 156.52C145.487 155.528 146.247 154.736 147.223 154.144C148.199 153.536 149.343 153.232 150.655 153.232C151.967 153.232 153.095 153.536 154.039 154.144C154.999 154.736 155.743 155.52 156.271 156.496C156.799 157.472 157.063 158.52 157.063 159.64C157.063 159.832 157.055 160.016 157.039 160.192C157.023 160.352 157.007 160.488 156.991 160.6H146.935C146.983 161.336 147.183 161.984 147.535 162.544C147.903 163.088 148.367 163.52 148.927 163.84C149.487 164.144 150.087 164.296 150.727 164.296C151.431 164.296 152.095 164.12 152.719 163.768C153.359 163.416 153.791 162.952 154.015 162.376L156.271 163.024C155.999 163.632 155.583 164.184 155.023 164.68C154.479 165.16 153.831 165.544 153.079 165.832C152.327 166.104 151.511 166.24 150.631 166.24ZM146.863 158.848H154.447C154.399 158.128 154.191 157.496 153.823 156.952C153.471 156.392 153.015 155.96 152.455 155.656C151.911 155.336 151.303 155.176 150.631 155.176C149.975 155.176 149.367 155.336 148.807 155.656C148.263 155.96 147.815 156.392 147.463 156.952C147.111 157.496 146.911 158.128 146.863 158.848ZM163.681 166.24C162.625 166.24 161.625 166.072 160.681 165.736C159.737 165.384 158.929 164.864 158.257 164.176L159.241 162.4C159.961 163.04 160.681 163.504 161.401 163.792C162.137 164.08 162.865 164.224 163.585 164.224C164.321 164.224 164.921 164.088 165.385 163.816C165.849 163.528 166.081 163.112 166.081 162.568C166.081 162.168 165.961 161.872 165.721 161.68C165.481 161.488 165.129 161.32 164.665 161.176C164.217 161.032 163.673 160.872 163.033 160.696C162.137 160.424 161.385 160.144 160.777 159.856C160.169 159.552 159.713 159.184 159.409 158.752C159.105 158.32 158.953 157.768 158.953 157.096C158.953 156.28 159.161 155.584 159.577 155.008C159.993 154.432 160.569 153.992 161.305 153.688C162.057 153.384 162.921 153.232 163.897 153.232C164.809 153.232 165.649 153.376 166.417 153.664C167.201 153.936 167.889 154.368 168.481 154.96L167.353 156.712C166.793 156.2 166.217 155.824 165.625 155.584C165.049 155.344 164.425 155.224 163.753 155.224C163.369 155.224 163.001 155.272 162.649 155.368C162.297 155.448 162.001 155.608 161.761 155.848C161.537 156.072 161.425 156.392 161.425 156.808C161.425 157.144 161.521 157.416 161.713 157.624C161.905 157.832 162.193 158.008 162.577 158.152C162.961 158.296 163.433 158.456 163.993 158.632C164.969 158.92 165.801 159.208 166.489 159.496C167.177 159.768 167.705 160.128 168.073 160.576C168.457 161.008 168.649 161.608 168.649 162.376C168.649 163.592 168.193 164.544 167.281 165.232C166.385 165.904 165.185 166.24 163.681 166.24Z" fill="#303030"/>
</svg>
