<svg width="235" height="204" viewBox="0 0 235 204" fill="none" xmlns="http://www.w3.org/2000/svg">
<rect width="235" height="204" rx="15" fill="white"/>
<path opacity="0.5" d="M128.278 63.0387C127.912 64.3774 127.202 66.9742 126.498 69.5602C126.3 70.2369 126.048 70.8967 125.745 71.5334C124.385 74.5065 124.165 77.6462 124.052 80.8236C123.896 85.2161 123.315 89.5602 121.595 93.7268C121.237 94.5907 120.783 95.4114 120.24 96.1731C117.88 99.501 113.251 99.6408 110.837 96.329C109.873 94.8726 109.128 93.282 108.627 91.6086C107.864 89.372 107.369 87.0494 106.697 84.786C106.462 84.0392 106.126 83.3282 105.697 82.6731C104.375 80.6247 101.643 80.3989 100.208 82.3774C99.2443 83.8333 98.4761 85.4095 97.9229 87.0655C96.8853 89.7967 96.0251 92.5924 95.0251 95.3397C94.758 95.9615 94.383 96.5312 93.9176 97.0225C93.4719 97.5686 92.9132 98.0117 92.2799 98.3211C91.6465 98.6305 90.9537 98.7989 90.249 98.8148C89.5443 98.8306 88.8445 98.6935 88.1979 98.4129C87.5513 98.1322 86.9733 97.7147 86.5036 97.1892C84.8026 95.3282 83.6815 93.0113 83.2778 90.5225C82.5713 86.9125 82.0722 83.265 81.7831 79.5979C81.6202 76.9505 81.0938 74.3382 80.2186 71.8344C79.1434 68.8774 78.0681 65.8774 77.6326 62.8129C76.9014 57.528 79.5305 53.4581 84.1488 50.528C86.7617 48.8667 89.7132 49.071 92.6218 49.8398C94.1111 50.2269 95.5896 50.6409 97.0412 51.1302C100.695 52.3956 104.664 52.4183 108.332 51.1947C110.159 50.614 112.03 50.1194 113.907 49.6786C115.55 49.2601 117.271 49.249 118.92 49.6462C120.569 50.0435 122.096 50.8371 123.369 51.9581C126.6 54.6355 128.294 57.9312 128.278 63.0387Z" fill="#FFE5B3"/>
<path d="M100.972 48.5227C102.08 48.7732 103.161 49.1334 104.198 49.598C105.427 50.1815 106.604 50.8704 107.714 51.6571C109.074 52.4797 111.332 53.1947 115.193 52.4904" stroke="#4D2C19" stroke-width="2.68817" stroke-miterlimit="10" stroke-linecap="round"/>
<path d="M130.967 60.8614C130.601 62.3022 129.892 65.0925 129.187 67.8506C128.992 68.5856 128.74 69.3046 128.435 70.0011C127.074 73.2269 126.854 76.5764 126.741 80.0012C126.585 84.7216 126.005 89.399 124.284 93.8506C123.93 94.7739 123.476 95.6554 122.929 96.4796C120.569 100.066 115.94 100.211 113.526 96.6516C112.555 95.0701 111.811 93.3598 111.316 91.571C110.553 89.1624 110.058 86.6678 109.386 84.2269C109.154 83.4302 108.817 82.6674 108.386 81.9581C107.064 79.7538 104.333 79.5119 102.897 81.6409C101.929 83.2203 101.161 84.9144 100.612 86.6839C99.5745 89.6248 98.7143 92.6301 97.7143 95.5818C97.452 96.2449 97.0773 96.8578 96.6068 97.3936C94.6014 99.8989 91.3111 99.9849 89.1928 97.5764C87.4719 95.532 86.3548 93.0484 85.967 90.4043C85.2601 86.5162 84.7612 82.593 84.4724 78.6517C84.3115 75.8112 83.7857 73.0031 82.9079 70.2969C81.8326 67.1141 80.7573 63.8829 80.3218 60.5872C79.5907 54.9044 82.2197 50.5227 86.838 47.3722C89.4509 45.5872 92.4024 45.8077 95.311 46.6302C96.8003 47.0496 98.2788 47.4905 99.7304 48.0174C103.366 49.3811 107.368 49.4058 111.021 48.0872C112.849 47.4636 114.72 46.9259 116.596 46.4743C120.171 45.5818 123.311 46.4743 126.058 48.9259C129.29 51.8184 130.983 55.356 130.967 60.8614Z" stroke="#4D2C19" stroke-width="3" stroke-miterlimit="10" stroke-linecap="round"/>
<path d="M100.014 136.165H94.3498V150.829H91.6378V136.165H85.9498V133.789H100.014V136.165ZM105.12 151.069C104.144 151.069 103.256 150.901 102.456 150.565C101.672 150.213 100.992 149.741 100.416 149.149C99.8397 148.541 99.3917 147.853 99.0717 147.085C98.7677 146.301 98.6157 145.469 98.6157 144.589C98.6157 143.405 98.8877 142.325 99.4317 141.349C99.9757 140.357 100.736 139.565 101.712 138.973C102.688 138.365 103.832 138.061 105.144 138.061C106.456 138.061 107.584 138.365 108.528 138.973C109.488 139.565 110.232 140.349 110.76 141.325C111.288 142.301 111.552 143.349 111.552 144.469C111.552 144.661 111.544 144.845 111.528 145.021C111.512 145.181 111.496 145.317 111.48 145.429H101.424C101.472 146.165 101.672 146.813 102.024 147.373C102.392 147.917 102.856 148.349 103.416 148.669C103.976 148.973 104.576 149.125 105.216 149.125C105.92 149.125 106.584 148.949 107.208 148.597C107.848 148.245 108.28 147.781 108.504 147.205L110.76 147.853C110.488 148.461 110.072 149.013 109.512 149.509C108.968 149.989 108.32 150.373 107.568 150.661C106.816 150.933 106 151.069 105.12 151.069ZM101.352 143.677H108.936C108.888 142.957 108.68 142.325 108.312 141.781C107.96 141.221 107.504 140.789 106.944 140.485C106.4 140.165 105.792 140.005 105.12 140.005C104.464 140.005 103.856 140.165 103.296 140.485C102.752 140.789 102.304 141.221 101.952 141.781C101.6 142.325 101.4 142.957 101.352 143.677ZM119.393 151.069C118.417 151.069 117.529 150.901 116.729 150.565C115.945 150.213 115.265 149.741 114.689 149.149C114.113 148.541 113.665 147.853 113.345 147.085C113.041 146.301 112.889 145.469 112.889 144.589C112.889 143.405 113.161 142.325 113.705 141.349C114.249 140.357 115.009 139.565 115.985 138.973C116.961 138.365 118.105 138.061 119.417 138.061C120.729 138.061 121.857 138.365 122.801 138.973C123.761 139.565 124.505 140.349 125.033 141.325C125.561 142.301 125.825 143.349 125.825 144.469C125.825 144.661 125.817 144.845 125.801 145.021C125.785 145.181 125.769 145.317 125.753 145.429H115.697C115.745 146.165 115.945 146.813 116.297 147.373C116.665 147.917 117.129 148.349 117.689 148.669C118.249 148.973 118.849 149.125 119.489 149.125C120.193 149.125 120.857 148.949 121.481 148.597C122.121 148.245 122.553 147.781 122.777 147.205L125.033 147.853C124.761 148.461 124.345 149.013 123.785 149.509C123.241 149.989 122.593 150.373 121.841 150.661C121.089 150.933 120.273 151.069 119.393 151.069ZM115.625 143.677H123.209C123.161 142.957 122.953 142.325 122.585 141.781C122.233 141.221 121.777 140.789 121.217 140.485C120.673 140.165 120.065 140.005 119.393 140.005C118.737 140.005 118.129 140.165 117.569 140.485C117.025 140.789 116.577 141.221 116.225 141.781C115.873 142.325 115.673 142.957 115.625 143.677ZM134.845 150.181C134.621 150.293 134.341 150.413 134.005 150.541C133.669 150.669 133.285 150.781 132.853 150.877C132.437 150.973 132.005 151.021 131.557 151.021C131.013 151.021 130.509 150.925 130.045 150.733C129.581 150.541 129.205 150.237 128.917 149.821C128.645 149.389 128.509 148.837 128.509 148.165V140.317H126.853V138.277H128.509V134.149H131.149V138.277H133.885V140.317H131.149V147.325C131.181 147.757 131.317 148.077 131.557 148.285C131.813 148.493 132.125 148.597 132.493 148.597C132.861 148.597 133.213 148.533 133.549 148.405C133.885 148.277 134.133 148.173 134.293 148.093L134.845 150.181ZM147.93 150.829H145.29V143.797C145.29 142.661 145.082 141.813 144.666 141.253C144.25 140.693 143.666 140.413 142.914 140.413C142.45 140.413 141.97 140.541 141.474 140.797C140.978 141.053 140.538 141.405 140.154 141.853C139.77 142.285 139.49 142.789 139.314 143.365V150.829H136.674V133.309H139.314V140.797C139.794 139.949 140.45 139.285 141.282 138.805C142.114 138.309 143.01 138.061 143.97 138.061C144.754 138.061 145.402 138.197 145.914 138.469C146.426 138.741 146.826 139.117 147.114 139.597C147.418 140.061 147.626 140.605 147.738 141.229C147.866 141.837 147.93 142.485 147.93 143.173V150.829ZM66.5578 164.861H69.0778L71.1898 170.645L73.3258 164.861H75.8458L72.9178 172.445L75.4618 178.709L80.7658 164.789H83.7178L76.7338 181.829H74.4058L71.2138 174.197L67.9978 181.829H65.6458L58.6858 164.789H61.6138L66.9418 178.709L69.4858 172.445L66.5578 164.861ZM96.6486 181.829H94.0086V174.797C94.0086 173.661 93.8006 172.813 93.3846 172.253C92.9686 171.693 92.3846 171.413 91.6326 171.413C91.1686 171.413 90.6886 171.541 90.1926 171.797C89.6966 172.053 89.2566 172.405 88.8726 172.853C88.4886 173.285 88.2086 173.789 88.0326 174.365V181.829H85.3926V164.309H88.0326V171.797C88.5126 170.949 89.1686 170.285 90.0006 169.805C90.8326 169.309 91.7286 169.061 92.6886 169.061C93.4726 169.061 94.1206 169.197 94.6326 169.469C95.1446 169.741 95.5446 170.117 95.8326 170.597C96.1366 171.061 96.3446 171.605 96.4566 172.229C96.5846 172.837 96.6486 173.485 96.6486 174.173V181.829ZM99.7129 181.829V169.277H102.353V181.829H99.7129ZM99.7129 167.213V164.309H102.353V167.213H99.7129ZM112.509 181.181C112.285 181.293 112.005 181.413 111.669 181.541C111.333 181.669 110.949 181.781 110.517 181.877C110.101 181.973 109.669 182.021 109.221 182.021C108.677 182.021 108.173 181.925 107.709 181.733C107.245 181.541 106.869 181.237 106.581 180.821C106.309 180.389 106.173 179.837 106.173 179.165V171.317H104.517V169.277H106.173V165.149H108.813V169.277H111.549V171.317H108.813V178.325C108.845 178.757 108.981 179.077 109.221 179.285C109.477 179.493 109.789 179.597 110.157 179.597C110.525 179.597 110.877 179.533 111.213 179.405C111.549 179.277 111.797 179.173 111.957 179.093L112.509 181.181ZM119.862 182.069C118.886 182.069 117.998 181.901 117.198 181.565C116.414 181.213 115.734 180.741 115.158 180.149C114.582 179.541 114.134 178.853 113.814 178.085C113.51 177.301 113.358 176.469 113.358 175.589C113.358 174.405 113.63 173.325 114.174 172.349C114.718 171.357 115.478 170.565 116.454 169.973C117.43 169.365 118.574 169.061 119.886 169.061C121.198 169.061 122.326 169.365 123.27 169.973C124.23 170.565 124.974 171.349 125.502 172.325C126.03 173.301 126.294 174.349 126.294 175.469C126.294 175.661 126.286 175.845 126.27 176.021C126.254 176.181 126.238 176.317 126.222 176.429H116.166C116.214 177.165 116.414 177.813 116.766 178.373C117.134 178.917 117.598 179.349 118.158 179.669C118.718 179.973 119.318 180.125 119.958 180.125C120.662 180.125 121.326 179.949 121.95 179.597C122.59 179.245 123.022 178.781 123.246 178.205L125.502 178.853C125.23 179.461 124.814 180.013 124.254 180.509C123.71 180.989 123.062 181.373 122.31 181.661C121.558 181.933 120.742 182.069 119.862 182.069ZM116.094 174.677H123.678C123.63 173.957 123.422 173.325 123.054 172.781C122.702 172.221 122.246 171.789 121.686 171.485C121.142 171.165 120.534 171.005 119.862 171.005C119.206 171.005 118.598 171.165 118.038 171.485C117.494 171.789 117.046 172.221 116.694 172.781C116.342 173.325 116.142 173.957 116.094 174.677ZM139.703 181.829H137.063V174.797C137.063 173.629 136.871 172.773 136.487 172.229C136.119 171.685 135.567 171.413 134.831 171.413C134.319 171.413 133.807 171.541 133.295 171.797C132.799 172.053 132.351 172.405 131.951 172.853C131.551 173.285 131.263 173.789 131.087 174.365V181.829H128.447V169.277H130.847V171.797C131.167 171.237 131.583 170.757 132.095 170.357C132.623 169.941 133.215 169.621 133.871 169.397C134.527 169.173 135.223 169.061 135.959 169.061C136.711 169.061 137.327 169.197 137.807 169.469C138.303 169.741 138.687 170.117 138.959 170.597C139.247 171.061 139.439 171.605 139.535 172.229C139.647 172.837 139.703 173.485 139.703 174.173V181.829ZM142.768 181.829V169.277H145.408V181.829H142.768ZM142.768 167.213V164.309H145.408V167.213H142.768ZM159.836 181.829H157.196V174.797C157.196 173.629 157.004 172.773 156.62 172.229C156.252 171.685 155.7 171.413 154.964 171.413C154.452 171.413 153.94 171.541 153.428 171.797C152.932 172.053 152.484 172.405 152.084 172.853C151.684 173.285 151.396 173.789 151.22 174.365V181.829H148.58V169.277H150.98V171.797C151.3 171.237 151.716 170.757 152.228 170.357C152.756 169.941 153.348 169.621 154.004 169.397C154.66 169.173 155.356 169.061 156.092 169.061C156.844 169.061 157.46 169.197 157.94 169.469C158.436 169.741 158.82 170.117 159.092 170.597C159.38 171.061 159.572 171.605 159.668 172.229C159.78 172.837 159.836 173.485 159.836 174.173V181.829ZM167.868 181.949C167.02 181.949 166.244 181.781 165.54 181.445C164.836 181.093 164.228 180.621 163.716 180.029C163.22 179.437 162.828 178.757 162.54 177.989C162.268 177.221 162.132 176.413 162.132 175.565C162.132 174.669 162.276 173.829 162.564 173.045C162.852 172.261 163.252 171.573 163.764 170.981C164.292 170.373 164.908 169.901 165.612 169.565C166.316 169.229 167.1 169.061 167.964 169.061C168.972 169.061 169.852 169.301 170.604 169.781C171.372 170.261 172.004 170.885 172.5 171.653V169.277H174.828V181.469C174.828 182.685 174.532 183.717 173.94 184.565C173.364 185.413 172.572 186.061 171.564 186.509C170.556 186.957 169.42 187.181 168.156 187.181C166.764 187.181 165.612 186.941 164.7 186.461C163.788 185.981 163.012 185.325 162.372 184.493L163.86 183.101C164.34 183.773 164.956 184.285 165.708 184.637C166.476 184.989 167.292 185.165 168.156 185.165C168.876 185.165 169.54 185.029 170.148 184.757C170.772 184.501 171.268 184.093 171.636 183.533C172.004 182.989 172.188 182.301 172.188 181.469V179.549C171.74 180.301 171.124 180.893 170.34 181.325C169.556 181.741 168.732 181.949 167.868 181.949ZM168.732 179.813C169.132 179.813 169.516 179.749 169.884 179.621C170.252 179.477 170.588 179.293 170.892 179.069C171.212 178.829 171.484 178.565 171.708 178.277C171.932 177.973 172.092 177.653 172.188 177.317V174.029C171.98 173.485 171.684 173.013 171.3 172.613C170.916 172.197 170.484 171.877 170.004 171.653C169.524 171.429 169.036 171.317 168.54 171.317C167.964 171.317 167.444 171.445 166.98 171.701C166.532 171.941 166.148 172.269 165.828 172.685C165.508 173.085 165.26 173.541 165.084 174.053C164.908 174.565 164.82 175.093 164.82 175.637C164.82 176.213 164.916 176.749 165.108 177.245C165.316 177.741 165.596 178.189 165.948 178.589C166.3 178.973 166.716 179.277 167.196 179.501C167.676 179.709 168.188 179.813 168.732 179.813Z" fill="#303030"/>
</svg>
